# VPXTOOL table OBJ file
# VPXTOOL OBJ file
# numVerts: 54 numFaces: 54
o LM_GI_GI7_TriggerLane1
v 1189.09716796875 82574.8828125 -24210.994140625
v 1188.927490234375 -32444.9765625 -71482.1484375
v 2377.85498046875 -32444.9765625 -69427.125
v -2378.081298828125 -32444.9765625 -69427.125
v -1189.09716796875 -32444.9765625 -71482.1484375
v -1188.8709716796875 82574.8828125 -24210.994140625
v -1189.09716796875 -32444.9765625 -71482.1484375
v 1188.927490234375 -32444.9765625 -71482.1484375
v -1188.8709716796875 82574.8828125 -24210.994140625
v 2378.1376953125 81210.7421875 -22697.2578125
v 1189.09716796875 82574.8828125 -24210.994140625
v 2377.85498046875 -32444.9765625 -69427.125
v -2377.91162109375 81210.7421875 -22697.2578125
v -2378.081298828125 -32444.9765625 -69427.125
v -1188.8709716796875 82574.8828125 -24210.994140625
v 1188.927490234375 -32444.9765625 -71482.1484375
v 1189.09716796875 82574.8828125 -24210.994140625
v -1188.8709716796875 82574.8828125 -24210.994140625
v 2377.85498046875 -38585.58203125 -67532.7578125
v 2377.85498046875 -32444.9765625 -69427.125
v 1188.8709716796875 -39552.25 -69351.0078125
v -2378.081298828125 -38585.52734375 -67532.7578125
v -1189.09716796875 -39552.25 -69351.0078125
v -2378.081298828125 -32444.9765625 -69427.125
v 2377.85498046875 -32444.9765625 -69427.125
v 1188.927490234375 -32444.9765625 -71482.1484375
v 1188.8709716796875 -39552.25 -69351.0078125
v -1189.09716796875 -39552.25 -69351.0078125
v -1189.09716796875 -32444.9765625 -71482.1484375
v -2378.081298828125 -32444.9765625 -69427.125
v 1188.8709716796875 -39552.25 -69351.0078125
v 1188.927490234375 -32444.9765625 -71482.1484375
v -1189.09716796875 -32444.9765625 -71482.1484375
v -1189.09716796875 -39552.25 -69351.0078125
v 1188.8709716796875 -39552.25 -69351.0078125
v -1189.09716796875 -32444.9765625 -71482.1484375
v 2378.1376953125 81210.7421875 -22697.2578125
v 2378.1376953125 84168.75 -18356.5078125
v 1189.09716796875 82574.8828125 -24210.994140625
v -2377.91162109375 81210.7421875 -22697.2578125
v -1188.8709716796875 82574.8828125 -24210.994140625
v -2377.91162109375 84168.75 -18356.5078125
v -1188.8709716796875 82574.8828125 -24210.994140625
v 1189.09716796875 82574.8828125 -24210.994140625
v 1189.09716796875 86148.109375 -18924.25
v 2378.1376953125 84168.75 -18356.5078125
v 1189.09716796875 86148.109375 -18924.25
v 1189.09716796875 82574.8828125 -24210.994140625
v -1188.8709716796875 82574.8828125 -24210.994140625
v -1188.8709716796875 86148.109375 -18924.25
v -2377.91162109375 84168.75 -18356.5078125
v -1188.8709716796875 86148.109375 -18924.25
v -1188.8709716796875 82574.8828125 -24210.994140625
v 1189.09716796875 86148.109375 -18924.25
vt 0.0022762606386095285 0.5855397582054138
vt 0.002021285705268383 0.5682302713394165
vt 0.0024404553696513176 0.5683545470237732
vt 0.0008914548670873046 0.5683545470237732
vt 0.0012464843457564712 0.5682302713394165
vt 0.0015038481215015054 0.5855397582054138
vt 0.0012464843457564712 0.5682302713394165
vt 0.002021285705268383 0.5682302713394165
vt 0.0015038481215015054 0.5855397582054138
vt 0.0026913348119705915 0.5854535102844238
vt 0.0022762606386095285 0.5855397582054138
vt 0.0024404553696513176 0.5683545470237732
vt 0.0011470720637589693 0.5854535102844238
vt 0.0008914548670873046 0.5683545470237732
vt 0.0015038481215015054 0.5855397582054138
vt 0.002021285705268383 0.5682302713394165
vt 0.0022762606386095285 0.5855397582054138
vt 0.0015038481215015054 0.5855397582054138
vt 0.002495120046660304 0.5676953792572021
vt 0.0024404553696513176 0.5683545470237732
vt 0.0020839604549109936 0.5674635767936707
vt 0.0009471634984947741 0.5676954388618469
vt 0.0013097411720082164 0.5674635767936707
vt 0.0008914548670873046 0.5683545470237732
vt 0.0024404553696513176 0.5683545470237732
vt 0.002021285705268383 0.5682302713394165
vt 0.0020839604549109936 0.5674635767936707
vt 0.0013097411720082164 0.5674635767936707
vt 0.0012464843457564712 0.5682302713394165
vt 0.0008914548670873046 0.5683545470237732
vt 0.0020839604549109936 0.5674635767936707
vt 0.002021285705268383 0.5682302713394165
vt 0.0012464843457564712 0.5682302713394165
vt 0.0013097411720082164 0.5674635767936707
vt 0.0020839604549109936 0.5674635767936707
vt 0.0012464843457564712 0.5682302713394165
vt 0.0026913348119705915 0.5854535102844238
vt 0.0027458188124001026 0.5860750675201416
vt 0.0022762606386095285 0.5855397582054138
vt 0.0011470720637589693 0.5854535102844238
vt 0.0015038481215015054 0.5855397582054138
vt 0.001202559913508594 0.5860750675201416
vt 0.0015038481215015054 0.5855397582054138
vt 0.0022762606386095285 0.5855397582054138
vt 0.0023430706933140755 0.58629310131073
vt 0.0027458188124001026 0.5860750675201416
vt 0.0023430706933140755 0.58629310131073
vt 0.0022762606386095285 0.5855397582054138
vt 0.0015038481215015054 0.5855397582054138
vt 0.0015713006723672152 0.58629310131073
vt 0.001202559913508594 0.5860750675201416
vt 0.0015713006723672152 0.58629310131073
vt 0.0015038481215015054 0.5855397582054138
vt 0.0023430706933140755 0.58629310131073
vn 0.5615109801292419 0.6870129704475403 -0.46121418476104736
vn 0.4566683769226074 0.04141835868358612 -0.8886722922325134
vn 0.9938724637031555 0.01652011275291443 -0.10929112136363983
vn -0.9940001368522644 0.017291978001594543 -0.10800442099571228
vn -0.45622164011001587 0.04210953414440155 -0.8888693451881409
vn -0.5612761974334717 0.6869649291038513 -0.46157169342041016
vn -0.4583020508289337 0.04189648851752281 -0.8878085017204285
vn 0.4620065987110138 0.045564115047454834 -0.8857052326202393
vn -0.19444309175014496 0.7775054574012756 -0.5980610847473145
vn 0.9968613982200623 0.04828120768070221 -0.06274113059043884
vn 0.46248355507850647 0.5569560527801514 -0.6898615956306458
vn 0.928249716758728 -0.20427705347537994 -0.31084299087524414
vn -0.9966757893562317 0.047361820936203 -0.06628884375095367
vn -0.9288696050643921 -0.20427462458610535 -0.3089873194694519
vn -0.46236637234687805 0.5567737817764282 -0.6900871396064758
vn 0.15421970188617706 -0.16829562187194824 -0.9735978841781616
vn 0.4619956910610199 0.561273455619812 -0.6866819262504578
vn -0.4644375145435333 0.5565647482872009 -0.6888638734817505
vn 0.992655336856842 -0.09275630116462708 -0.077664315700531
vn 0.950846254825592 0.1969558447599411 -0.2389557957649231
vn 0.43847817182540894 -0.4598824679851532 -0.7721690535545349
vn -0.9935787916183472 -0.0863708034157753 -0.07308453321456909
vn -0.4365289509296417 -0.45891866087913513 -0.7738451361656189
vn -0.9508253931999207 0.1981429159641266 -0.2380555421113968
vn 0.9931803345680237 -0.07307685166597366 -0.09084343910217285
vn 0.452306866645813 0.04251158982515335 -0.8908485770225525
vn 0.5529778003692627 -0.66506427526474 -0.5019015073776245
vn -0.5506407022476196 -0.6656305193901062 -0.5037169456481934
vn -0.4518599212169647 0.0432291179895401 -0.8910408020019531
vn -0.9933355450630188 -0.07270807027816772 -0.0894305557012558
vn 0.21204650402069092 -0.7275952696800232 -0.6524120569229126
vn 0.45891833305358887 0.04127844050526619 -0.8875190019607544
vn -0.5014153718948364 -0.035994455218315125 -0.8644576072692871
vn -0.4545263350009918 -0.5360173583030701 -0.7114008069038391
vn 0.5018706321716309 -0.4594748020172119 -0.7328087091445923
vn -0.2249230146408081 0.23481206595897675 -0.9456599950790405
vn 0.9968881011009216 0.04587416350841522 -0.06410741060972214
vn 0.9527061581611633 0.28125643730163574 0.11509011685848236
vn 0.4420168995857239 0.654243528842926 -0.6136663556098938
vn -0.9966990351676941 0.045016199350357056 -0.06756243109703064
vn -0.4418279230594635 0.6541661024093628 -0.6138851046562195
vn -0.9512860178947449 0.2856557369232178 0.1159989982843399
vn -0.5031137466430664 0.6151883006095886 -0.6069760322570801
vn 0.46201035380363464 0.5611793994903564 -0.6867488622665405
vn 0.23297500610351563 0.9707400798797607 -0.05819326639175415
vn 0.9922751188278198 0.051318734884262085 -0.11294450610876083
vn 0.45582303404808044 0.8622548580169678 -0.22077561914920807
vn 0.5339311361312866 0.3656463325023651 -0.7623780965805054
vn -0.533825159072876 0.36543008685112 -0.7625558972358704
vn -0.4557597041130066 0.862385630607605 -0.2203952819108963
vn -0.9924763441085815 0.0538439080119133 -0.1099616065621376
vn -0.4584134519100189 0.8609364032745361 -0.2205573171377182
vn -0.26732319593429565 0.4492664635181427 -0.852465808391571
vn 0.5076440572738647 0.8080664873123169 -0.29887452721595764
f 3/3/3 2/2/2 1/1/1
f 6/6/6 5/5/5 4/4/4
f 9/9/9 8/8/8 7/7/7
f 12/12/12 11/11/11 10/10/10
f 15/15/15 14/14/14 13/13/13
f 18/18/18 17/17/17 16/16/16
f 21/21/21 20/20/20 19/19/19
f 24/24/24 23/23/23 22/22/22
f 27/27/27 26/26/26 25/25/25
f 30/30/30 29/29/29 28/28/28
f 33/33/33 32/32/32 31/31/31
f 36/36/36 35/35/35 34/34/34
f 39/39/39 38/38/38 37/37/37
f 42/42/42 41/41/41 40/40/40
f 45/45/45 44/44/44 43/43/43
f 48/48/48 47/47/47 46/46/46
f 51/51/51 50/50/50 49/49/49
f 54/54/54 53/53/53 52/52/52
