# VPXTOOL table OBJ file
# VPXTOOL OBJ file
# numVerts: 171 numFaces: 483
o LM_All_Lights_GIlight015_Playfi
v 234.87429809570313 828.0511474609375 -0
v 340.6910095214844 874.0349731445313 -0
v 280.13079833984375 945.15234375 -0
v 204.5941925048828 863.60986328125 -0
v 203.49420166015625 865.5347900390625 -0
v 350.3590393066406 867.5897216796875 -0
v 439.88531494140625 819.6773071289063 -0
v 354.11871337890625 868.1267700195313 -0
v 235.94850158691406 826.17138671875 -0
v 342.83941650390625 870.275390625 -0
v 237.8284454345703 821.2470703125 -0
v 346.59930419921875 868.1267700195313 -0
v 236.2235107421875 824.2463989257813 -0
v 235.94850158691406 822.3213500976563 -0
v 31.02920150756836 925.6815795898438 -0
v 0 1029.0196533203125 -0
v 0 900.3922119140625 -0
v 346.59930419921875 868.1267700195313 -0
v 342.11895751953125 686.159423828125 -0
v 350.3590393066406 867.5897216796875 -0
v 386.94415283203125 691.0498657226563 -0
v 126.85761260986328 785.9172973632813 -0
v 62.05840301513672 822.3434448242188 -0
v 105.8823013305664 900.3922119140625 -0
v 129.05760192871094 782.0673217773438 -0
v 342.11895751953125 686.159423828125 -0
v 235.94850158691406 822.3213500976563 -0
v 236.2235107421875 824.2463989257813 -0
v 129.60760498046875 778.2173461914063 -0
v 237.8284454345703 821.2470703125 -0
v 129.05760192871094 774.3673095703125 -0
v 63.27700424194336 823.0396728515625 -0
v 344.60809326171875 685.9779663085938 -0
v 129.60760498046875 778.2173461914063 -0
v 343.9988098144531 685.890869140625 -0
v 129.05760192871094 774.3673095703125 -0
v 67.82280731201172 818.7478637695313 -0
v 111.45760345458984 785.9172973632813 -0
v 67.62890625 821.1248779296875 -0
v 476.4704284667969 643.1373901367188 -0
v 67.82280731201172 818.7478637695313 -0
v 109.25760650634766 782.0673217773438 -0
v 111.45760345458984 785.9172973632813 -0
v 0 771.7648315429688 -0
v 108.70759582519531 778.2173461914063 -0
v 233.3480987548828 639.2796630859375 -0
v 61.362098693847656 821.1248779296875 -0
v 60.995296478271484 819.1530151367188 -0
v 67.68609619140625 736.0440063476563 -0
v 109.25760650634766 774.3673095703125 -0
v 111.45760345458984 770.517333984375 -0
v 123.00759887695313 768.3172607421875 -0
v 119.15760803222656 767.7671508789063 -0
v 66.81570434570313 733.6068725585938 -0
v 115.30760955810547 768.3172607421875 -0
v 67.51200103759766 734.825439453125 -0
v 232.73886108398438 638.9315185546875 -0
v 127.57050323486328 771.7648315429688 -0
v 61.02730178833008 737.909912109375 -0
v 203.1490936279297 611.9378051757813 -0
v 126.85761260986328 770.517333984375 -0
v 202.7926483154297 611.3140869140625 -0
v 61.071102142333984 736.0440063476563 -0
v 61.245201110839844 734.825439453125 -0
v 231.99530029296875 637.6302490234375 -0
v 200.86764526367188 610.2140502929688 -0
v 205.89915466308594 614.6878051757813 -0
v 423.529296875 514.5099487304688 -0
v 204.1490936279297 613.6878051757813 -0
v 338.8572082519531 504.3661193847656 -0
v 337.6385803222656 504.1920166015625 -0
v 0 643.1373291015625 -0
v 65.59709930419922 732.9105834960938 -0
v 65.59709930419922 732.9105834960938 -0
v 64.37860107421875 732.7365112304688 -0
v 0 643.1373291015625 -0
v 61.941402435302734 733.6068725585938 -0
v 64.37860107421875 732.7365112304688 -0
v 63.160003662109375 732.9105834960938 -0
v 172.77169799804688 592.85888671875 -0
v 200.86764526367188 610.2140502929688 -0
v 66.81570434570313 733.6068725585938 -0
v 172.77169799804688 592.85888671875 -0
v 336.42010498046875 503.4956970214844 -0
v 441.27960205078125 512.5304565429688 -0
v 284.2278137207031 457.6108093261719 -0
v 280.7276916503906 455.6108093261719 -0
v 139.3638458251953 547.6240844726563 -0
v 202.7926483154297 611.3140869140625 -0
v 278.7276916503906 452.1108093261719 -0
v 203.1490936279297 611.9378051757813 -0
v 278.7276916503906 452.1108093261719 -0
v 440.0609130859375 512.3561401367188 -0
v 438.8424072265625 511.6600341796875 -0
v 438.1462097167969 510.44171142578125 -0
v 437.3110656738281 508.3138732910156 -0
v 340.0758056640625 504.1920166015625 -0
v 423.529296875 514.5099487304688 -0
v 340.0758056640625 504.1920166015625 -0
v 341.2942810058594 503.4956970214844 -0
v 341.2942810058594 503.4956970214844 -0
v 341.9906005859375 502.2772216796875 -0
v 105.8823471069336 514.5098266601563 -0
v 385.7292785644531 475.6593017578125 -0
v 389.57928466796875 476.2093200683594 -0
v 393.4293212890625 475.6593017578125 -0
v 397.2793273925781 473.4593200683594 -0
v 399.47930908203125 469.6093444824219 -0
v 399.47930908203125 469.6093444824219 -0
v 400.029296875 465.7593078613281 -0
v 437.8113098144531 421.89312744140625 -0
v 400.029296875 465.7593078613281 -0
v 399.47930908203125 461.9092102050781 -0
v 335.72381591796875 502.2772216796875 -0
v 335.3570251464844 500.305419921875 -0
v 287.7276916503906 458.1108093261719 -0
v 0 482.35296630859375 -0
v 291.22772216796875 457.6108093261719 -0
v 294.727783203125 455.6108093261719 -0
v 296.727783203125 452.1108093261719 -0
v 335.3890075683594 413.7283020019531 -0
v 211.7646942138672 385.8824157714844 -0
v 297.2276916503906 448.61077880859375 -0
v 296.727783203125 445.1108093261719 -0
v 294.727783203125 441.6108093261719 -0
v 291.22772216796875 439.6108093261719 -0
v 278.22772216796875 448.61077880859375 -0
v 317.6470031738281 385.8824157714844 -0
v 287.7276916503906 439.11090087890625 -0
v 284.2278137207031 439.6108093261719 -0
v 278.7276916503906 445.1108093261719 -0
v 280.7276916503906 441.6108093261719 -0
v 441.1625061035156 416.7197265625 -0
v 439.9439697265625 416.8938293457031 -0
v 341.1773986816406 409.4253234863281 -0
v 335.43267822265625 411.8624267578125 -0
v 335.6067810058594 410.6439208984375 -0
v 423.529296875 385.8824157714844 -0
v 335.6067810058594 410.6439208984375 -0
v 317.6470031738281 385.8824157714844 -0
v 336.3031005859375 409.4253234863281 -0
v 341.1773986816406 409.4253234863281 -0
v 339.95880126953125 408.7289733886719 -0
v 336.3031005859375 409.4253234863281 -0
v 337.5216064453125 408.7289733886719 -0
v 338.7402038574219 408.5549011230469 -0
v 339.95880126953125 408.7289733886719 -0
v 105.8823471069336 353.72552490234375 -0
v 0 321.56866455078125 -0
v 291.17645263671875 289.41180419921875 -0
v 423.529296875 192.9412078857422 -0
v 370.5881652832031 192.9412078857422 -0
v 291.17645263671875 289.41180419921875 -0
v 211.7646942138672 385.8824157714844 -0
v 238.23526000976563 192.9412078857422 -0
v 105.8823471069336 192.9412078857422 -0
v 105.8823471069336 192.9412078857422 -0
v 238.23526000976563 192.9412078857422 -0
v 449.9998779296875 96.4706039428711 -0
v 0 160.78433227539063 -0
v 185.29408264160156 96.4706039428711 -0
v 370.5881652832031 192.9412078857422 -0
v 264.705810546875 -0 -0
v 449.9998779296875 96.4706039428711 -0
v 397.0587158203125 -0 -0
v 185.29408264160156 96.4706039428711 -0
v 264.705810546875 -0 -0
v 132.3529052734375 -0 -0
v 0 -0 -0
v 0 -0 -0
v 132.3529052734375 -0 -0
vt 0.16193915903568268 0.759020209312439
vt 0.23124369978904724 0.7705754637718201
vt 0.19027793407440186 0.78864985704422
vt 0.1413797289133072 0.767946720123291
vt 0.1406191885471344 0.7684317231178284
vt 0.23769213259220123 0.7689496874809265
vt 0.2969992160797119 0.7569268941879272
vt 0.24017387628555298 0.7690850496292114
vt 0.16267533600330353 0.7585500478744507
vt 0.23269718885421753 0.7696268558502197
vt 0.16398774087429047 0.7573190927505493
vt 0.23520170152187347 0.7690850496292114
vt 0.16288571059703827 0.7580686807632446
vt 0.16273389756679535 0.7575874924659729
vt 0.02488809823989868 0.7836765646934509
vt 0.0010480653727427125 0.8102883100509644
vt 0.005030841566622257 0.7772451639175415
vt 0.23520170152187347 0.7690850496292114
vt 0.2337713986635208 0.7239992618560791
vt 0.23769213259220123 0.7689496874809265
vt 0.26287364959716797 0.7251905798912048
vt 0.09171709418296814 0.7485216856002808
vt 0.04825499653816223 0.757593035697937
vt 0.07526364177465439 0.7772451639175415
vt 0.09324432909488678 0.7475665807723999
vt 0.2337713986635208 0.7239992618560791
vt 0.16273389756679535 0.7575874924659729
vt 0.16288571059703827 0.7580686807632446
vt 0.09368876367807388 0.7466121912002563
vt 0.16398774087429047 0.7573190927505493
vt 0.09341200441122055 0.7456585168838501
vt 0.049039050936698914 0.7577670216560364
vt 0.23539043962955475 0.7239550352096558
vt 0.09368876367807388 0.7466121912002563
vt 0.23499520123004913 0.7239338755607605
vt 0.09341200441122055 0.7456585168838501
vt 0.05214276164770126 0.7566947937011719
vt 0.08161399513483047 0.7485216856002808
vt 0.0519537627696991 0.7572885155677795
vt 0.32107841968536377 0.7135661244392395
vt 0.05214276164770126 0.7566947937011719
vt 0.08025943487882614 0.7475665807723999
vt 0.08161399513483047 0.7485216856002808
vt 0.008915680460631847 0.7450142502784729
vt 0.079987533390522 0.7466121912002563
vt 0.1637866497039795 0.712634801864624
vt 0.0478285551071167 0.7572885155677795
vt 0.04763885959982872 0.7567959427833557
vt 0.05417177453637123 0.7362036108970642
vt 0.08043667674064636 0.7456585168838501
vt 0.08196637034416199 0.7447055578231812
vt 0.08958118408918381 0.7441612482070923
vt 0.0870719850063324 0.7440252304077148
vt 0.05366554111242294 0.7356046438217163
vt 0.08453815430402756 0.7441612482070923
vt 0.05408908799290657 0.7359040975570679
vt 0.1633976697921753 0.7125507593154907
vt 0.09249433875083923 0.7450142502784729
vt 0.049775876104831696 0.7366623878479004
vt 0.14470399916172028 0.7060528993606567
vt 0.09205459803342819 0.7447055578231812
vt 0.14448435604572296 0.705903172492981
vt 0.04985266551375389 0.7362036108970642
vt 0.04999779537320137 0.7359040975570679
vt 0.1629360467195511 0.712236762046814
vt 0.1432606428861618 0.7056390643119812
vt 0.14643342792987823 0.7067133784294128
vt 0.2872259318828583 0.6828725934028625
vt 0.1453203558921814 0.706473171710968
vt 0.2331666648387909 0.680483341217041
vt 0.23238961398601532 0.6804423332214355
vt 0.012706197798252106 0.7135661244392395
vt 0.05288785696029663 0.7354335784912109
vt 0.05288785696029663 0.7354335784912109
vt 0.05209694802761078 0.735390841960907
vt 0.012706197798252106 0.7135661244392395
vt 0.050483714789152145 0.7356046438217163
vt 0.05209694802761078 0.735390841960907
vt 0.05129707232117653 0.7354335784912109
vt 0.12545275688171387 0.7014801502227783
vt 0.1432606428861618 0.7056390643119812
vt 0.05366554111242294 0.7356046438217163
vt 0.12545275688171387 0.7014801502227783
vt 0.2316170185804367 0.6802785396575928
vt 0.2985803186893463 0.682405948638916
vt 0.19880037009716034 0.6695287823677063
vt 0.1965971738100052 0.6690623164176941
vt 0.10485228151082993 0.6907037496566772
vt 0.14448435604572296 0.705903172492981
vt 0.19536611437797546 0.6682463884353638
vt 0.14470399916172028 0.7060528993606567
vt 0.19536611437797546 0.6682463884353638
vt 0.29780152440071106 0.6823648810386658
vt 0.29702410101890564 0.6822008490562439
vt 0.29658183455467224 0.6819137930870056
vt 0.2960529923439026 0.6814125776290894
vt 0.2339465618133545 0.6804423332214355
vt 0.2872259318828583 0.6828725934028625
vt 0.2339465618133545 0.6804423332214355
vt 0.2347305715084076 0.6802785396575928
vt 0.2347305715084076 0.6802785396575928
vt 0.23518510162830353 0.6799918413162231
vt 0.0841108188033104 0.6828725337982178
vt 0.2632647454738617 0.6737461686134338
vt 0.2657148241996765 0.6738749146461487
vt 0.26817062497138977 0.6737461686134338
vt 0.27063387632369995 0.6732313632965088
vt 0.2720527946949005 0.672330915927887
vt 0.2720527946949005 0.672330915927887
vt 0.2724204361438751 0.6714310646057129
vt 0.2965700924396515 0.6612241268157959
vt 0.2724204361438751 0.6714310646057129
vt 0.27208784222602844 0.6705318689346313
vt 0.23118245601654053 0.6799918413162231
vt 0.23096473515033722 0.6795281171798706
vt 0.2010209560394287 0.6696454286575317
vt 0.01731681451201439 0.6753138899803162
vt 0.20325274765491486 0.6695287823677063
vt 0.20550045371055603 0.6690623164176941
vt 0.20680944621562958 0.6682463884353638
vt 0.23170588910579681 0.6593334674835205
vt 0.15382245182991028 0.6529067754745483
vt 0.2071642130613327 0.6674309968948364
vt 0.20688356459140778 0.6666162014007568
vt 0.20565034449100494 0.6658018827438354
vt 0.20344917476177216 0.6653367877006531
vt 0.19508914649486542 0.6674309968948364
vt 0.22072485089302063 0.6529067754745483
vt 0.2012322098016739 0.6652205586433411
vt 0.19900423288345337 0.6653367877006531
vt 0.1954476684331894 0.6666162014007568
vt 0.19675864279270172 0.6658018827438354
vt 0.2987053096294403 0.6600258350372314
vt 0.29793283343315125 0.6600661277770996
vt 0.2354068011045456 0.658338189125061
vt 0.23174895346164703 0.6589018106460571
vt 0.23186926543712616 0.6586199402809143
vt 0.287627249956131 0.6529067754745483
vt 0.23186926543712616 0.6586199402809143
vt 0.22072485089302063 0.6529067754745483
vt 0.23232023417949677 0.658338189125061
vt 0.2354068011045456 0.658338189125061
vt 0.2346406877040863 0.6581771969795227
vt 0.23232023417949677 0.658338189125061
vt 0.23309750854969025 0.6581771969795227
vt 0.2338705062866211 0.6581369638442993
vt 0.2346406877040863 0.6581771969795227
vt 0.08761195093393326 0.6455259323120117
vt 0.02179158851504326 0.6381887197494507
vt 0.20503105223178864 0.6308944821357727
vt 0.2882117033004761 0.6092668771743774
vt 0.255344957113266 0.6092668771743774
vt 0.20503105223178864 0.6308944821357727
vt 0.15382245182991028 0.6529067754745483
vt 0.1731780469417572 0.6092668771743774
vt 0.09101113677024841 0.6092668771743774
vt 0.09101113677024841 0.6092668771743774
vt 0.1731780469417572 0.6092668771743774
vt 0.30478739738464355 0.588013768196106
vt 0.026136435568332672 0.6021413803100586
vt 0.14187674224376678 0.588013768196106
vt 0.255344957113266 0.6092668771743774
vt 0.1918688863515854 0.567125678062439
vt 0.30478739738464355 0.588013768196106
vt 0.2726248502731323 0.567125678062439
vt 0.14187674224376678 0.588013768196106
vt 0.1918688863515854 0.567125678062439
vt 0.11111291497945786 0.567125678062439
vt 0.030356943607330322 0.567125678062439
vt 0.030356943607330322 0.567125678062439
vt 0.11111291497945786 0.567125678062439
vn 0 -0 -1
vn 0 -0 -1
vn 0 -0 -1
vn 0 -0 -1
vn 0 -0 -1
vn 0 -0 -1
vn 0 -0 -1
vn 0 -0 -1
vn 0 -0 -1
vn 0 -0 -1
vn 0 -0 -1
vn 0 -0 -1
vn 0 -0 -1
vn 0 -0 -1
vn 0 -0 -1
vn 0 -0 -1
vn 0 -0 -1
vn 0 -0 -0.9999999403953552
vn 0 -0 -0.9999999403953552
vn 0 -0 -0.9999999403953552
vn 0 -0 -1
vn 0 -0 -1
vn 0 -0 -1
vn 0 -0 -1
vn 0 -0 -1
vn 0 -0 -1
vn 0 -0 -0.9999999403953552
vn 0 -0 -0.9999999403953552
vn 0 -0 -0.9999999403953552
vn 0 -0 -0.9999999403953552
vn 0 -0 -0.9999999403953552
vn 0 -0 -1
vn 0 -0 -1
vn 0 -0 -1
vn 0 -0 -1
vn 0 -0 -1
vn 0 -0 -0.9999999403953552
vn 0 -0 -0.9999999403953552
vn 0 -0 -0.9999999403953552
vn 0 -0 -1
vn 0 -0 -1
vn 0 -0 -1
vn 0 -0 -1
vn 0 -0 -1
vn 0 -0 -1
vn 0 -0 -1
vn 0 -0 -1
vn 0 -0 -1
vn 0 -0 -1
vn 0 -0 -1
vn 0 -0 -1
vn 0 -0 -1
vn 0 -0 -1
vn 0 -0 -1
vn 0 -0 -1
vn 0 -0 -1
vn 0 -0 -1
vn 0 -0 -1
vn 0 -0 -1
vn 0 -0 -1
vn 0 -0 -1
vn 0 -0 -1
vn 0 -0 -1
vn 0 -0 -1
vn 0 -0 -1
vn 0 -0 -1
vn 0 -0 -1
vn 0 -0 -1
vn 0 -0 -1
vn 0 -0 -1
vn 0 -0 -1
vn 0 -0 -1
vn 0 -0 -1
vn 0 -0 -0.9999999403953552
vn 0 -0 -0.9999999403953552
vn 0 -0 -0.9999999403953552
vn 0 -0 -1
vn 0 -0 -1
vn 0 -0 -1
vn 0 -0 -0.9999999403953552
vn 0 -0 -0.9999999403953552
vn 0 -0 -0.9999999403953552
vn 0 -0 -1
vn 0 -0 -1
vn 0 -0 -1
vn 0 -0 -1
vn 0 -0 -1
vn 0 -0 -1
vn 0 -0 -0.9999999403953552
vn 0 -0 -0.9999999403953552
vn 0 -0 -0.9999999403953552
vn 0 -0 -1
vn 0 -0 -1
vn 0 -0 -1
vn 0 -0 -1
vn 0 -0 -1
vn 0 -0 -1
vn 0 -0 -0.9999999403953552
vn 0 -0 -0.9999999403953552
vn 0 -0 -0.9999999403953552
vn 0 -0 -1
vn 0 -0 -1
vn 0 -0 -1
vn 0 -0 -1
vn 0 -0 -1
vn 0 -0 -1
vn 0 -0 -1
vn 0 -0 -1
vn 0 -0 -0.9999999403953552
vn 0 -0 -0.9999999403953552
vn 0 -0 -1
vn 0 -0 -1
vn 0 -0 -1
vn 0 -0 -1
vn 0 -0 -1
vn 0 -0 -1
vn 0 -0 -1
vn 0 -0 -1
vn 0 -0 -1
vn 0 -0 -1
vn 0 -0 -1
vn 0 -0 -1
vn 0 -0 -1
vn 0 -0 -1
vn 0 -0 -1
vn 0 -0 -1
vn 0 -0 -1
vn 0 -0 -1
vn 0 -0 -1
vn 0 -0 -1
vn 0 -0 -1
vn 0 -0 -1
vn 0 -0 -1
vn 0 -0 -1
vn 0 -0 -1
vn 0 -0 -1
vn 0 -0 -1
vn 0 -0 -1
vn 0 -0 -0.9999999403953552
vn 0 -0 -0.9999999403953552
vn 0 -0 -0.9999999403953552
vn 0 -0 -0.9999999403953552
vn 0 -0 -0.9999999403953552
vn 0 -0 -1
vn 0 -0 -1
vn 0 -0 -1
vn 0 -0 -1
vn 0 -0 -1
vn 0 -0 -1
vn 0 -0 -1
vn 0 -0 -1
vn 0 -0 -1
vn 0 -0 -0.9999999403953552
vn 0 -0 -0.9999999403953552
vn 0 -0 -0.9999999403953552
vn 0 -0 -1
vn 0 -0 -0.9999999403953552
vn 0 -0 -1
vn 0 -0 -1
vn 0 -0 -1
vn 0 -0 -0.9999999403953552
vn 0 -0 -0.9999999403953552
vn 0 -0 -0.9999999403953552
vn 0 -0 -0.9999999403953552
vn 0 -0 -0.9999999403953552
vn 0 -0 -1
vn 0 -0 -1
vn 0 -0 -1
vn 0 -0 -1
vn 0 -0 -0.9999999403953552
vn 0 -0 -0.9999999403953552
f 3/3/3 2/2/2 1/1/1
f 5/5/5 3/3/3 4/4/4
f 8/8/8 7/7/7 6/6/6
f 3/3/3 1/1/1 4/4/4
f 2/2/2 10/10/10 9/9/9
f 10/10/10 12/12/12 11/11/11
f 2/2/2 9/9/9 1/1/1
f 13/13/13 9/9/9 10/10/10
f 14/14/14 13/13/13 10/10/10
f 10/10/10 11/11/11 14/14/14
f 17/17/17 16/16/16 15/15/15
f 20/20/20 19/19/19 18/18/18
f 6/6/6 7/7/7 21/21/21
f 22/22/22 5/5/5 4/4/4
f 24/24/24 23/23/23 15/15/15
f 25/25/25 4/4/4 1/1/1
f 11/11/11 12/12/12 26/26/26
f 25/25/25 1/1/1 9/9/9
f 25/25/25 9/9/9 13/13/13
f 29/29/29 28/28/28 27/27/27
f 17/17/17 15/15/15 23/23/23
f 31/31/31 27/27/27 30/30/30
f 32/32/32 23/23/23 24/24/24
f 22/22/22 4/4/4 25/25/25
f 33/33/33 6/6/6 21/21/21
f 25/25/25 13/13/13 34/34/34
f 35/35/35 6/6/6 33/33/33
f 6/6/6 35/35/35 26/26/26
f 34/34/34 14/14/14 36/36/36
f 39/39/39 38/38/38 37/37/37
f 21/21/21 7/7/7 40/40/40
f 43/43/43 42/42/42 41/41/41
f 17/17/17 23/23/23 44/44/44
f 42/42/42 45/45/45 41/41/41
f 36/36/36 11/11/11 46/46/46
f 47/47/47 44/44/44 23/23/23
f 48/48/48 44/44/44 47/47/47
f 46/46/46 11/11/11 26/26/26
f 41/41/41 45/45/45 49/49/49
f 45/45/45 50/50/50 49/49/49
f 50/50/50 51/51/51 49/49/49
f 54/54/54 53/53/53 52/52/52
f 49/49/49 51/51/51 55/55/55
f 56/56/56 55/55/55 53/53/53
f 58/58/58 36/36/36 57/57/57
f 59/59/59 44/44/44 48/48/48
f 56/56/56 49/49/49 55/55/55
f 54/54/54 56/56/56 53/53/53
f 61/61/61 58/58/58 60/60/60
f 52/52/52 61/61/61 62/62/62
f 44/44/44 59/59/59 63/63/63
f 44/44/44 63/63/63 64/64/64
f 57/57/57 36/36/36 46/46/46
f 65/65/65 58/58/58 57/57/57
f 54/54/54 52/52/52 66/66/66
f 67/67/67 58/58/58 65/65/65
f 33/33/33 21/21/21 68/68/68
f 69/69/69 58/58/58 67/67/67
f 60/60/60 58/58/58 69/69/69
f 62/62/62 61/61/61 60/60/60
f 52/52/52 62/62/62 66/66/66
f 35/35/35 33/33/33 70/70/70
f 26/26/26 35/35/35 71/71/71
f 21/21/21 40/40/40 68/68/68
f 72/72/72 44/44/44 64/64/64
f 72/72/72 73/73/73 54/54/54
f 76/76/76 75/75/75 74/74/74
f 72/72/72 64/64/64 77/77/77
f 79/79/79 78/78/78 72/72/72
f 77/77/77 79/79/79 72/72/72
f 46/46/46 26/26/26 71/71/71
f 82/82/82 81/81/81 80/80/80
f 72/72/72 54/54/54 83/83/83
f 84/84/84 57/57/57 46/46/46
f 57/57/57 84/84/84 65/65/65
f 67/67/67 65/65/65 84/84/84
f 33/33/33 68/68/68 70/70/70
f 40/40/40 85/85/85 68/68/68
f 70/70/70 71/71/71 35/35/35
f 46/46/46 71/71/71 84/84/84
f 69/69/69 67/67/67 86/86/86
f 60/60/60 69/69/69 87/87/87
f 72/72/72 83/83/83 88/88/88
f 91/91/91 90/90/90 89/89/89
f 66/66/66 62/62/62 92/92/92
f 80/80/80 81/81/81 90/90/90
f 85/85/85 93/93/93 68/68/68
f 93/93/93 94/94/94 68/68/68
f 94/94/94 95/95/95 68/68/68
f 95/95/95 96/96/96 68/68/68
f 67/67/67 84/84/84 86/86/86
f 70/70/70 68/68/68 97/97/97
f 100/100/100 99/99/99 98/98/98
f 102/102/102 101/101/101 68/68/68
f 72/72/72 88/88/88 103/103/103
f 88/88/88 83/83/83 92/92/92
f 104/104/104 102/102/102 68/68/68
f 69/69/69 86/86/86 87/87/87
f 106/106/106 105/105/105 68/68/68
f 105/105/105 104/104/104 68/68/68
f 68/68/68 107/107/107 106/106/106
f 87/87/87 92/92/92 60/60/60
f 68/68/68 108/108/108 107/107/107
f 98/98/98 110/110/110 109/109/109
f 96/96/96 111/111/111 68/68/68
f 68/68/68 113/113/113 112/112/112
f 86/86/86 84/84/84 114/114/114
f 116/116/116 114/114/114 115/115/115
f 113/113/113 68/68/68 111/111/111
f 117/117/117 72/72/72 103/103/103
f 116/116/116 86/86/86 114/114/114
f 118/118/118 116/116/116 115/115/115
f 119/119/119 118/118/118 115/115/115
f 120/120/120 119/119/119 115/115/115
f 115/115/115 121/121/121 120/120/120
f 88/88/88 122/122/122 103/103/103
f 88/88/88 92/92/92 122/122/122
f 121/121/121 123/123/123 120/120/120
f 121/121/121 124/124/124 123/123/123
f 121/121/121 125/125/125 124/124/124
f 126/126/126 125/125/125 121/121/121
f 92/92/92 127/127/127 122/122/122
f 129/129/129 126/126/126 128/128/128
f 130/130/130 129/129/129 128/128/128
f 122/122/122 127/127/127 131/131/131
f 122/122/122 131/131/131 132/132/132
f 128/128/128 134/134/134 133/133/133
f 122/122/122 132/132/132 130/130/130
f 128/128/128 126/126/126 121/121/121
f 128/128/128 135/135/135 134/134/134
f 136/136/136 128/128/128 121/121/121
f 137/137/137 128/128/128 136/136/136
f 133/133/133 138/138/138 128/128/128
f 141/141/141 140/140/140 139/139/139
f 140/140/140 143/143/143 142/142/142
f 145/145/145 128/128/128 144/144/144
f 147/147/147 128/128/128 146/146/146
f 146/146/146 128/128/128 145/145/145
f 128/128/128 122/122/122 130/130/130
f 148/148/148 103/103/103 122/122/122
f 117/117/117 103/103/103 149/149/149
f 150/150/150 122/122/122 128/128/128
f 149/149/149 103/103/103 148/148/148
f 151/151/151 128/128/128 138/138/138
f 150/150/150 128/128/128 152/152/152
f 155/155/155 154/154/154 153/153/153
f 148/148/148 122/122/122 156/156/156
f 152/152/152 128/128/128 151/151/151
f 149/149/149 148/148/148 156/156/156
f 155/155/155 157/157/157 154/154/154
f 152/152/152 158/158/158 150/150/150
f 159/159/159 152/152/152 151/151/151
f 160/160/160 149/149/149 156/156/156
f 155/155/155 161/161/161 157/157/157
f 163/163/163 155/155/155 162/162/162
f 165/165/165 162/162/162 164/164/164
f 167/167/167 166/166/166 158/158/158
f 168/168/168 156/156/156 166/166/166
f 165/165/165 163/163/163 162/162/162
f 160/160/160 156/156/156 169/169/169
f 171/171/171 170/170/170 157/157/157
