# VPXTOOL table OBJ file
# VPXTOOL OBJ file
# numVerts: 89 numFaces: 423
o LM_GI_lst_RSling3
v 12.042125701904297 -220.67677307128906 -26.67949867248535
v 14.586821556091309 -218.47689819335938 -26.67949676513672
v 13.569926261901855 -222.9554901123047 -25.944366455078125
v 16.66887092590332 -220.263427734375 -25.944364547729492
v 15.097726821899414 -225.2343292236328 -26.679492950439453
v 18.750919342041016 -222.05007934570313 -26.679492950439453
v 16.216163635253906 -226.90248107910156 -28.687902450561523
v 20.275131225585938 -223.35801696777344 -28.687902450561523
v 16.625526428222656 -227.5130615234375 -31.431446075439453
v 13.062665939331055 -217.16896057128906 -28.687910079956055
v 12.504773139953613 -216.69024658203125 -31.43145179748535
v 14.767871856689453 -214.3800506591797 -28.687911987304688
v 16.513607025146484 -215.37313842773438 -26.67949676513672
v 18.898344039916992 -216.7296600341797 -25.944366455078125
v 21.28302764892578 -218.08619689941406 -26.679492950439453
v 23.02876091003418 -219.0791778564453 -28.687902450561523
v 20.833024978637695 -223.83673095703125 -31.431446075439453
v 23.66776466369629 -219.44271850585938 -31.431446075439453
v 14.128923416137695 -214.01661682128906 -31.43145179748535
v 19.496267318725586 -205.09707641601563 -28.687910079956055
v 21.278776168823242 -206.02247619628906 -26.67949676513672
v 23.71375846862793 -207.2865753173828 -25.944366455078125
v 26.14874267578125 -208.55055236816406 -26.679492950439453
v 27.931304931640625 -209.4759521484375 -28.687902450561523
v 28.583782196044922 -209.8146514892578 -31.431446075439453
v 18.843791961669922 -204.7583770751953 -31.43145179748535
v 29.029367446899414 -185.48092651367188 -31.43145179748535
v 29.6790828704834 -185.82481384277344 -28.687910079956055
v 31.45413589477539 -186.76446533203125 -26.67949676513672
v 33.87890625 -188.04798889160156 -25.944366455078125
v 36.30373001098633 -189.33151245117188 -26.679492950439453
v 38.07878112792969 -190.2711639404297 -28.687902450561523
v 41.9459342956543 -161.12435913085938 -31.43145179748535
v 42.5958137512207 -161.468017578125 -28.687910079956055
v 44.37136459350586 -162.40667724609375 -26.67949676513672
v 46.79679489135742 -163.68898010253906 -25.944366455078125
v 49.22222900390625 -164.97129821777344 -26.679492950439453
v 50.997779846191406 -165.9099578857422 -28.687902450561523
v 38.72849655151367 -190.61505126953125 -31.431446075439453
v 55.005950927734375 -136.34561157226563 -31.43145179748535
v 55.65765380859375 -136.68585205078125 -28.687910079956055
v 57.43817138671875 -137.61500549316406 -26.67949676513672
v 59.87039566040039 -138.8843994140625 -25.944364547729492
v 62.302616119384766 -140.15379333496094 -26.679492950439453
v 64.08308410644531 -141.08306884765625 -28.687902450561523
v 51.64765930175781 -166.25350952148438 -31.431446075439453
v 65.59078216552734 -115.86370086669922 -31.43145179748535
v 66.24884033203125 -116.19134521484375 -28.687910079956055
v 68.0467529296875 -117.08649444580078 -26.67949676513672
v 70.50271606445313 -118.30928802490234 -25.944364547729492
v 72.95867919921875 -119.53218841552734 -26.679492950439453
v 74.75653839111328 -120.42733001708984 -28.687902450561523
v 64.7348403930664 -141.42318725585938 -31.431446075439453
v 70.98661804199219 -104.64002227783203 -31.43145179748535
v 71.6712875366211 -104.90782165527344 -28.687911987304688
v 73.54169464111328 -105.6393051147461 -26.67949676513672
v 76.09677124023438 -106.63858795166016 -25.944366455078125
v 78.65190124511719 -107.63787078857422 -26.679492950439453
v 80.5223159790039 -108.36946868896484 -28.687902450561523
v 75.41464233398438 -120.7549819946289 -31.431446075439453
v 75.35346984863281 -92.90461730957031 -28.687910079956055
v 77.28229522705078 -93.46438598632813 -26.67949676513672
v 79.91709899902344 -94.22889709472656 -25.944366455078125
v 82.55196380615234 -94.99351501464844 -26.679492950439453
v 84.48078918457031 -95.55328369140625 -28.687902450561523
v 81.20697784423828 -108.63715362548828 -31.431446075439453
v 85.18682861328125 -95.75813293457031 -31.431446075439453
v 74.64743041992188 -92.69976806640625 -31.43145179748535
v 81.34706115722656 -70.9237289428711 -28.687910079956055
v 83.28748321533203 -71.44186401367188 -26.67949676513672
v 85.93819427490234 -72.14950561523438 -25.944366455078125
v 88.58889770507813 -72.85713958740234 -26.679492950439453
v 90.5293197631836 -73.37527465820313 -28.687902450561523
v 91.23960876464844 -73.56488800048828 -31.431446075439453
v 80.63677215576172 -70.73412322998047 -31.43145179748535
v 88.34330749511719 -44.146087646484375 -28.687910079956055
v 90.2880859375 -44.64765930175781 -26.67949676513672
v 92.94464874267578 -45.33277130126953 -25.944364547729492
v 95.60126495361328 -46.01799011230469 -26.679492950439453
v 97.54605102539063 -46.519561767578125 -28.687902450561523
v 98.25788116455078 -46.70309829711914 -31.431446075439453
v 87.6314697265625 -43.96244430541992 -31.43145179748535
v 95.1126708984375 -17.553085327148438 -28.687911987304688
v 97.06049346923828 -18.042621612548828 -26.67949676513672
v 99.72130584716797 -18.711275100708008 -25.944366455078125
v 102.38211822509766 -19.37993049621582 -26.679492950439453
v 104.32999420166016 -19.86946678161621 -28.687902450561523
v 105.04293060302734 -20.048583984375 -31.431446075439453
v 94.3996810913086 -17.373966217041016 -31.43145179748535
vt 0.9294462203979492 0.09696853160858154
vt 0.9279098510742188 0.09757065773010254
vt 0.9284072518348694 0.09637820720672607
vt 0.926537036895752 0.09711450338363647
vt 0.9274696111679077 0.09572196006774902
vt 0.9252645969390869 0.09659278392791748
vt 0.9268831014633179 0.09517467021942139
vt 0.924431562423706 0.09614437818527222
vt 0.9268048405647278 0.09488248825073242
vt 0.9290167689323425 0.09783929586410522
vt 0.9295612573623657 0.09784829616546631
vt 0.9280102849006653 0.09860378503799438
vt 0.9267722964286804 0.09842056035995483
vt 0.9252197742462158 0.09808164834976196
vt 0.9237669110298157 0.09767758846282959
vt 0.9228008389472961 0.0973159670829773
vt 0.9242611527442932 0.09588921070098877
vt 0.9225804209709167 0.09709340333938599
vt 0.9286020994186401 0.09858191013336182
vt 0.9252443909645081 0.10115140676498413
vt 0.9239859580993652 0.10098439455032349
vt 0.9224036931991577 0.1006695032119751
vt 0.9209194183349609 0.10029071569442749
vt 0.9199289083480835 0.09994906187057495
vt 0.9196974635124207 0.09973573684692383
vt 0.925841748714447 0.10112547874450684
vt 0.9198480248451233 0.10643696784973145
vt 0.9192575812339783 0.10645580291748047
vt 0.9180062413215637 0.10628002882003784
vt 0.9164292812347412 0.10595703125
vt 0.9149472713470459 0.10557293891906738
vt 0.9139552116394043 0.10523021221160889
vt 0.9122120141983032 0.11317771673202515
vt 0.9116281867027283 0.1131894588470459
vt 0.910379946231842 0.11300772428512573
vt 0.9088018536567688 0.11268150806427002
vt 0.907314658164978 0.11229783296585083
vt 0.9063147902488708 0.11195892095565796
vt 0.9137189388275146 0.10502034425735474
vt 0.9044549465179443 0.12006968259811401
vt 0.9038769602775574 0.12007498741149902
vt 0.9026293158531189 0.11988949775695801
vt 0.9010463953018188 0.11956322193145752
vt 0.899550199508667 0.11918318271636963
vt 0.898539662361145 0.1188507080078125
vt 0.9060701131820679 0.11175543069839478
vt 0.8981454372406006 0.1257929801940918
vt 0.8975691795349121 0.12579554319381714
vt 0.8963140249252319 0.12561434507369995
vt 0.894716203212738 0.12529802322387695
vt 0.8932018280029297 0.12493103742599487
vt 0.892174482345581 0.12461119890213013
vt 0.8982855081558228 0.11865460872650146
vt 0.8949306607246399 0.12893933057785034
vt 0.8943415880203247 0.12895536422729492
vt 0.893044650554657 0.12881702184677124
vt 0.8913874626159668 0.1285616159439087
vt 0.8898119330406189 0.12825733423233032
vt 0.8887379169464111 0.1279851794242859
vt 0.8919094800949097 0.12442398071289063
vt 0.8922103047370911 0.13232463598251343
vt 0.8908795118331909 0.13223159313201904
vt 0.8891744613647461 0.13204044103622437
vt 0.8875498175621033 0.13180220127105713
vt 0.8864386677742004 0.13158047199249268
vt 0.8884533047676086 0.12781798839569092
vt 0.8861388564109802 0.1314343810081482
vt 0.8928103446960449 0.13229459524154663
vt 0.8887656331062317 0.13851624727249146
vt 0.8874279856681824 0.1384296417236328
vt 0.885711133480072 0.13825184106826782
vt 0.8840729594230652 0.13803040981292725
vt 0.8829501271247864 0.13782435655593872
vt 0.8826435208320618 0.13768869638442993
vt 0.8893657922744751 0.13848847150802612
vt 0.8847408890724182 0.14609694480895996
vt 0.8834003806114197 0.1460084319114685
vt 0.8816768527030945 0.14583390951156616
vt 0.8800298571586609 0.14561980962753296
vt 0.878898561000824 0.1454232931137085
vt 0.878585934638977 0.1452968716621399
vt 0.8853393197059631 0.14607548713684082
vt 0.8808349967002869 0.15366673469543457
vt 0.8794922232627869 0.15357518196105957
vt 0.8777629733085632 0.1534022092819214
vt 0.8761082291603088 0.15319383144378662
vt 0.8749691247940063 0.1530057191848755
vt 0.8746509552001953 0.15288805961608887
vt 0.881431519985199 0.15365207195281982
vn -0.2684310972690582 0.31050553917884827 0.9118832349777222
vn -0.3652663230895996 0.31225529313087463 0.8769704103469849
vn 0.013594438321888447 -0.015396789647638798 0.9997890591621399
vn 0.017924461513757706 -0.01566615141928196 0.9997166395187378
vn 0.34051722288131714 -0.39086154103279114 0.8551463484764099
vn 0.39128392934799194 -0.337630957365036 0.8560971021652222
vn 0.5739623308181763 -0.6575992703437805 0.4879862070083618
vn 0.6594520807266235 -0.5697345733642578 0.49043405055999756
vn 0.6357812285423279 -0.7279357314109802 0.2566940188407898
vn -0.6790542602539063 0.4757184088230133 0.5590861439704895
vn -0.8251494765281677 0.503031313419342 0.2570754587650299
vn -0.7547705769538879 0.4217085838317871 0.5024771094322205
vn -0.43173855543136597 0.24273771047592163 0.8687233924865723
vn 0.006165154278278351 -0.003828382585197687 0.9999736547470093
vn 0.4392315447330475 -0.2513711154460907 0.8624895215034485
vn 0.7528119087219238 -0.43250882625579834 0.49619585275650024
vn 0.7308012247085571 -0.6316198706626892 0.2588164508342743
vn 0.8373084664344788 -0.48174670338630676 0.25852394104003906
vn -0.8437402248382568 0.4702301621437073 0.25881654024124146
vn -0.7690039873123169 0.3989618718624115 0.4994620680809021
vn -0.4446362853050232 0.23071061074733734 0.8654889464378357
vn -0.001073664054274559 0.0005404572584666312 0.9999992847442627
vn 0.44296783208847046 -0.23001188039779663 0.8665298223495483
vn 0.7682995796203613 -0.3990320861339569 0.5004889369010925
vn 0.8571920990943909 -0.4452439248561859 0.2588041126728058
vn -0.8574128746986389 0.4448062777519226 0.2588253915309906
vn -0.8537006974220276 0.45189687609672546 0.25881338119506836
vn -0.7654346227645874 0.4051748216152191 0.49994319677352905
vn -0.44199061393737793 0.23396365344524384 0.8659707307815552
vn -0.00011352962610544637 0.00005950011109234765 1
vn 0.4418206512928009 -0.23387634754180908 0.8660810589790344
vn 0.7653772830963135 -0.4051494002342224 0.5000516176223755
vn -0.8539272546768188 0.4514614939689636 0.25882551074028015
vn -0.7655643224716187 0.40474510192871094 0.500092625617981
vn -0.4418889284133911 0.2336212545633316 0.8661150336265564
vn 0.00018340673705097288 -0.00009718392539070919 1
vn 0.4421652853488922 -0.23376664519309998 0.8659347295761108
vn 0.7656616568565369 -0.40479394793510437 0.4999041259288788
vn 0.8536988496780396 -0.4519015848636627 0.25881126523017883
vn -0.856309711933136 0.4469224512577057 0.25883203744888306
vn -0.7676010131835938 0.4006224274635315 0.5002902746200562
vn -0.442821741104126 0.23111335933208466 0.8663114309310913
vn 0.0005909217288717628 -0.00030755769694224 0.9999997615814209
vn 0.44371145963668823 -0.23156987130641937 0.8657340407371521
vn 0.767905592918396 -0.40076112747192383 0.49971142411231995
vn 0.8539320230484009 -0.4514610469341278 0.25881069898605347
vn -0.8644207715988159 0.43103569746017456 0.25881439447402954
vn -0.7745068073272705 0.38616064190864563 0.5010181665420532
vn -0.4458976984024048 0.22224929928779602 0.8670527338981628
vn 0.0022039455361664295 -0.001060571288689971 0.9999970197677612
vn 0.44934189319610596 -0.2236035019159317 0.864923894405365
vn 0.7759907841682434 -0.3859712481498718 0.4988633692264557
vn 0.8563205599784851 -0.4469025731086731 0.2588302791118622
vn -0.8995457291603088 0.3518174886703491 0.25892457365989685
vn -0.8035462498664856 0.3142714500427246 0.5055163502693176
vn -0.456922709941864 0.17870290577411652 0.8713706731796265
vn 0.011330106295645237 -0.004430514294654131 0.999925971031189
vn 0.47395139932632446 -0.1853577196598053 0.8608208894729614
vn 0.8092664480209351 -0.3164979815483093 0.49489066004753113
vn 0.864892840385437 -0.4301043450832367 0.2587869167327881
vn -0.8312280178070068 0.2407243400812149 0.5011105537414551
vn -0.4783928096294403 0.13860894739627838 0.8671378493309021
vn 0.0025296825915575027 -0.0007679854170419276 0.999996542930603
vn 0.4821256399154663 -0.1400246024131775 0.8648397922515869
vn 0.83228999376297 -0.24189114570617676 0.49878063797950745
vn 0.8995770215988159 -0.3518141210079193 0.25882038474082947
vn 0.9275333881378174 -0.26965126395225525 0.2587856948375702
vn -0.9278115630149841 0.2686520516872406 0.2588278651237488
vn -0.8365080952644348 0.22331702709197998 0.5003834962844849
vn -0.48244625329971313 0.12879712879657745 0.8664045929908752
vn 0.0008479864918626845 -0.00022746714239474386 0.9999997019767761
vn 0.48371657729148865 -0.12914502620697021 0.8656442165374756
vn 0.8369273543357849 -0.22345112264156342 0.49962207674980164
vn 0.9332334399223328 -0.24916554987430573 0.2588280141353607
vn -0.9332402944564819 0.2491399198770523 0.25882798433303833
vn -0.8384571075439453 0.21624647080898285 0.5002270936965942
vn -0.48378169536590576 0.12477227300405502 0.8662489056587219
vn 0.0004975359770469368 -0.00012823543511331081 0.9999998211860657
vn 0.48453080654144287 -0.12496612221002579 0.8658021092414856
vn 0.8387100696563721 -0.2163136899471283 0.49977365136146545
vn 0.9353199005126953 -0.24123060703277588 0.25881320238113403
vn -0.9353181719779968 0.2412278950214386 0.2588222324848175
vn -0.8391401171684265 0.21360695362091064 0.5002159476280212
vn -0.4841878116130829 0.12325192242860794 0.866239607334137
vn 0.00048596184933558106 -0.00012411757779773325 0.9999998211860657
vn 0.48490869998931885 -0.1234361007809639 0.8658100962638855
vn 0.8393836617469788 -0.21367023885250092 0.4997801184654236
vn 0.9360765814781189 -0.23828449845314026 0.2588069438934326
vn -0.9360727071762085 0.23828160762786865 0.25882381200790405
f 3/3/3 2/2/2 1/1/1
f 5/5/5 4/4/4 3/3/3
f 7/7/7 6/6/6 5/5/5
f 9/9/9 8/8/8 7/7/7
f 12/12/12 11/11/11 10/10/10
f 13/13/13 10/10/10 2/2/2
f 14/14/14 2/2/2 4/4/4
f 15/15/15 4/4/4 6/6/6
f 16/16/16 6/6/6 8/8/8
f 18/18/18 8/8/8 17/17/17
f 20/20/20 19/19/19 12/12/12
f 21/21/21 12/12/12 13/13/13
f 22/22/22 13/13/13 14/14/14
f 23/23/23 14/14/14 15/15/15
f 24/24/24 15/15/15 16/16/16
f 25/25/25 16/16/16 18/18/18
f 20/20/20 27/27/27 26/26/26
f 21/21/21 28/28/28 20/20/20
f 22/22/22 29/29/29 21/21/21
f 23/23/23 30/30/30 22/22/22
f 24/24/24 31/31/31 23/23/23
f 25/25/25 32/32/32 24/24/24
f 28/28/28 33/33/33 27/27/27
f 29/29/29 34/34/34 28/28/28
f 30/30/30 35/35/35 29/29/29
f 31/31/31 36/36/36 30/30/30
f 32/32/32 37/37/37 31/31/31
f 39/39/39 38/38/38 32/32/32
f 34/34/34 40/40/40 33/33/33
f 35/35/35 41/41/41 34/34/34
f 36/36/36 42/42/42 35/35/35
f 37/37/37 43/43/43 36/36/36
f 38/38/38 44/44/44 37/37/37
f 46/46/46 45/45/45 38/38/38
f 41/41/41 47/47/47 40/40/40
f 42/42/42 48/48/48 41/41/41
f 43/43/43 49/49/49 42/42/42
f 44/44/44 50/50/50 43/43/43
f 45/45/45 51/51/51 44/44/44
f 53/53/53 52/52/52 45/45/45
f 48/48/48 54/54/54 47/47/47
f 49/49/49 55/55/55 48/48/48
f 50/50/50 56/56/56 49/49/49
f 51/51/51 57/57/57 50/50/50
f 52/52/52 58/58/58 51/51/51
f 60/60/60 59/59/59 52/52/52
f 61/61/61 54/54/54 55/55/55
f 62/62/62 55/55/55 56/56/56
f 63/63/63 56/56/56 57/57/57
f 64/64/64 57/57/57 58/58/58
f 65/65/65 58/58/58 59/59/59
f 67/67/67 59/59/59 66/66/66
f 69/69/69 68/68/68 61/61/61
f 70/70/70 61/61/61 62/62/62
f 71/71/71 62/62/62 63/63/63
f 72/72/72 63/63/63 64/64/64
f 73/73/73 64/64/64 65/65/65
f 74/74/74 65/65/65 67/67/67
f 76/76/76 75/75/75 69/69/69
f 77/77/77 69/69/69 70/70/70
f 78/78/78 70/70/70 71/71/71
f 79/79/79 71/71/71 72/72/72
f 80/80/80 72/72/72 73/73/73
f 81/81/81 73/73/73 74/74/74
f 83/83/83 82/82/82 76/76/76
f 84/84/84 76/76/76 77/77/77
f 85/85/85 77/77/77 78/78/78
f 86/86/86 78/78/78 79/79/79
f 87/87/87 79/79/79 80/80/80
f 88/88/88 80/80/80 81/81/81
f 1/1/1 2/2/2 10/10/10
f 3/3/3 4/4/4 2/2/2
f 5/5/5 6/6/6 4/4/4
f 7/7/7 8/8/8 6/6/6
f 9/9/9 17/17/17 8/8/8
f 12/12/12 19/19/19 11/11/11
f 13/13/13 12/12/12 10/10/10
f 14/14/14 13/13/13 2/2/2
f 15/15/15 14/14/14 4/4/4
f 16/16/16 15/15/15 6/6/6
f 18/18/18 16/16/16 8/8/8
f 20/20/20 26/26/26 19/19/19
f 21/21/21 20/20/20 12/12/12
f 22/22/22 21/21/21 13/13/13
f 23/23/23 22/22/22 14/14/14
f 24/24/24 23/23/23 15/15/15
f 25/25/25 24/24/24 16/16/16
f 20/20/20 28/28/28 27/27/27
f 21/21/21 29/29/29 28/28/28
f 22/22/22 30/30/30 29/29/29
f 23/23/23 31/31/31 30/30/30
f 24/24/24 32/32/32 31/31/31
f 25/25/25 39/39/39 32/32/32
f 28/28/28 34/34/34 33/33/33
f 29/29/29 35/35/35 34/34/34
f 30/30/30 36/36/36 35/35/35
f 31/31/31 37/37/37 36/36/36
f 32/32/32 38/38/38 37/37/37
f 39/39/39 46/46/46 38/38/38
f 34/34/34 41/41/41 40/40/40
f 35/35/35 42/42/42 41/41/41
f 36/36/36 43/43/43 42/42/42
f 37/37/37 44/44/44 43/43/43
f 38/38/38 45/45/45 44/44/44
f 46/46/46 53/53/53 45/45/45
f 41/41/41 48/48/48 47/47/47
f 42/42/42 49/49/49 48/48/48
f 43/43/43 50/50/50 49/49/49
f 44/44/44 51/51/51 50/50/50
f 45/45/45 52/52/52 51/51/51
f 53/53/53 60/60/60 52/52/52
f 48/48/48 55/55/55 54/54/54
f 49/49/49 56/56/56 55/55/55
f 50/50/50 57/57/57 56/56/56
f 51/51/51 58/58/58 57/57/57
f 52/52/52 59/59/59 58/58/58
f 60/60/60 66/66/66 59/59/59
f 61/61/61 68/68/68 54/54/54
f 62/62/62 61/61/61 55/55/55
f 63/63/63 62/62/62 56/56/56
f 64/64/64 63/63/63 57/57/57
f 65/65/65 64/64/64 58/58/58
f 67/67/67 65/65/65 59/59/59
f 69/69/69 75/75/75 68/68/68
f 70/70/70 69/69/69 61/61/61
f 71/71/71 70/70/70 62/62/62
f 72/72/72 71/71/71 63/63/63
f 73/73/73 72/72/72 64/64/64
f 74/74/74 73/73/73 65/65/65
f 76/76/76 82/82/82 75/75/75
f 77/77/77 76/76/76 69/69/69
f 78/78/78 77/77/77 70/70/70
f 79/79/79 78/78/78 71/71/71
f 80/80/80 79/79/79 72/72/72
f 81/81/81 80/80/80 73/73/73
f 83/83/83 89/89/89 82/82/82
f 84/84/84 83/83/83 76/76/76
f 85/85/85 84/84/84 77/77/77
f 86/86/86 85/85/85 78/78/78
f 87/87/87 86/86/86 79/79/79
f 88/88/88 87/87/87 80/80/80
