# VPXTOOL table OBJ file
# VPXTOOL OBJ file
# numVerts: 72 numFaces: 72
o LM_GI_GI7_TriggerLane3
v 1189.0406494140625 82574.8828125 -24210.994140625
v 1188.814453125 -32444.9765625 -71482.1484375
v 2377.85498046875 -32444.9765625 -69427.125
v -2378.081298828125 -32444.9765625 -69427.125
v -1189.1536865234375 -32444.9765625 -71482.1484375
v -1188.927490234375 82574.8828125 -24210.994140625
v -1189.1536865234375 -32444.9765625 -71482.1484375
v 1188.814453125 -32444.9765625 -71482.1484375
v -1188.927490234375 82574.8828125 -24210.994140625
v 2377.968017578125 81210.7421875 -22697.2578125
v 1189.0406494140625 82574.8828125 -24210.994140625
v 2377.85498046875 -32444.9765625 -69427.125
v -2377.85498046875 81210.8515625 -22697.2578125
v -2378.081298828125 -32444.9765625 -69427.125
v -1188.927490234375 82574.8828125 -24210.994140625
v 1188.814453125 -32444.9765625 -71482.1484375
v 1189.0406494140625 82574.8828125 -24210.994140625
v -1188.927490234375 82574.8828125 -24210.994140625
v 2377.85498046875 -38585.58203125 -67532.7578125
v 2377.85498046875 -32444.9765625 -69427.125
v 1188.814453125 -39552.30859375 -69351.0078125
v -2378.1943359375 -38585.52734375 -67532.7578125
v -1189.1536865234375 -39552.30859375 -69351.0078125
v -2378.081298828125 -32444.9765625 -69427.125
v 2377.85498046875 -32444.9765625 -69427.125
v 1188.814453125 -32444.9765625 -71482.1484375
v 1188.814453125 -39552.30859375 -69351.0078125
v -1189.1536865234375 -39552.30859375 -69351.0078125
v -1189.1536865234375 -32444.9765625 -71482.1484375
v -2378.081298828125 -32444.9765625 -69427.125
v -1189.1536865234375 -32444.9765625 -71482.1484375
v -1189.1536865234375 -39552.30859375 -69351.0078125
v 1188.814453125 -32444.9765625 -71482.1484375
v -1189.1536865234375 -39552.30859375 -69351.0078125
v 1188.814453125 -39552.30859375 -69351.0078125
v 1188.814453125 -32444.9765625 -71482.1484375
v 1189.1536865234375 86148.109375 -18924.25
v 2377.968017578125 84168.75 -18356.5078125
v 1189.0406494140625 79209.1015625 54005.3046875
v -2377.85498046875 84168.75 -18356.5078125
v -1188.927490234375 86148.109375 -18924.25
v -1188.927490234375 79209.1015625 54005.3046875
v -1188.927490234375 86148.109375 -18924.25
v 1189.1536865234375 86148.109375 -18924.25
v 1189.0406494140625 79209.1015625 54005.3046875
v 2377.968017578125 81210.7421875 -22697.2578125
v 2377.968017578125 84168.75 -18356.5078125
v 1189.0406494140625 82574.8828125 -24210.994140625
v -2377.85498046875 81210.8515625 -22697.2578125
v -1188.927490234375 82574.8828125 -24210.994140625
v -2377.85498046875 84168.75 -18356.5078125
v -1188.927490234375 82574.8828125 -24210.994140625
v 1189.0406494140625 82574.8828125 -24210.994140625
v -1188.927490234375 86148.109375 -18924.25
v 2377.968017578125 84168.75 -18356.5078125
v 1189.1536865234375 86148.109375 -18924.25
v 1189.0406494140625 82574.8828125 -24210.994140625
v -1188.927490234375 82574.8828125 -24210.994140625
v -1188.927490234375 86148.109375 -18924.25
v -2377.85498046875 84168.75 -18356.5078125
v 2377.968017578125 84168.75 -18356.5078125
v 2377.968017578125 77194.6328125 54005.3046875
v 1189.0406494140625 79209.1015625 54005.3046875
v -2377.85498046875 77194.6328125 54005.3046875
v -2377.85498046875 84168.75 -18356.5078125
v -1188.927490234375 79209.1015625 54005.3046875
v 1189.0406494140625 82574.8828125 -24210.994140625
v 1189.1536865234375 86148.109375 -18924.25
v -1188.927490234375 86148.109375 -18924.25
v -1188.927490234375 79209.1015625 54005.3046875
v -1188.927490234375 86148.109375 -18924.25
v 1189.0406494140625 79209.1015625 54005.3046875
vt 0.0506272129714489 0.5229573249816895
vt 0.05075224116444588 0.505648672580719
vt 0.05112379416823387 0.5057730078697205
vt 0.04957491531968117 0.5057730078697205
vt 0.04997754096984863 0.505648672580719
vt 0.049854882061481476 0.5229573249816895
vt 0.04997754096984863 0.505648672580719
vt 0.05075224116444588 0.505648672580719
vt 0.049854882061481476 0.5229573249816895
vt 0.05099900811910629 0.5228711366653442
vt 0.0506272129714489 0.5229573249816895
vt 0.05112379416823387 0.5057730078697205
vt 0.049454864114522934 0.5228711366653442
vt 0.04957491531968117 0.5057730078697205
vt 0.049854882061481476 0.5229573249816895
vt 0.05075224116444588 0.505648672580719
vt 0.0506272129714489 0.5229573249816895
vt 0.049854882061481476 0.5229573249816895
vt 0.05109657347202301 0.5051140785217285
vt 0.05112379416823387 0.5057730078697205
vt 0.050721488893032074 0.5048821568489075
vt 0.049548737704753876 0.5051140785217285
vt 0.0499473474919796 0.5048821568489075
vt 0.04957491531968117 0.5057730078697205
vt 0.05112379416823387 0.5057730078697205
vt 0.05075224116444588 0.505648672580719
vt 0.050721488893032074 0.5048821568489075
vt 0.0499473474919796 0.5048821568489075
vt 0.04997754096984863 0.505648672580719
vt 0.04957491531968117 0.5057730078697205
vt 0.04997754096984863 0.505648672580719
vt 0.0499473474919796 0.5048821568489075
vt 0.05075224116444588 0.505648672580719
vt 0.0499473474919796 0.5048821568489075
vt 0.050721488893032074 0.5048821568489075
vt 0.05075224116444588 0.505648672580719
vt 0.05059441179037094 0.5237107872962952
vt 0.0509718656539917 0.5234928131103516
vt 0.050036121159791946 0.5269381999969482
vt 0.04942876845598221 0.5234928131103516
vt 0.04982268065214157 0.5237107872962952
vt 0.049275029450654984 0.5269381999969482
vt 0.04982268065214157 0.5237107872962952
vt 0.05059441179037094 0.5237107872962952
vt 0.050036121159791946 0.5269381999969482
vt 0.05099900811910629 0.5228711366653442
vt 0.0509718656539917 0.5234928131103516
vt 0.0506272129714489 0.5229573249816895
vt 0.049454864114522934 0.5228711366653442
vt 0.049854882061481476 0.5229573249816895
vt 0.04942876845598221 0.5234928131103516
vt 0.049854882061481476 0.5229573249816895
vt 0.0506272129714489 0.5229573249816895
vt 0.04982268065214157 0.5237107872962952
vt 0.0509718656539917 0.5234928131103516
vt 0.05059441179037094 0.5237107872962952
vt 0.0506272129714489 0.5229573249816895
vt 0.049854882061481476 0.5229573249816895
vt 0.04982268065214157 0.5237107872962952
vt 0.04942876845598221 0.5234928131103516
vt 0.0509718656539917 0.5234928131103516
vt 0.050412651151418686 0.5266866683959961
vt 0.050036121159791946 0.5269381999969482
vt 0.04889063164591789 0.5266866683959961
vt 0.04942876845598221 0.5234928131103516
vt 0.049275029450654984 0.5269381999969482
vt 0.0506272129714489 0.5229573249816895
vt 0.05059441179037094 0.5237107872962952
vt 0.04982268065214157 0.5237107872962952
vt 0.049275029450654984 0.5269381999969482
vt 0.04982268065214157 0.5237107872962952
vt 0.050036121159791946 0.5269381999969482
vn 0.5614818334579468 0.6870217323303223 -0.46123671531677246
vn 0.4566320776939392 0.04142732918262482 -0.8886905908584595
vn 0.9938678741455078 0.01653479039669037 -0.10933102667331696
vn -0.9940023422241211 0.017284497618675232 -0.10798454284667969
vn -0.45623984932899475 0.0421048104763031 -0.8888602256774902
vn -0.5612908005714417 0.6869603395462036 -0.46156054735183716
vn -0.4583020508289337 0.0418965183198452 -0.8878085613250732
vn 0.46200647950172424 0.04556390643119812 -0.8857053518295288
vn -0.1944437026977539 0.7775052189826965 -0.5980613231658936
vn 0.9968645572662354 0.04826505482196808 -0.06270143389701843
vn 0.46252015233039856 0.5569503307342529 -0.689841628074646
vn 0.9282590746879578 -0.20429107546806335 -0.3108057677745819
vn -0.9966782927513123 0.04735453426837921 -0.06625669449567795
vn -0.9288766384124756 -0.2042858600616455 -0.30895888805389404
vn -0.46239256858825684 0.5567635297775269 -0.6900779008865356
vn 0.15421859920024872 -0.1682959347963333 -0.9735980033874512
vn 0.4619957506656647 0.5612733364105225 -0.6866819858551025
vn -0.4644373655319214 0.5565649271011353 -0.6888639330863953
vn 0.9926537275314331 -0.09275830537080765 -0.07768130302429199
vn 0.9508434534072876 0.1969507783651352 -0.23897108435630798
vn 0.4383794069290161 -0.459926038980484 -0.7721990346908569
vn -0.9935781359672546 -0.08635810762643814 -0.07310831546783447
vn -0.4365159273147583 -0.4589146375656128 -0.7738547921180725
vn -0.9508177042007446 0.1981530636548996 -0.23807752132415771
vn 0.9931762218475342 -0.07308171689510345 -0.0908845067024231
vn 0.45226991176605225 0.04251091927289963 -0.8908674120903015
vn 0.5528860688209534 -0.6651319265365601 -0.5019128918647766
vn -0.5506557822227478 -0.6656266450881958 -0.5037056803703308
vn -0.4518778920173645 0.04323404282331467 -0.8910315036773682
vn -0.9933379888534546 -0.07270044088363647 -0.08941076695919037
vn -0.45827311277389526 0.041926994919776917 -0.8878219723701477
vn -0.21079495549201965 -0.7261925935745239 -0.6543773412704468
vn 0.5019475817680359 -0.03676755726337433 -0.8641161918640137
vn -0.4996839165687561 -0.45931705832481384 -0.7344002723693848
vn 0.4565575420856476 -0.5365463495254517 -0.709699273109436
vn 0.22605334222316742 0.23452162742614746 -0.9454625844955444
vn 0.44829055666923523 0.8659604787826538 -0.22169336676597595
vn 0.9933546781539917 0.11396803706884384 -0.016049444675445557
vn 0.5367954969406128 0.7797019481658936 0.3223590552806854
vn -0.9930530190467834 0.11685645580291748 -0.013795383274555206
vn -0.4482066035270691 0.8661182522773743 -0.2212466597557068
vn -0.5367673635482788 0.7799383997917175 0.3218337893486023
vn -0.46367374062538147 0.8601406812667847 -0.21252021193504333
vn 0.4586032032966614 0.8607129454612732 -0.2210347205400467
vn 0.44177186489105225 0.8343255519866943 0.32975533604621887
vn 0.99689120054245 0.045840002596378326 -0.06408264487981796
vn 0.9527127146720886 0.28122448921203613 0.11511382460594177
vn 0.4420551657676697 0.6542252898216248 -0.6136582493782043
vn -0.996700644493103 0.04500588774681091 -0.0675429105758667
vn -0.44184792041778564 0.6541554927825928 -0.6138817667961121
vn -0.9512880444526672 0.285641610622406 0.11601634323596954
vn -0.4617200791835785 0.561089277267456 -0.6870176792144775
vn 0.5033597350120544 0.6153353452682495 -0.6066228151321411
vn -0.23249010741710663 0.9708735942840576 -0.05790172889828682
vn 0.9922827482223511 0.05124485492706299 -0.1129104346036911
vn 0.45589587092399597 0.8622202277183533 -0.22076065838336945
vn 0.5339840054512024 0.3656018376350403 -0.7623623609542847
vn -0.5338569283485413 0.3654097020626068 -0.7625434398651123
vn -0.4557955861091614 0.8623698949813843 -0.2203827202320099
vn -0.9924808740615845 0.0538097620010376 -0.10993692278862
vn 0.9321856498718262 0.22678899765014648 -0.2821287512779236
vn 0.999064028263092 -0.04304012656211853 -0.004311464726924896
vn 0.517276406288147 0.8527786135673523 0.07206806540489197
vn -0.9990805387496948 -0.042676493525505066 -0.004090897738933563
vn -0.9332178235054016 0.2273331582546234 -0.278251975774765
vn -0.5174447894096375 0.8527092337608337 0.07167914509773254
vn 0.26780909299850464 0.4492843747138977 -0.8523038625717163
vn 0.4586072266101837 0.8607314229011536 -0.2209545075893402
vn -0.5075370669364929 0.8082911968231201 -0.2984485626220703
vn -0.5074817538261414 0.8577908277511597 0.08159172534942627
vn -0.15527388453483582 0.8822137713432312 -0.4445097744464874
vn 0.5071223974227905 0.8589410781860352 0.07104313373565674
f 3/3/3 2/2/2 1/1/1
f 6/6/6 5/5/5 4/4/4
f 9/9/9 8/8/8 7/7/7
f 12/12/12 11/11/11 10/10/10
f 15/15/15 14/14/14 13/13/13
f 18/18/18 17/17/17 16/16/16
f 21/21/21 20/20/20 19/19/19
f 24/24/24 23/23/23 22/22/22
f 27/27/27 26/26/26 25/25/25
f 30/30/30 29/29/29 28/28/28
f 33/33/33 32/32/32 31/31/31
f 36/36/36 35/35/35 34/34/34
f 39/39/39 38/38/38 37/37/37
f 42/42/42 41/41/41 40/40/40
f 45/45/45 44/44/44 43/43/43
f 48/48/48 47/47/47 46/46/46
f 51/51/51 50/50/50 49/49/49
f 54/54/54 53/53/53 52/52/52
f 57/57/57 56/56/56 55/55/55
f 60/60/60 59/59/59 58/58/58
f 63/63/63 62/62/62 61/61/61
f 66/66/66 65/65/65 64/64/64
f 69/69/69 68/68/68 67/67/67
f 72/72/72 71/71/71 70/70/70
