# VPXTOOL table OBJ file
# VPXTOOL OBJ file
# numVerts: 72 numFaces: 99
o LM_GI_GI21_SlingArmR
v -1.1764118671417236 -1.5857762098312378 3.248798131942749
v -0.34862780570983887 -1.5857762098312378 3.2886979579925537
v -1.1765222549438477 1.589089035987854 3.248798131942749
v 0.46137693524360657 -1.5857762098312378 3.113100290298462
v 1.1983873844146729 -1.5857762098312378 2.7337005138397217
v 0.46137693524360657 1.5891995429992676 3.113100290298462
v 8.9142484664917 -1.5857762098312378 9.649596214294434
v 8.914137840270996 1.5891995429992676 9.649596214294434
v 8.9142484664917 -1.5857762098312378 -28.45039176940918
v 1.8120474815368652 -1.5858865976333618 2.176597833633423
v 1.1983873844146729 1.5891995429992676 2.7337005138397217
v -0.34862780570983887 1.5891995429992676 3.2886979579925537
v 2.2605040073394775 -1.5858865976333618 1.4796011447906494
v 1.8120474815368652 1.5891995429992676 2.176597833633423
v 2.5133891105651855 -1.5858865976333618 0.6902985572814941
v 2.2605040073394775 1.5891995429992676 1.4796011447906494
v -1.1764118671417236 -1.5857762098312378 3.248798131942749
v -1.965876579284668 -1.5857762098312378 2.9958994388580322
v -10.135716438293457 -1.5857762098312378 9.649596214294434
v 1.9984534978866577 -1.5858865976333618 -1.6845006942749023
v 2.3777809143066406 -1.5857762098312378 -0.9476006627082825
v -0.6106784343719482 -1.5858865976333618 -28.45039176940918
v 2.5134994983673096 1.5891995429992676 0.6902985572814941
v 8.9142484664917 -1.5857762098312378 9.649596214294434
v 2.3777809143066406 -1.5857762098312378 -0.9476006627082825
v 2.5534751415252686 -1.5857762098312378 -0.13759934902191162
v 8.9142484664917 -1.5857762098312378 -28.45039176940918
v -0.6106784343719482 -1.5858865976333618 -28.45039176940918
v 2.3777809143066406 -1.5857762098312378 -0.9476006627082825
v 8.9142484664917 -1.5857762098312378 -28.45039176940918
v 8.9142484664917 -1.5857762098312378 9.649596214294434
v 2.5534751415252686 -1.5857762098312378 -0.13759934902191162
v 2.5133891105651855 -1.5858865976333618 0.6902985572814941
v 8.9142484664917 -1.5857762098312378 9.649596214294434
v 2.5133891105651855 -1.5858865976333618 0.6902985572814941
v 2.2605040073394775 -1.5858865976333618 1.4796011447906494
v 8.9142484664917 -1.5857762098312378 9.649596214294434
v 2.2605040073394775 -1.5858865976333618 1.4796011447906494
v 1.8120474815368652 -1.5858865976333618 2.176597833633423
v -3.481971502304077 -1.5858865976333618 -1.2304984331130981
v -10.135716438293457 -1.5857762098312378 -28.45039176940918
v -10.135716438293457 -1.5857762098312378 9.649596214294434
v -3.73496675491333 -1.5858865976333618 -0.44119930267333984
v -3.481971502304077 -1.5858865976333618 -1.2304984331130981
v -10.135716438293457 -1.5857762098312378 9.649596214294434
v 8.9142484664917 -1.5857762098312378 9.649596214294434
v 1.8120474815368652 -1.5858865976333618 2.176597833633423
v 1.1983873844146729 -1.5857762098312378 2.7337005138397217
v 8.9142484664917 -1.5857762098312378 9.649596214294434
v 1.1983873844146729 -1.5857762098312378 2.7337005138397217
v 0.46137693524360657 -1.5857762098312378 3.113100290298462
v -3.774942398071289 -1.5858865976333618 0.3866986036300659
v -3.73496675491333 -1.5858865976333618 -0.44119930267333984
v -10.135716438293457 -1.5857762098312378 9.649596214294434
v -3.599248170852661 -1.5857762098312378 1.196699857711792
v -3.774942398071289 -1.5858865976333618 0.3866986036300659
v -10.135716438293457 -1.5857762098312378 9.649596214294434
v -0.34862780570983887 -1.5857762098312378 3.2886979579925537
v 8.9142484664917 -1.5857762098312378 9.649596214294434
v 0.46137693524360657 -1.5857762098312378 3.113100290298462
v -0.34862780570983887 -1.5857762098312378 3.2886979579925537
v -10.135716438293457 -1.5857762098312378 9.649596214294434
v -3.2199208736419678 -1.5858865976333618 1.9336999654769897
v -3.599248170852661 -1.5857762098312378 1.196699857711792
v -10.135716438293457 -1.5857762098312378 9.649596214294434
v -2.6628010272979736 -1.5858865976333618 2.547297954559326
v -3.2199208736419678 -1.5858865976333618 1.9336999654769897
v -10.135716438293457 -1.5857762098312378 9.649596214294434
v -1.1764118671417236 -1.5857762098312378 3.248798131942749
v -1.965876579284668 -1.5857762098312378 2.9958994388580322
v -2.6628010272979736 -1.5858865976333618 2.547297954559326
v -10.135716438293457 -1.5857762098312378 9.649596214294434
vt 0.00846382137387991 0.21713882684707642
vt 0.00833464041352272 0.2173595428466797
vt 0.00657553318887949 0.2169361114501953
vt 0.008193467743694782 0.21756982803344727
vt 0.008049944415688515 0.21775555610656738
vt 0.006305247079581022 0.2173670530319214
vt 0.0072970339097082615 0.21997565031051636
vt 0.005414093844592571 0.21977263689041138
vt 0.0046388013288378716 0.219011127948761
vt 0.007913779467344284 0.21790409088134766
vt 0.006161519326269627 0.21755266189575195
vt 0.006446453742682934 0.2171567678451538
vt 0.007794307079166174 0.21800512075424194
vt 0.006025081500411034 0.21770107746124268
vt 0.00769966933876276 0.2180519700050354
vt 0.005905166734009981 0.2178020477294922
vt 0.00846382137387991 0.21713882684707642
vt 0.008572358638048172 0.21692276000976563
vt 0.01032662857323885 0.21493327617645264
vt 0.00761818140745163 0.217853844165802
vt 0.00760843837633729 0.21797364950180054
vt 0.006174328271299601 0.21645408868789673
vt 0.005810018163174391 0.2178487777709961
vt 0.0072970339097082615 0.21997565031051636
vt 0.00760843837633729 0.21797364950180054
vt 0.0076362369582057 0.21804124116897583
vt 0.0046388013288378716 0.219011127948761
vt 0.006174328271299601 0.21645408868789673
vt 0.00760843837633729 0.21797364950180054
vt 0.0046388013288378716 0.219011127948761
vt 0.0072970339097082615 0.21997565031051636
vt 0.0076362369582057 0.21804124116897583
vt 0.00769966933876276 0.2180519700050354
vt 0.0072970339097082615 0.21997565031051636
vt 0.00769966933876276 0.2180519700050354
vt 0.007794307079166174 0.21800512075424194
vt 0.0072970339097082615 0.21997565031051636
vt 0.007794307079166174 0.21800512075424194
vt 0.007913779467344284 0.21790409088134766
vt 0.008524528704583645 0.21640896797180176
vt 0.007710638921707869 0.2138957977294922
vt 0.01032662857323885 0.21493327617645264
vt 0.008619030006229877 0.2163625955581665
vt 0.008524528704583645 0.21640896797180176
vt 0.01032662857323885 0.21493327617645264
vt 0.0072970339097082615 0.21997565031051636
vt 0.007913779467344284 0.21790409088134766
vt 0.008049944415688515 0.21775555610656738
vt 0.0072970339097082615 0.21997565031051636
vt 0.008049944415688515 0.21775555610656738
vt 0.008193467743694782 0.21756982803344727
vt 0.008682189509272575 0.21637386083602905
vt 0.008619030006229877 0.2163625955581665
vt 0.01032662857323885 0.21493327617645264
vt 0.008709647692739964 0.21644186973571777
vt 0.008682189509272575 0.21637386083602905
vt 0.01032662857323885 0.21493327617645264
vt 0.00833464041352272 0.2173595428466797
vt 0.0072970339097082615 0.21997565031051636
vt 0.008193467743694782 0.21756982803344727
vt 0.00833464041352272 0.2173595428466797
vt 0.01032662857323885 0.21493327617645264
vt 0.008699597790837288 0.21656197309494019
vt 0.008709647692739964 0.21644186973571777
vt 0.01032662857323885 0.21493327617645264
vt 0.008652755990624428 0.21672606468200684
vt 0.008699597790837288 0.21656197309494019
vt 0.01032662857323885 0.21493327617645264
vt 0.00846382137387991 0.21713882684707642
vt 0.008572358638048172 0.21692276000976563
vt 0.008652755990624428 0.21672606468200684
vt 0.01032662857323885 0.21493327617645264
vn 0.048144709318876266 0.0000016754712532929261 -0.9988403916358948
vn -0.0825689509510994 0.0000007075930170685751 -0.9965854287147522
vn 0.048139430582523346 0.0000002722945566802082 -0.9988406300544739
vn -0.33767518401145935 -0 -0.9412626624107361
vn -0.5698092579841614 -0 -0.8217769861221313
vn -0.33766964077949524 -0 -0.9412646889686584
vn 1 0.00003509849921101704 -0
vn 1 0.00003509849921101704 -0
vn 0.9831303358078003 0.012574288994073868 0.18247368931770325
vn -0.763105571269989 -0 -0.6462738513946533
vn -0.5698000192642212 -0 -0.8217833638191223
vn -0.08257142454385757 -0 -0.9965851306915283
vn -0.9043717384338379 -0 -0.42674538493156433
vn -0.7630984783172607 -0 -0.6462822556495667
vn -0.9523099064826965 0.000005374688953452278 -0.30513259768486023
vn -0.904346764087677 0.000013965201105747838 -0.42679843306541443
vn 0 -1 -0.00000002665893994446833
vn 0 -1 -0.00000002665893994446833
vn 0 -1 -0.00000002665893994446833
vn 0.00035912857856601477 -0.9999998807907104 -0.000035074430343229324
vn 0.00035912857856601477 -0.9999998807907104 -0.000035074430343229324
vn 0.00035912857856601477 -0.9999998807907104 -0.000035074430343229324
vn -0.9522774815559387 0.00003306695361970924 -0.3052337169647217
vn 0 -1 -0
vn 0 -1 -0
vn 0 -1 -0
vn -0.0823492705821991 -0.9831312298774719 0.1633140742778778
vn 0.000011593799172260333 -1 0.0000027528869850357296
vn 0.000011593799172260333 -1 0.0000027528869850357296
vn -0.007455791812390089 -0.9831307530403137 0.18275201320648193
vn 0.0001910081336973235 -1 -0.0001241376594407484
vn 0.0001910081336973235 -1 -0.0001241376594407484
vn 0.0001910081336973235 -1 -0.0001241376594407484
vn 0.000011910925422853325 -1 0.000003839475539280102
vn 0.000011910925422853325 -1 0.000003839475539280102
vn 0.000011910925422853325 -1 0.000003839475539280102
vn 0.000009271718226955272 -1 0.000006016955921950284
vn 0.000009271718226955272 -1 0.000006016955921950284
vn 0.000009271718226955272 -1 0.000006016955921950284
vn -0.000016596684872638434 -1 -0
vn -0.000016596684872638434 -1 -0
vn -0.000016596684872638434 -1 -0
vn -0.0000348763023794163 -1 -0.00001120335582527332
vn -0.0000348763023794163 -1 -0.00001120335582527332
vn -0.0000348763023794163 -1 -0.00001120335582527332
vn -0.00008940236875787377 -1 0.00009958514419849962
vn -0.00008940236875787377 -1 0.00009958514419849962
vn -0.00008940236875787377 -1 0.00009958514419849962
vn 0 -0.9999999403953552 0.00000019452149047083367
vn 0 -0.9999999403953552 0.00000019452149047083367
vn 0 -0.9999999403953552 0.00000019452149047083367
vn -0.00001867424725787714 -1 -0.0000007671927164665249
vn -0.00001867424725787714 -1 -0.0000007671927164665249
vn -0.00001867424725787714 -1 -0.0000007671927164665249
vn 0.00013768422650173306 -1 0.00010638411913532764
vn 0.00013768422650173306 -1 0.00010638411913532764
vn 0.00013768422650173306 -1 0.00010638411913532764
vn 0 -1 -0.0000004605277013070008
vn 0 -1 -0.0000004605277013070008
vn 0 -1 -0.0000004605277013070008
vn 0 -1 -0
vn 0 -1 -0
vn -0.00011633572285063565 -1 -0.00008988882473204285
vn -0.00011633572285063565 -1 -0.00008988882473204285
vn -0.00011633572285063565 -1 -0.00008988882473204285
vn -0.000007932352673378773 -1 0.000007263612587848911
vn -0.000007932352673378773 -1 0.000007263612587848911
vn -0.000007932352673378773 -1 0.000007263612587848911
vn 0 -1 -0
vn 0.00008850362792145461 -1 0.0001086499250959605
vn 0.00008850362792145461 -1 0.0001086499250959605
vn 0.00008850362792145461 -1 0.0001086499250959605
f 3/3/3 2/2/2 1/1/1
f 6/6/6 5/5/5 4/4/4
f 9/9/9 8/8/8 7/7/7
f 11/11/11 10/10/10 5/5/5
f 12/12/12 4/4/4 2/2/2
f 14/14/14 13/13/13 10/10/10
f 16/16/16 15/15/15 13/13/13
f 19/19/19 18/18/18 17/17/17
f 3/3/3 12/12/12 2/2/2
f 6/6/6 11/11/11 5/5/5
f 11/11/11 14/14/14 10/10/10
f 12/12/12 6/6/6 4/4/4
f 22/22/22 21/21/21 20/20/20
f 14/14/14 16/16/16 13/13/13
f 16/16/16 23/23/23 15/15/15
f 26/26/26 25/25/25 24/24/24
f 29/29/29 28/28/28 27/27/27
f 30/30/30 24/24/24 25/25/25
f 33/33/33 32/32/32 31/31/31
f 36/36/36 35/35/35 34/34/34
f 39/39/39 38/38/38 37/37/37
f 42/42/42 41/41/41 40/40/40
f 45/45/45 44/44/44 43/43/43
f 48/48/48 47/47/47 46/46/46
f 51/51/51 50/50/50 49/49/49
f 54/54/54 53/53/53 52/52/52
f 57/57/57 56/56/56 55/55/55
f 60/60/60 59/59/59 58/58/58
f 24/24/24 62/62/62 61/61/61
f 65/65/65 64/64/64 63/63/63
f 68/68/68 67/67/67 66/66/66
f 69/69/69 61/61/61 62/62/62
f 72/72/72 71/71/71 70/70/70
