# VPXTOOL table OBJ file
# VPXTOOL OBJ file
# numVerts: 108 numFaces: 108
o BM_TriggerLaneR
v -1188.927490234375 82574.9375 -24210.994140625
v 1189.0406494140625 82574.9375 -24210.994140625
v -1188.927490234375 86148.0546875 -18924.25
v 2377.85498046875 -38585.640625 -67532.7578125
v 2377.85498046875 -32445.033203125 -69427.125
v 1188.814453125 -39552.36328125 -69351.0078125
v -1189.2667236328125 -39552.36328125 -69351.0078125
v -1189.2667236328125 -43453.1875 -63091.3671875
v 1188.814453125 -39552.36328125 -69351.0078125
v 1189.1536865234375 86148.0546875 -18924.25
v 2377.968017578125 84168.6953125 -18356.5078125
v 1189.0406494140625 79208.9921875 54005.3046875
v -1189.2667236328125 -43453.1875 -63091.3671875
v -1189.2667236328125 -86148.28125 54005.3046875
v 1188.814453125 -43453.1875 -63091.3671875
v -1189.2667236328125 -39906.41796875 -61270.97265625
v -2378.1943359375 -41728.03125 -62181.09765625
v -1189.2667236328125 -37618.6875 -65714.3671875
v -1188.927490234375 82574.9375 -24210.994140625
v -1189.2667236328125 -32445.033203125 -71482.1484375
v 1189.0406494140625 82574.9375 -24210.994140625
v 2377.968017578125 81210.7421875 -22697.2578125
v 1189.0406494140625 82574.9375 -24210.994140625
v 2377.85498046875 -32445.033203125 -69427.125
v 2377.968017578125 81210.7421875 -22697.2578125
v 2377.968017578125 84168.6953125 -18356.5078125
v 1189.0406494140625 82574.9375 -24210.994140625
v -1188.927490234375 79208.9921875 54005.3046875
v -1188.927490234375 86148.0546875 -18924.25
v 1189.0406494140625 79208.9921875 54005.3046875
v -2377.85498046875 81210.7421875 -22697.2578125
v -2378.081298828125 -32445.033203125 -69427.125
v -1188.927490234375 82574.9375 -24210.994140625
v -1189.2667236328125 -32445.033203125 -71482.1484375
v -1189.2667236328125 -39552.36328125 -69351.0078125
v 1188.814453125 -32445.033203125 -71482.1484375
v -2377.85498046875 77194.578125 54005.3046875
v -2377.85498046875 84168.8125 -18356.5078125
v -1188.927490234375 79208.9921875 54005.3046875
v -2378.1943359375 -41728.03125 -62181.09765625
v -2378.1943359375 -84133.9765625 54005.3046875
v -1189.2667236328125 -43453.1875 -63091.3671875
v -2377.85498046875 81210.7421875 -22697.2578125
v -1188.927490234375 82574.9375 -24210.994140625
v -2377.85498046875 84168.8125 -18356.5078125
v -2378.1943359375 -38585.640625 -67532.7578125
v -1189.2667236328125 -39552.36328125 -69351.0078125
v -2378.081298828125 -32445.033203125 -69427.125
v -2378.1943359375 -41728.03125 -62181.09765625
v -1189.2667236328125 -43453.1875 -63091.3671875
v -2378.1943359375 -38585.640625 -67532.7578125
v -1189.2667236328125 -39906.41796875 -61270.97265625
v -1189.2667236328125 -82119.5625 54005.3046875
v -2378.1943359375 -41728.03125 -62181.09765625
v 1189.0406494140625 82574.9375 -24210.994140625
v 1189.1536865234375 86148.0546875 -18924.25
v -1188.927490234375 86148.0546875 -18924.25
v 2377.85498046875 -32445.033203125 -69427.125
v 1188.814453125 -32445.033203125 -71482.1484375
v 1188.814453125 -39552.36328125 -69351.0078125
v -1189.2667236328125 -43453.1875 -63091.3671875
v 1188.814453125 -43453.1875 -63091.3671875
v 1188.814453125 -39552.36328125 -69351.0078125
v 2377.968017578125 84168.6953125 -18356.5078125
v 2377.968017578125 77194.578125 54005.3046875
v 1189.0406494140625 79208.9921875 54005.3046875
v -1189.2667236328125 -86148.28125 54005.3046875
v 1188.701416015625 -86148.28125 54005.3046875
v 1188.814453125 -43453.1875 -63091.3671875
v -1189.2667236328125 -32445.033203125 -71482.1484375
v 1188.814453125 -32445.033203125 -71482.1484375
v 1189.0406494140625 82574.9375 -24210.994140625
v 1189.0406494140625 82574.9375 -24210.994140625
v 1188.814453125 -32445.033203125 -71482.1484375
v 2377.85498046875 -32445.033203125 -69427.125
v 2377.968017578125 84168.6953125 -18356.5078125
v 1189.1536865234375 86148.0546875 -18924.25
v 1189.0406494140625 82574.9375 -24210.994140625
v -1188.927490234375 86148.0546875 -18924.25
v 1189.1536865234375 86148.0546875 -18924.25
v 1189.0406494140625 79208.9921875 54005.3046875
v -2378.081298828125 -32445.033203125 -69427.125
v -1189.2667236328125 -32445.033203125 -71482.1484375
v -1188.927490234375 82574.9375 -24210.994140625
v -1189.2667236328125 -39552.36328125 -69351.0078125
v 1188.814453125 -39552.36328125 -69351.0078125
v 1188.814453125 -32445.033203125 -71482.1484375
v -2377.85498046875 84168.8125 -18356.5078125
v -1188.927490234375 86148.0546875 -18924.25
v -1188.927490234375 79208.9921875 54005.3046875
v -2378.1943359375 -84133.9765625 54005.3046875
v -1189.2667236328125 -86148.28125 54005.3046875
v -1189.2667236328125 -43453.1875 -63091.3671875
v -1188.927490234375 82574.9375 -24210.994140625
v -1188.927490234375 86148.0546875 -18924.25
v -2377.85498046875 84168.8125 -18356.5078125
v -1189.2667236328125 -39552.36328125 -69351.0078125
v -1189.2667236328125 -32445.033203125 -71482.1484375
v -2378.081298828125 -32445.033203125 -69427.125
v 2377.85498046875 -38585.640625 -67532.7578125
v 1188.814453125 -39552.36328125 -69351.0078125
v 1188.814453125 -43453.1875 -63091.3671875
v -1189.2667236328125 -43453.1875 -63091.3671875
v -1189.2667236328125 -39552.36328125 -69351.0078125
v -2378.1943359375 -38585.640625 -67532.7578125
v -1189.2667236328125 -82119.5625 54005.3046875
v -2378.1943359375 -84133.9765625 54005.3046875
v -2378.1943359375 -41728.03125 -62181.09765625
vt 0.005835890304297209 0.6525474786758423
vt 0.006589824799448252 0.6525474786758423
vt 0.005673661362379789 0.6532597541809082
vt 0.007377156522125006 0.6343213319778442
vt 0.007511351723223925 0.6350526809692383
vt 0.007058366667479277 0.6341054439544678
vt 0.0063026063144207 0.6341054439544678
vt 0.006027711555361748 0.6338826417922974
vt 0.007058366667479277 0.6341054439544678
vt 0.006426987703889608 0.6532597541809082
vt 0.006762285716831684 0.6530188918113708
vt 0.0036557514686137438 0.6554940938949585
vt 0.006027711555361748 0.6338826417922974
vt 0.0013142970856279135 0.6337670087814331
vt 0.0067824069410562515 0.6338826417922974
vt 0.005995037499815226 0.6344429850578308
vt 0.0056335702538490295 0.6341564059257507
vt 0.006185147445648909 0.6345372200012207
vt 0.005835890304297209 0.6525474786758423
vt 0.006454792805016041 0.6349549293518066
vt 0.006589824799448252 0.6525474786758423
vt 0.006895948201417923 0.6524308323860168
vt 0.006589824799448252 0.6525474786758423
vt 0.007511351723223925 0.6350526809692383
vt 0.006895948201417923 0.6524308323860168
vt 0.006762285716831684 0.6530188918113708
vt 0.006589824799448252 0.6525474786758423
vt 0.002913113683462143 0.6554940938949585
vt 0.005673661362379789 0.6532597541809082
vt 0.0036557514686137438 0.6554940938949585
vt 0.005388572812080383 0.6524308323860168
vt 0.005999259650707245 0.6350526809692383
vt 0.005835890304297209 0.6525474786758423
vt 0.006454792805016041 0.6349549293518066
vt 0.0063026063144207 0.6341054439544678
vt 0.007211162243038416 0.6349549293518066
vt 0.0025222054682672024 0.6552271842956543
vt 0.005255937110632658 0.6530188918113708
vt 0.002913113683462143 0.6554940938949585
vt 0.0056335702538490295 0.6341564059257507
vt 0.0009653440210968256 0.6340295076370239
vt 0.006027711555361748 0.6338826417922974
vt 0.005388572812080383 0.6524308323860168
vt 0.005835890304297209 0.6525474786758423
vt 0.005255937110632658 0.6530188918113708
vt 0.005866091698408127 0.6343213319778442
vt 0.0063026063144207 0.6341054439544678
vt 0.005999259650707245 0.6350526809692383
vt 0.0056335702538490295 0.6341564059257507
vt 0.006027711555361748 0.6338826417922974
vt 0.005866091698408127 0.6343213319778442
vt 0.005995037499815226 0.6344429850578308
vt 0.0013529048301279545 0.6342921257019043
vt 0.0056335702538490295 0.6341564059257507
vt 0.006589824799448252 0.6525474786758423
vt 0.006426987703889608 0.6532597541809082
vt 0.005673661362379789 0.6532597541809082
vt 0.007511351723223925 0.6350526809692383
vt 0.007211162243038416 0.6349549293518066
vt 0.007058366667479277 0.6341054439544678
vt 0.006027711555361748 0.6338826417922974
vt 0.0067824069410562515 0.6338826417922974
vt 0.007058366667479277 0.6341054439544678
vt 0.006762285716831684 0.6530188918113708
vt 0.0040072910487651825 0.6552271842956543
vt 0.0036557514686137438 0.6554940938949585
vt 0.0013142970856279135 0.6337670087814331
vt 0.00205069687217474 0.6337670087814331
vt 0.0067824069410562515 0.6338826417922974
vt 0.006454792805016041 0.6349549293518066
vt 0.007211162243038416 0.6349549293518066
vt 0.006589824799448252 0.6525474786758423
vt 0.006589824799448252 0.6525474786758423
vt 0.007211162243038416 0.6349549293518066
vt 0.007511351723223925 0.6350526809692383
vt 0.006762285716831684 0.6530188918113708
vt 0.006426987703889608 0.6532597541809082
vt 0.006589824799448252 0.6525474786758423
vt 0.005673661362379789 0.6532597541809082
vt 0.006426987703889608 0.6532597541809082
vt 0.0036557514686137438 0.6554940938949585
vt 0.005999259650707245 0.6350526809692383
vt 0.006454792805016041 0.6349549293518066
vt 0.005835890304297209 0.6525474786758423
vt 0.0063026063144207 0.6341054439544678
vt 0.007058366667479277 0.6341054439544678
vt 0.007211162243038416 0.6349549293518066
vt 0.005255937110632658 0.6530188918113708
vt 0.005673661362379789 0.6532597541809082
vt 0.002913113683462143 0.6554940938949585
vt 0.0009653440210968256 0.6340295076370239
vt 0.0013142970856279135 0.6337670087814331
vt 0.006027711555361748 0.6338826417922974
vt 0.005835890304297209 0.6525474786758423
vt 0.005673661362379789 0.6532597541809082
vt 0.005255937110632658 0.6530188918113708
vt 0.0063026063144207 0.6341054439544678
vt 0.006454792805016041 0.6349549293518066
vt 0.005999259650707245 0.6350526809692383
vt 0.007377156522125006 0.6343213319778442
vt 0.007058366667479277 0.6341054439544678
vt 0.0067824069410562515 0.6338826417922974
vt 0.006027711555361748 0.6338826417922974
vt 0.0063026063144207 0.6341054439544678
vt 0.005866091698408127 0.6343213319778442
vt 0.0013529048301279545 0.6342921257019043
vt 0.0009653440210968256 0.6340295076370239
vt 0.0056335702538490295 0.6341564059257507
vn -0.4617200791835785 0.5610991716384888 -0.6870096921920776
vn 0.5033600330352783 0.6153446435928345 -0.606613278388977
vn -0.23249076306819916 0.9708743691444397 -0.05788819491863251
vn 0.9926536679267883 -0.09275831282138824 -0.07768172770738602
vn 0.950843334197998 0.19695082306861877 -0.23897141218185425
vn 0.43846336007118225 -0.4598878026008606 -0.7721743583679199
vn -0.45453083515167236 -0.5359704494476318 -0.7114334106445313
vn -0.38005366921424866 -0.9009906649589539 -0.20922499895095825
vn 0.5033422708511353 -0.5790954232215881 -0.641322910785675
vn 0.4482906758785248 0.8659605979919434 -0.22169280052185059
vn 0.9933547377586365 0.11396805197000504 -0.01604919135570526
vn 0.5367956757545471 0.7797013521194458 0.32236018776893616
vn -0.47436532378196716 -0.7924011945724487 -0.3835073709487915
vn -0.3756778836250305 -0.9204077124595642 -0.10823975503444672
vn 0.47732269763946533 -0.7921395301818848 -0.3803657293319702
vn -0.5416297316551208 0.7759641408920288 0.32329076528549194
vn -0.9846965670585632 0.022838696837425232 -0.1727747768163681
vn -0.5445231795310974 0.6587804555892944 0.5191366672515869
vn -0.461712509393692 0.561134397983551 -0.686985969543457
vn -0.1541815549135208 -0.16728469729423523 -0.9737780690193176
vn 0.46472832560539246 0.5566920042037964 -0.6885648965835571
vn 0.9968650937080383 0.048259735107421875 -0.06269705295562744
vn 0.4625262916088104 0.5569519400596619 -0.6898361444473267
vn 0.9282602071762085 -0.20429319143295288 -0.3108006715774536
vn 0.9968918561935425 0.045831575989723206 -0.06407803297042847
vn 0.9527148008346558 0.2812145948410034 0.11512096226215363
vn 0.44206327199935913 0.6542305946350098 -0.6136468052864075
vn -0.5074816942214966 0.8577908277511597 0.08159223943948746
vn -0.1552739143371582 0.8822140097618103 -0.44450926780700684
vn 0.5071223378181458 0.8589410185813904 0.07104364782571793
vn -0.9966797828674316 0.04733952134847641 -0.06624504923820496
vn -0.9288797378540039 -0.2042916715145111 -0.30894553661346436
vn -0.46240943670272827 0.5567691326141357 -0.6900620460510254
vn -0.4582730531692505 0.041926875710487366 -0.8878220915794373
vn -0.2107982635498047 -0.726191520690918 -0.6543776392936707
vn 0.5019490718841553 -0.036771245300769806 -0.8641152381896973
vn -0.9990811347961426 -0.04266437515616417 -0.004089735448360443
vn -0.9332153797149658 0.2273450493812561 -0.27825042605400085
vn -0.517434298992157 0.8527154922485352 0.07168123126029968
vn -0.9995541572570801 -0.02451331727206707 -0.017048083245754242
vn -0.9468600749969482 -0.2679329216480255 0.17795495688915253
vn -0.47869032621383667 -0.7926644086837769 -0.3775430917739868
vn -0.9967029094696045 0.04497000575065613 -0.0675358772277832
vn -0.4418744146823883 0.6541441082954407 -0.6138750910758972
vn -0.9512950778007507 0.28561490774154663 0.1160246953368187
vn -0.9935814738273621 -0.08634930849075317 -0.07307252287864685
vn -0.43663299083709717 -0.45886945724487305 -0.7738155722618103
vn -0.9508236646652222 0.19816505908966064 -0.23804400861263275
vn -0.999944806098938 -0.010505914688110352 0.0002075284719467163
vn -0.4934391975402832 -0.7380335330963135 -0.4602438807487488
vn -0.9436896443367004 -0.017615199089050293 -0.330363005399704
vn -0.5206930637359619 0.7819321155548096 0.3427257537841797
vn -0.5843563079833984 0.6188650131225586 0.5249131917953491
vn -0.9986634254455566 -0.04834797978401184 -0.018271803855895996
vn 0.2678098678588867 0.44929659366607666 -0.8522971272468567
vn 0.45860713720321655 0.8607345819473267 -0.22094227373600006
vn -0.507537305355072 0.808294951915741 -0.2984377145767212
vn 0.9931763410568237 -0.07308171689510345 -0.09088417887687683
vn 0.4522702693939209 0.04251084476709366 -0.890867292881012
vn 0.5529537796974182 -0.6650651693344116 -0.5019267201423645
vn -0.4835406243801117 -0.7428295612335205 -0.46302559971809387
vn 0.47626417875289917 -0.7901901602745056 -0.38570958375930786
vn 0.20604382455348969 -0.4314115047454834 -0.8783109188079834
vn 0.9321829676628113 0.22680088877677917 -0.2821280360221863
vn 0.999064564704895 -0.043027907609939575 -0.004310287535190582
vn 0.517265796661377 0.8527848124504089 0.07206901907920837
vn -0.4321192502975464 -0.84532630443573 -0.31415972113609314
vn 0.43202558159828186 -0.8472473621368408 -0.3090722858905792
vn 0.34815987944602966 -0.7059311270713806 -0.6168029308319092
vn -0.4613877832889557 0.04632505029439926 -0.8859883546829224
vn 0.4589211344718933 0.041138261556625366 -0.8875241279602051
vn 0.19448338449001312 0.7777679562568665 -0.59770667552948
vn 0.561481237411499 0.6870214343070984 -0.4612380266189575
vn 0.4566316604614258 0.041427165269851685 -0.8886907696723938
vn 0.993867814540863 0.016534805297851563 -0.10933152586221695
vn 0.9922831058502197 0.051245540380477905 -0.11290792375802994
vn 0.45589643716812134 0.8622224926948547 -0.22075071930885315
vn 0.5339848399162292 0.36561286449432373 -0.7623564600944519
vn -0.4636736810207367 0.860140860080719 -0.21251942217350006
vn 0.458603173494339 0.8607131838798523 -0.22103390097618103
vn 0.44177210330963135 0.8343252539634705 0.3297558128833771
vn -0.994006872177124 0.01727050542831421 -0.10794508457183838
vn -0.4562758803367615 0.042095959186553955 -0.8888421654701233
vn -0.5613194704055786 0.686951756477356 -0.46153873205184937
vn -0.4996856451034546 -0.459313303232193 -0.734401524066925
vn 0.4565575122833252 -0.5365462899208069 -0.7096995115280151
vn 0.22605642676353455 0.23452042043209076 -0.9454622268676758
vn -0.9930499792098999 0.11688238382339478 -0.013791728764772415
vn -0.4481850266456604 0.8661293387413025 -0.22124692797660828
vn -0.5367462038993835 0.7799519300460815 0.3218359351158142
vn -0.9922099113464355 -0.11536461114883423 -0.04701622575521469
vn -0.4270392060279846 -0.849528431892395 -0.3097400665283203
vn -0.5291250348091125 -0.6273197531700134 -0.5713987946510315
vn -0.5338444709777832 0.3654271066188812 -0.762543797492981
vn -0.4557774066925049 0.8623799085617065 -0.22038128972053528
vn -0.9924796223640442 0.05383090674877167 -0.10993896424770355
vn -0.550752580165863 -0.6655541062355042 -0.5036957859992981
vn -0.4519135057926178 0.043240927159786224 -0.8910132050514221
vn -0.9933425784111023 -0.07268738746643066 -0.08937127888202667
vn 0.9867029190063477 -0.16045694053173065 -0.02590063214302063
vn 0.43443262577056885 -0.539745569229126 -0.7210705876350403
vn 0.5076691508293152 -0.8387192487716675 -0.19703303277492523
vn -0.506951093673706 -0.840044379234314 -0.19319963455200195
vn -0.43244117498397827 -0.539221465587616 -0.7226582169532776
vn -0.9876843690872192 -0.1551552563905716 -0.020158618688583374
vn -0.5103938579559326 0.809494137763977 0.2902020215988159
vn -0.9948924779891968 -0.09481242299079895 -0.034636422991752625
vn -0.964830756187439 0.12097600102424622 -0.23338022828102112
f 3/3/3 2/2/2 1/1/1
f 6/6/6 5/5/5 4/4/4
f 9/9/9 8/8/8 7/7/7
f 12/12/12 11/11/11 10/10/10
f 15/15/15 14/14/14 13/13/13
f 18/18/18 17/17/17 16/16/16
f 21/21/21 20/20/20 19/19/19
f 24/24/24 23/23/23 22/22/22
f 27/27/27 26/26/26 25/25/25
f 30/30/30 29/29/29 28/28/28
f 33/33/33 32/32/32 31/31/31
f 36/36/36 35/35/35 34/34/34
f 39/39/39 38/38/38 37/37/37
f 42/42/42 41/41/41 40/40/40
f 45/45/45 44/44/44 43/43/43
f 48/48/48 47/47/47 46/46/46
f 51/51/51 50/50/50 49/49/49
f 54/54/54 53/53/53 52/52/52
f 57/57/57 56/56/56 55/55/55
f 60/60/60 59/59/59 58/58/58
f 63/63/63 62/62/62 61/61/61
f 66/66/66 65/65/65 64/64/64
f 69/69/69 68/68/68 67/67/67
f 72/72/72 71/71/71 70/70/70
f 75/75/75 74/74/74 73/73/73
f 78/78/78 77/77/77 76/76/76
f 81/81/81 80/80/80 79/79/79
f 84/84/84 83/83/83 82/82/82
f 87/87/87 86/86/86 85/85/85
f 90/90/90 89/89/89 88/88/88
f 93/93/93 92/92/92 91/91/91
f 96/96/96 95/95/95 94/94/94
f 99/99/99 98/98/98 97/97/97
f 102/102/102 101/101/101 100/100/100
f 105/105/105 104/104/104 103/103/103
f 108/108/108 107/107/107 106/106/106
