# VPXTOOL table OBJ file
# VPXTOOL OBJ file
# numVerts: 93 numFaces: 93
o LM_GI_ls2_TriggerLane1
v 1189.09716796875 82574.8828125 -24210.994140625
v 1188.927490234375 -32444.9765625 -71482.1484375
v 2377.85498046875 -32444.9765625 -69427.125
v -2378.081298828125 -32444.9765625 -69427.125
v -1189.09716796875 -32444.9765625 -71482.1484375
v -1188.8709716796875 82574.8828125 -24210.994140625
v -1189.09716796875 -32444.9765625 -71482.1484375
v 1188.927490234375 -32444.9765625 -71482.1484375
v -1188.8709716796875 82574.8828125 -24210.994140625
v 2378.1376953125 81210.7421875 -22697.2578125
v 1189.09716796875 82574.8828125 -24210.994140625
v 2377.85498046875 -32444.9765625 -69427.125
v -2377.91162109375 81210.7421875 -22697.2578125
v -2378.081298828125 -32444.9765625 -69427.125
v -1188.8709716796875 82574.8828125 -24210.994140625
v 1188.927490234375 -32444.9765625 -71482.1484375
v 1189.09716796875 82574.8828125 -24210.994140625
v -1188.8709716796875 82574.8828125 -24210.994140625
v 1188.8709716796875 -39906.36328125 -61270.97265625
v 1188.814453125 -82119.5078125 54005.3046875
v -1189.09716796875 -39906.36328125 -61270.97265625
v 1188.8709716796875 -39906.36328125 -61270.97265625
v 2377.85498046875 -41727.86328125 -62181.09765625
v 1188.814453125 -82119.5078125 54005.3046875
v -1189.09716796875 -39906.36328125 -61270.97265625
v -1189.210205078125 -82119.5078125 54005.3046875
v -2378.081298828125 -41727.86328125 -62181.09765625
v 1188.814453125 -82119.5078125 54005.3046875
v -1189.210205078125 -82119.5078125 54005.3046875
v -1189.09716796875 -39906.36328125 -61270.97265625
v 2377.85498046875 -41727.86328125 -62181.09765625
v 2377.798583984375 -84133.9765625 54005.3046875
v 1188.814453125 -82119.5078125 54005.3046875
v -1189.210205078125 -82119.5078125 54005.3046875
v -2378.1943359375 -84133.9765625 54005.3046875
v -2378.081298828125 -41727.86328125 -62181.09765625
v 1188.8709716796875 -39906.36328125 -61270.97265625
v 1188.8709716796875 -37618.6328125 -65714.3671875
v 2377.85498046875 -41727.86328125 -62181.09765625
v 2377.85498046875 -41727.86328125 -62181.09765625
v 2377.85498046875 -38585.58203125 -67532.7578125
v 1188.8709716796875 -43453.12890625 -63091.3671875
v -2378.081298828125 -41727.86328125 -62181.09765625
v -1189.09716796875 -43453.12890625 -63091.3671875
v -2378.081298828125 -38585.52734375 -67532.7578125
v -1189.09716796875 -43453.12890625 -63091.3671875
v 1188.8709716796875 -43453.12890625 -63091.3671875
v 1188.8709716796875 -39552.25 -69351.0078125
v 2377.85498046875 -38585.58203125 -67532.7578125
v 2377.85498046875 -32444.9765625 -69427.125
v 1188.8709716796875 -39552.25 -69351.0078125
v -2378.081298828125 -38585.52734375 -67532.7578125
v -1189.09716796875 -39552.25 -69351.0078125
v -2378.081298828125 -32444.9765625 -69427.125
v 2377.85498046875 -38585.58203125 -67532.7578125
v 1188.8709716796875 -39552.25 -69351.0078125
v 1188.8709716796875 -43453.12890625 -63091.3671875
v 2377.85498046875 -32444.9765625 -69427.125
v 1188.927490234375 -32444.9765625 -71482.1484375
v 1188.8709716796875 -39552.25 -69351.0078125
v -1189.09716796875 -43453.12890625 -63091.3671875
v -1189.09716796875 -39552.25 -69351.0078125
v -2378.081298828125 -38585.52734375 -67532.7578125
v -1189.09716796875 -39552.25 -69351.0078125
v -1189.09716796875 -32444.9765625 -71482.1484375
v -2378.081298828125 -32444.9765625 -69427.125
v 1188.8709716796875 -39552.25 -69351.0078125
v 1188.927490234375 -32444.9765625 -71482.1484375
v -1189.09716796875 -32444.9765625 -71482.1484375
v -1189.09716796875 -39552.25 -69351.0078125
v -1189.09716796875 -43453.12890625 -63091.3671875
v 1188.8709716796875 -39552.25 -69351.0078125
v -1189.09716796875 -39552.25 -69351.0078125
v 1188.8709716796875 -39552.25 -69351.0078125
v -1189.09716796875 -32444.9765625 -71482.1484375
v 2378.1376953125 81210.7421875 -22697.2578125
v 2378.1376953125 84168.75 -18356.5078125
v 1189.09716796875 82574.8828125 -24210.994140625
v -2377.91162109375 81210.7421875 -22697.2578125
v -1188.8709716796875 82574.8828125 -24210.994140625
v -2377.91162109375 84168.75 -18356.5078125
v -1188.8709716796875 82574.8828125 -24210.994140625
v 1189.09716796875 82574.8828125 -24210.994140625
v 1189.09716796875 86148.109375 -18924.25
v 2378.1376953125 84168.75 -18356.5078125
v 1189.09716796875 86148.109375 -18924.25
v 1189.09716796875 82574.8828125 -24210.994140625
v -1188.8709716796875 82574.8828125 -24210.994140625
v -1188.8709716796875 86148.109375 -18924.25
v -2377.91162109375 84168.75 -18356.5078125
v -1188.8709716796875 86148.109375 -18924.25
v -1188.8709716796875 82574.8828125 -24210.994140625
v 1189.09716796875 86148.109375 -18924.25
vt 0.2208133339881897 0.07882589101791382
vt 0.22054854035377502 0.061516404151916504
vt 0.2209838330745697 0.06164067983627319
vt 0.21937526762485504 0.06164067983627319
vt 0.21974395215511322 0.061516404151916504
vt 0.22001120448112488 0.07882589101791382
vt 0.21974395215511322 0.061516404151916504
vt 0.22054854035377502 0.061516404151916504
vt 0.22001120448112488 0.07882589101791382
vt 0.22124436497688293 0.07873964309692383
vt 0.2208133339881897 0.07882589101791382
vt 0.2209838330745697 0.06164067983627319
vt 0.21964070200920105 0.07873964309692383
vt 0.21937526762485504 0.06164067983627319
vt 0.22001120448112488 0.07882589101791382
vt 0.22054854035377502 0.061516404151916504
vt 0.2208133339881897 0.07882589101791382
vt 0.22001120448112488 0.07882589101791382
vt 0.22074516117572784 0.06119394302368164
vt 0.22273175418376923 0.0628095269203186
vt 0.2199423909187317 0.06119394302368164
vt 0.22074516117572784 0.06119394302368164
vt 0.22113977372646332 0.060909807682037354
vt 0.22273175418376923 0.0628095269203186
vt 0.2199423909187317 0.06119394302368164
vt 0.22194761037826538 0.0628095269203186
vt 0.21953415870666504 0.060909807682037354
vt 0.22273175418376923 0.0628095269203186
vt 0.22194761037826538 0.0628095269203186
vt 0.2199423909187317 0.06119394302368164
vt 0.22113977372646332 0.060909807682037354
vt 0.22313207387924194 0.06256192922592163
vt 0.22273175418376923 0.0628095269203186
vt 0.22194761037826538 0.0628095269203186
vt 0.221563920378685 0.06256192922592163
vt 0.21953415870666504 0.060909807682037354
vt 0.22074516117572784 0.06119394302368164
vt 0.2206638604402542 0.06121331453323364
vt 0.22113977372646332 0.060909807682037354
vt 0.22113977372646332 0.060909807682037354
vt 0.22104060649871826 0.060981571674346924
vt 0.22073116898536682 0.06063777208328247
vt 0.21953415870666504 0.060909807682037354
vt 0.21992827951908112 0.06063777208328247
vt 0.21943311393260956 0.060981571674346924
vt 0.21992827951908112 0.06063777208328247
vt 0.22073116898536682 0.06063777208328247
vt 0.22061362862586975 0.060749709606170654
vt 0.22104060649871826 0.060981571674346924
vt 0.2209838330745697 0.06164067983627319
vt 0.22061362862586975 0.060749709606170654
vt 0.21943311393260956 0.060981571674346924
vt 0.2198096364736557 0.060749709606170654
vt 0.21937526762485504 0.06164067983627319
vt 0.22104060649871826 0.060981571674346924
vt 0.22061362862586975 0.060749709606170654
vt 0.22073116898536682 0.06063777208328247
vt 0.2209838330745697 0.06164067983627319
vt 0.22054854035377502 0.061516404151916504
vt 0.22061362862586975 0.060749709606170654
vt 0.21992827951908112 0.06063777208328247
vt 0.2198096364736557 0.060749709606170654
vt 0.21943311393260956 0.060981571674346924
vt 0.2198096364736557 0.060749709606170654
vt 0.21974395215511322 0.061516404151916504
vt 0.21937526762485504 0.06164067983627319
vt 0.22061362862586975 0.060749709606170654
vt 0.22054854035377502 0.061516404151916504
vt 0.21974395215511322 0.061516404151916504
vt 0.2198096364736557 0.060749709606170654
vt 0.21992827951908112 0.06063777208328247
vt 0.22061362862586975 0.060749709606170654
vt 0.2198096364736557 0.060749709606170654
vt 0.22061362862586975 0.060749709606170654
vt 0.21974395215511322 0.061516404151916504
vt 0.22124436497688293 0.07873964309692383
vt 0.22130094468593597 0.07936114072799683
vt 0.2208133339881897 0.07882589101791382
vt 0.21964070200920105 0.07873964309692383
vt 0.22001120448112488 0.07882589101791382
vt 0.21969832479953766 0.07936114072799683
vt 0.22001120448112488 0.07882589101791382
vt 0.2208133339881897 0.07882589101791382
vt 0.22088271379470825 0.07957923412322998
vt 0.22130094468593597 0.07936114072799683
vt 0.22088271379470825 0.07957923412322998
vt 0.2208133339881897 0.07882589101791382
vt 0.22001120448112488 0.07882589101791382
vt 0.22008125483989716 0.07957923412322998
vt 0.21969832479953766 0.07936114072799683
vt 0.22008125483989716 0.07957923412322998
vt 0.22001120448112488 0.07882589101791382
vt 0.22088271379470825 0.07957923412322998
vn 0.5615109801292419 0.6870129704475403 -0.46121418476104736
vn 0.4566683769226074 0.04141835868358612 -0.8886722922325134
vn 0.9938724637031555 0.01652011275291443 -0.10929112136363983
vn -0.9940001368522644 0.017291978001594543 -0.10800442099571228
vn -0.45622164011001587 0.04210953414440155 -0.8888693451881409
vn -0.5612761974334717 0.6869649291038513 -0.46157169342041016
vn -0.4583020508289337 0.04189648851752281 -0.8878085017204285
vn 0.4620065987110138 0.045564115047454834 -0.8857052326202393
vn -0.19444309175014496 0.7775054574012756 -0.5980610847473145
vn 0.9968613982200623 0.04828120768070221 -0.06274113059043884
vn 0.46248355507850647 0.5569560527801514 -0.6898615956306458
vn 0.928249716758728 -0.20427705347537994 -0.31084299087524414
vn -0.9966757893562317 0.047361820936203 -0.06628884375095367
vn -0.9288696050643921 -0.20427462458610535 -0.3089873194694519
vn -0.46236637234687805 0.5567737817764282 -0.6900871396064758
vn 0.15421970188617706 -0.16829562187194824 -0.9735978841781616
vn 0.4619956910610199 0.561273455619812 -0.6866819262504578
vn -0.4644375145435333 0.5565647482872009 -0.6888638734817505
vn -0.00000002703704105044835 0.9157243371009827 0.40180695056915283
vn 0 0.9390205144882202 0.34386101365089417
vn -0.5054575800895691 0.787775456905365 0.35202616453170776
vn 0.8664842844009399 0.4524630308151245 0.21090807020664215
vn 0.9983130097389221 -0.054854199290275574 -0.019029084593057632
vn 0.8579308390617371 0.4804632067680359 0.18196074664592743
vn -0.5206559896469116 0.7819525003433228 0.3427355885505676
vn -0.5843232274055481 0.6188890933990479 0.5249214172363281
vn -0.9986656904220581 -0.04830554127693176 -0.0182608962059021
vn 0 0.939020574092865 0.3438609838485718
vn -0.5253384709358215 0.7990151047706604 0.29256507754325867
vn -0.47290921211242676 0.8729971647262573 0.1193016842007637
vn 0.9648373126983643 0.11495786905288696 -0.23637595772743225
vn 0.9948982000350952 -0.09473437070846558 -0.034684598445892334
vn 0.841373085975647 0.5078805088996887 0.1847938448190689
vn -0.5103863477706909 0.8094981908798218 0.2902039885520935
vn -0.99488365650177 -0.09489339590072632 -0.03466710448265076
vn -0.9648302793502808 0.12098464369773865 -0.23337799310684204
vn 0.8759311437606812 0.4447796940803528 0.18685755133628845
vn 0.8572255373001099 0.36129850149154663 0.3669165372848511
vn 0.9844539165496826 0.01657688617706299 -0.17485977709293365
vn 0.9998570084571838 -0.016894511878490448 -0.0005189813673496246
vn 0.9432872533798218 -0.025464162230491638 -0.3309994041919708
vn 0.49551641941070557 -0.7355254292488098 -0.46202346682548523
vn -0.999944806098938 -0.010503649711608887 0.00020569562911987305
vn -0.4934399425983429 -0.7380357980728149 -0.4602392911911011
vn -0.9436905980110168 -0.01761671155691147 -0.33035990595817566
vn -0.48354050517082214 -0.7428288459777832 -0.46302682161331177
vn 0.4762641191482544 -0.7901875972747803 -0.38571497797966003
vn 0.2060404121875763 -0.4314046800136566 -0.8783150315284729
vn 0.992655336856842 -0.09275630116462708 -0.077664315700531
vn 0.950846254825592 0.1969558447599411 -0.2389557957649231
vn 0.43847817182540894 -0.4598824679851532 -0.7721690535545349
vn -0.9935787916183472 -0.0863708034157753 -0.07308453321456909
vn -0.4365289509296417 -0.45891866087913513 -0.7738451361656189
vn -0.9508253931999207 0.1981429159641266 -0.2380555421113968
vn 0.9867047071456909 -0.1604476273059845 -0.02589547634124756
vn 0.4344435930252075 -0.5397329926490784 -0.7210736274719238
vn 0.5076790452003479 -0.8387131094932556 -0.19703403115272522
vn 0.9931803345680237 -0.07307685166597366 -0.09084343910217285
vn 0.452306866645813 0.04251158982515335 -0.8908485770225525
vn 0.5529778003692627 -0.66506427526474 -0.5019015073776245
vn -0.506936252117157 -0.8400507569313049 -0.19321061670780182
vn -0.43242526054382324 -0.5392255783081055 -0.7226646542549133
vn -0.9876819252967834 -0.15516944229602814 -0.020169757306575775
vn -0.5506407022476196 -0.6656305193901062 -0.5037169456481934
vn -0.4518599212169647 0.0432291179895401 -0.8910408020019531
vn -0.9933355450630188 -0.07270807027816772 -0.0894305557012558
vn 0.21204650402069092 -0.7275952696800232 -0.6524120569229126
vn 0.45891833305358887 0.04127844050526619 -0.8875190019607544
vn -0.5014153718948364 -0.035994455218315125 -0.8644576072692871
vn -0.4545309543609619 -0.5359655022621155 -0.7114369869232178
vn -0.3800519108772278 -0.9009902477264404 -0.20922940969467163
vn 0.5033404231071472 -0.5790888667106628 -0.6413301825523376
vn -0.4545263350009918 -0.5360173583030701 -0.7114008069038391
vn 0.5018706321716309 -0.4594748020172119 -0.7328087091445923
vn -0.2249230146408081 0.23481206595897675 -0.9456599950790405
vn 0.9968881011009216 0.04587416350841522 -0.06410741060972214
vn 0.9527061581611633 0.28125643730163574 0.11509011685848236
vn 0.4420168995857239 0.654243528842926 -0.6136663556098938
vn -0.9966990351676941 0.045016199350357056 -0.06756243109703064
vn -0.4418279230594635 0.6541661024093628 -0.6138851046562195
vn -0.9512860178947449 0.2856557369232178 0.1159989982843399
vn -0.5031137466430664 0.6151883006095886 -0.6069760322570801
vn 0.46201035380363464 0.5611793994903564 -0.6867488622665405
vn 0.23297500610351563 0.9707400798797607 -0.05819326639175415
vn 0.9922751188278198 0.051318734884262085 -0.11294450610876083
vn 0.45582303404808044 0.8622548580169678 -0.22077561914920807
vn 0.5339311361312866 0.3656463325023651 -0.7623780965805054
vn -0.533825159072876 0.36543008685112 -0.7625558972358704
vn -0.4557597041130066 0.862385630607605 -0.2203952819108963
vn -0.9924763441085815 0.0538439080119133 -0.1099616065621376
vn -0.4584134519100189 0.8609364032745361 -0.2205573171377182
vn -0.26732319593429565 0.4492664635181427 -0.852465808391571
vn 0.5076440572738647 0.8080664873123169 -0.29887452721595764
f 3/3/3 2/2/2 1/1/1
f 6/6/6 5/5/5 4/4/4
f 9/9/9 8/8/8 7/7/7
f 12/12/12 11/11/11 10/10/10
f 15/15/15 14/14/14 13/13/13
f 18/18/18 17/17/17 16/16/16
f 21/21/21 20/20/20 19/19/19
f 24/24/24 23/23/23 22/22/22
f 27/27/27 26/26/26 25/25/25
f 30/30/30 29/29/29 28/28/28
f 33/33/33 32/32/32 31/31/31
f 36/36/36 35/35/35 34/34/34
f 39/39/39 38/38/38 37/37/37
f 42/42/42 41/41/41 40/40/40
f 45/45/45 44/44/44 43/43/43
f 48/48/48 47/47/47 46/46/46
f 51/51/51 50/50/50 49/49/49
f 54/54/54 53/53/53 52/52/52
f 57/57/57 56/56/56 55/55/55
f 60/60/60 59/59/59 58/58/58
f 63/63/63 62/62/62 61/61/61
f 66/66/66 65/65/65 64/64/64
f 69/69/69 68/68/68 67/67/67
f 72/72/72 71/71/71 70/70/70
f 75/75/75 74/74/74 73/73/73
f 78/78/78 77/77/77 76/76/76
f 81/81/81 80/80/80 79/79/79
f 84/84/84 83/83/83 82/82/82
f 87/87/87 86/86/86 85/85/85
f 90/90/90 89/89/89 88/88/88
f 93/93/93 92/92/92 91/91/91
