# VPXTOOL table OBJ file
# VPXTOOL OBJ file
# numVerts: 109 numFaces: 525
o LM_GI_lst_RSling1
v 5.47341251373291 -221.0226287841797 -28.687910079956055
v 5.379988670349121 -220.29347229003906 -31.43145179748535
v 8.283306121826172 -220.3286895751953 -28.687911987304688
v 5.7287821769714355 -223.01467895507813 -26.67949676513672
v 8.979236602783203 -222.21263122558594 -26.67949676513672
v 6.07757568359375 -225.7360076904297 -25.944366455078125
v 9.929985046386719 -224.7862091064453 -25.944366455078125
v 8.028544425964355 -219.63905334472656 -31.43145179748535
v 10.514325141906738 -218.39793395996094 -31.43145179748535
v 10.923689842224121 -219.0084991455078 -28.687910079956055
v 12.042125701904297 -220.67677307128906 -26.67949867248535
v 13.569926261901855 -222.9554901123047 -25.944366455078125
v 10.880677223205566 -227.35977172851563 -26.679492950439453
v 15.097726821899414 -225.2343292236328 -26.679492950439453
v 11.57666301727295 -229.24371337890625 -28.687902450561523
v 16.216163635253906 -226.90248107910156 -28.687902450561523
v 11.83137035369873 -229.933349609375 -31.431446075439453
v 12.504773139953613 -216.69024658203125 -31.43145179748535
v 13.062665939331055 -217.16896057128906 -28.687910079956055
v 14.586821556091309 -218.47689819335938 -26.67949676513672
v 16.66887092590332 -220.263427734375 -25.944364547729492
v 18.750919342041016 -222.05007934570313 -26.679492950439453
v 20.275131225585938 -223.35801696777344 -28.687902450561523
v 16.625526428222656 -227.5130615234375 -31.431446075439453
v 14.661638259887695 -214.57749938964844 -28.687910079956055
v 16.45226287841797 -215.4871063232422 -26.67949676513672
v 18.898344039916992 -216.7296600341797 -25.944364547729492
v 21.344369888305664 -217.97222900390625 -26.67949104309082
v 23.134994506835938 -218.88172912597656 -28.687902450561523
v 20.833024978637695 -223.83673095703125 -31.431446075439453
v 23.79039764404297 -219.2146759033203 -31.431446075439453
v 14.00623607635498 -214.2445526123047 -31.43145179748535
v 18.49958038330078 -204.83457946777344 -28.687910079956055
v 20.368886947631836 -205.5690460205078 -26.67949676513672
v 22.922361373901367 -206.57241821289063 -25.944364547729492
v 25.47583770751953 -207.57579040527344 -26.679492950439453
v 27.345142364501953 -208.3102569580078 -28.687902450561523
v 28.029367446899414 -208.5791473388672 -31.431446075439453
v 17.815410614013672 -204.565673828125 -31.43145179748535
v 26.651365280151367 -183.9165802001953 -28.687910079956055
v 28.52304458618164 -184.6449737548828 -26.67949676513672
v 31.079832077026367 -185.63995361328125 -25.944364547729492
v 33.636566162109375 -186.63491821289063 -26.679492950439453
v 35.50824737548828 -187.3633270263672 -28.687902450561523
v 36.193355560302734 -187.62989807128906 -31.431446075439453
v 25.966257095336914 -183.64999389648438 -31.43145179748535
v 36.894309997558594 -157.55813598632813 -28.687910079956055
v 38.766265869140625 -158.28585815429688 -26.67949676513672
v 41.32338333129883 -159.2799530029297 -25.944364547729492
v 43.8805046081543 -160.2740478515625 -26.679492950439453
v 45.752403259277344 -161.0017852783203 -28.687902450561523
v 46.4376220703125 -161.2681427001953 -31.431446075439453
v 36.209144592285156 -157.29177856445313 -31.43145179748535
v 47.17838668823242 -131.1140899658203 -28.687911987304688
v 49.049625396728516 -131.84359741210938 -26.67949867248535
v 51.60580825805664 -132.84011840820313 -25.944366455078125
v 54.1619873046875 -133.83663940429688 -26.679492950439453
v 56.033226013183594 -134.56614685058594 -28.687902450561523
v 56.71816635131836 -134.8330535888672 -31.431446075439453
v 46.493499755859375 -130.84707641601563 -31.43145179748535
v 55.460479736328125 -109.92134857177734 -28.687910079956055
v 57.32835006713867 -110.6595687866211 -26.67949676513672
v 59.87989044189453 -111.66790771484375 -25.944364547729492
v 62.43137741088867 -112.6762466430664 -26.679492950439453
v 64.29924774169922 -113.41436004638672 -28.687902450561523
v 64.98292541503906 -113.68458557128906 -31.431446075439453
v 54.77680587768555 -109.65122985839844 -31.43145179748535
v 59.00522994995117 -99.06938171386719 -31.43145179748535
v 59.687522888183594 -99.3429183959961 -28.687910079956055
v 61.5517463684082 -100.09019470214844 -26.67949676513672
v 64.09832000732422 -101.11112213134766 -25.944364547729492
v 66.64483642578125 -102.1319351196289 -26.679492950439453
v 68.50906372070313 -102.87921905517578 -28.687902450561523
v 63.00053405761719 -89.13453674316406 -31.43145179748535
v 63.683712005615234 -89.40597534179688 -28.687911987304688
v 65.55008697509766 -90.14784240722656 -26.67949676513672
v 68.09964752197266 -91.16114807128906 -25.944366455078125
v 70.64920043945313 -92.17445373535156 -26.679492950439453
v 72.51557922363281 -92.91632843017578 -28.687902450561523
v 69.19141387939453 -103.15275573730469 -31.431446075439453
v 71.71755981445313 -68.95222473144531 -28.687911987304688
v 73.58857727050781 -69.68216705322266 -26.67949676513672
v 76.14447784423828 -70.67945861816406 -25.944366455078125
v 78.70038604736328 -71.67664337158203 -26.679492950439453
v 80.57140350341797 -72.40669250488281 -28.687902450561523
v 73.1987533569336 -93.18787384033203 -31.431446075439453
v 81.25623321533203 -72.67393493652344 -31.431446075439453
v 71.03272247314453 -68.68498229980469 -31.43145179748535
v 81.0590591430664 -42.8152961730957 -31.43145179748535
v 81.74526977539063 -43.079002380371094 -28.687911987304688
v 83.62004089355469 -43.79933547973633 -26.67949676513672
v 86.1810302734375 -44.78337860107422 -25.944366455078125
v 88.7420654296875 -45.767311096191406 -26.679492950439453
v 90.61683654785156 -46.487648010253906 -28.687902450561523
v 91.01897430419922 -16.666330337524414 -31.43145179748535
v 91.70738983154297 -16.924074172973633 -28.687911987304688
v 93.58829498291016 -17.628398895263672 -26.67949676513672
v 96.1576156616211 -18.590354919433594 -25.944366455078125
v 98.72698974609375 -19.55242156982422 -26.679492950439453
v 100.60789489746094 -20.256633758544922 -28.687902450561523
v 91.30305480957031 -46.7513542175293 -31.431446075439453
v 98.83654022216797 4.574676990509033 -31.43145179748535
v 99.53131103515625 4.334491729736328 -28.687911987304688
v 101.42955017089844 3.678316116333008 -26.67949676513672
v 104.02249908447266 2.7819550037384033 -25.944366455078125
v 106.6154556274414 1.8855938911437988 -26.679492950439453
v 108.51364135742188 1.2293078899383545 -28.687902450561523
v 101.29631042480469 -20.514488220214844 -31.431446075439453
v 109.20846557617188 0.9891223907470703 -31.431446075439453
vt 0.8960965275764465 0.6707583069801331
vt 0.8963623046875 0.6708347797393799
vt 0.8943673372268677 0.6709483861923218
vt 0.8957589864730835 0.6703035235404968
vt 0.8937604427337646 0.670522928237915
vt 0.8954399824142456 0.6695927381515503
vt 0.8930725455284119 0.6698523759841919
vt 0.8947305679321289 0.6710141897201538
vt 0.8932106494903564 0.6713544726371765
vt 0.8927545547485352 0.6713098883628845
vt 0.8918914198875427 0.6709431409835815
vt 0.8908523917198181 0.6703528165817261
vt 0.8924870491027832 0.6691156625747681
vt 0.8899148106575012 0.669696569442749
vt 0.8921599388122559 0.6685091257095337
vt 0.8893282413482666 0.6691492795944214
vt 0.8921788930892944 0.6681948304176331
vt 0.8920064568519592 0.6718229055404663
vt 0.891461968421936 0.67181396484375
vt 0.8903549909591675 0.6715452671051025
vt 0.8889822363853455 0.6710891127586365
vt 0.8877097964286804 0.6705673933029175
vt 0.8868767619132996 0.6701189875602722
vt 0.8892500400543213 0.6688570976257324
vt 0.8905177116394043 0.6725242137908936
vt 0.8892533779144287 0.6723639965057373
vt 0.8876649737358093 0.6720563173294067
vt 0.8861761093139648 0.6716834306716919
vt 0.8851836919784546 0.6713446378707886
vt 0.8867062926292419 0.6698638200759888
vt 0.8849535584449768 0.6711305379867554
vt 0.8911192417144775 0.6724939346313477
vt 0.8883132934570313 0.6751981377601624
vt 0.8870038986206055 0.6750834584236145
vt 0.8853524923324585 0.674839973449707
vt 0.8837993144989014 0.6745327711105347
vt 0.8827584981918335 0.6742436289787292
vt 0.8825088739395142 0.6740497946739197
vt 0.8889297842979431 0.6751530170440674
vt 0.8836206197738647 0.6809567213058472
vt 0.8823109865188599 0.6808387041091919
vt 0.8806559443473816 0.6805949211120605
vt 0.8790967464447021 0.6802903413772583
vt 0.8780490756034851 0.680006206035614
vt 0.8777937293052673 0.6798184514045715
vt 0.8842338919639587 0.6809171438217163
vt 0.8776970505714417 0.6882480382919312
vt 0.8763887286186218 0.6881238222122192
vt 0.8747313022613525 0.68787682056427
vt 0.8731666803359985 0.6875729560852051
vt 0.872111976146698 0.687293291091919
vt 0.8718498349189758 0.6871124505996704
vt 0.8783057332038879 0.6882160902023315
vt 0.8717173337936401 0.6956024169921875
vt 0.8704109191894531 0.6954712271690369
vt 0.8687518835067749 0.6952200531959534
vt 0.8671824932098389 0.6949160099029541
vt 0.866121232509613 0.6946401596069336
vt 0.865852415561676 0.6944661140441895
vt 0.8723210692405701 0.6955784559249878
vt 0.8668765425682068 0.701525092124939
vt 0.8655733466148376 0.7013861536979675
vt 0.8639152646064758 0.7011288404464722
vt 0.8623443245887756 0.7008219361305237
vt 0.8612794280052185 0.7005470991134644
vt 0.8610058426856995 0.700377881526947
vt 0.8674756288528442 0.7015082836151123
vt 0.8649902939796448 0.7044782638549805
vt 0.8643940091133118 0.7044910192489624
vt 0.8630936145782471 0.7043468356132507
vt 0.8614375591278076 0.7040846347808838
vt 0.8598674535751343 0.7037744522094727
vt 0.8588018417358398 0.7034987807273865
vt 0.8626359105110168 0.7072726488113403
vt 0.8620410561561584 0.7072829008102417
vt 0.860740065574646 0.7071378231048584
vt 0.859081506729126 0.7068763971328735
vt 0.8575076460838318 0.7065684199333191
vt 0.8564380407333374 0.7062959671020508
vt 0.8585262298583984 0.703331470489502
vt 0.8573035597801208 0.7130476236343384
vt 0.856001079082489 0.7129006385803223
vt 0.8543370962142944 0.7126410007476807
vt 0.8527553081512451 0.7123379707336426
vt 0.851677417755127 0.7120722532272339
vt 0.8561591506004333 0.7061318755149841
vt 0.8513920903205872 0.7119149565696716
vt 0.8578954935073853 0.7130423188209534
vt 0.851955235004425 0.7203761339187622
vt 0.8513672947883606 0.7203744649887085
vt 0.8500641584396362 0.7202236652374268
vt 0.8483949899673462 0.7199642658233643
vt 0.8468049168586731 0.71966552734375
vt 0.84571772813797 0.7194069623947144
vt 0.8460292816162109 0.7278289198875427
vt 0.8454447984695435 0.727820873260498
vt 0.8441395163536072 0.7276679277420044
vt 0.8424631953239441 0.7274112701416016
vt 0.8408627510070801 0.7271193265914917
vt 0.8397648334503174 0.7268698215484619
vt 0.8454247713088989 0.7192577123641968
vt 0.8413652777671814 0.7339125871658325
vt 0.8407807946205139 0.7339029908180237
vt 0.8394663333892822 0.7337583303451538
vt 0.8377739787101746 0.7335175275802612
vt 0.8361550569534302 0.7332448959350586
vt 0.8350409865379333 0.7330129146575928
vt 0.8394635915756226 0.7267296314239502
vt 0.8347304463386536 0.7328838109970093
vn -0.20677480101585388 0.8374441266059875 0.5058967471122742
vn -0.23173998296260834 0.9381362199783325 0.2572876214981079
vn -0.2976329028606415 0.8083138465881348 0.507979691028595
vn -0.11689930409193039 0.4738238751888275 0.8728261590003967
vn -0.16814452409744263 0.4560931622982025 0.8739030361175537
vn -0.02750900387763977 0.11157507449388504 0.9933751821517944
vn 0.006411419715732336 -0.017263703048229218 0.999830424785614
vn -0.33359792828559875 0.9064845442771912 0.2588402032852173
vn -0.5342792868614197 0.8046707510948181 0.2589414417743683
vn -0.4766961634159088 0.716740608215332 0.5089632868766785
vn -0.2689879536628723 0.4030015170574188 0.8747772574424744
vn 0.011460823938250542 -0.016880253329873085 0.9997918009757996
vn 0.1952558308839798 -0.4169420599937439 0.8877130150794983
vn 0.28743094205856323 -0.4274807572364807 0.8571135401725769
vn 0.3927229940891266 -0.7784926295280457 0.48960989713668823
vn 0.48641303181648254 -0.7225646376609802 0.4912257194519043
vn 0.4354093372821808 -0.8627137541770935 0.25718390941619873
vn -0.7346324324607849 0.6268189549446106 0.25964051485061646
vn -0.6531403064727783 0.5579714775085449 0.5119331479072571
vn -0.365164577960968 0.3127216398715973 0.8768466114997864
vn 0.01805359311401844 -0.015635769814252853 0.9997146725654602
vn 0.39193016290664673 -0.3372386395931244 0.8559560775756836
vn 0.660504162311554 -0.5686551332473755 0.4902708828449249
vn 0.5395632982254028 -0.8012068271636963 0.2587258815765381
vn -0.7712594270706177 0.3858112394809723 0.5062693357467651
vn -0.4367656707763672 0.21981443464756012 0.8723058104515076
vn 0.013334577903151512 -0.007034905720502138 0.9998863935470581
vn 0.45546749234199524 -0.23273874819278717 0.8592915534973145
vn 0.774178683757782 -0.39671358466148376 0.49321964383125305
vn 0.7319578528404236 -0.6302788257598877 0.25881725549697876
vn 0.8595015406608582 -0.4408700168132782 0.2586321532726288
vn -0.8642987012863159 0.43122708797454834 0.2589032053947449
vn -0.8063163161277771 0.31585243344306946 0.5000911951065063
vn -0.465324729681015 0.18240803480148315 0.8661410212516785
vn 0.0003672591701615602 -0.00021056094556115568 0.9999999403953552
vn 0.46570730209350586 -0.1832125037908554 0.8657655119895935
vn 0.8059682250022888 -0.31740644574165344 0.4996682405471802
vn 0.8987046480178833 -0.35408663749694824 0.2587520182132721
vn -0.8994137048721313 0.3522348403930664 0.25881555676460266
vn -0.8070488572120667 0.3140641450881958 0.5000360012054443
vn -0.46590524911880493 0.18130801618099213 0.8660598397254944
vn 0.00007465264206985012 -0.000029321610782062635 1
vn 0.4660162627696991 -0.18135176599025726 0.865990936756134
vn 0.8070846199989319 -0.3140794336795807 0.49996843934059143
vn 0.9001656174659729 -0.3503023087978363 0.25882455706596375
vn -0.9001668691635132 0.3503006100654602 0.2588226795196533
vn -0.8071819543838501 0.31379273533821106 0.49999144673347473
vn -0.46603646874427795 0.1811719834804535 0.8660178184509277
vn -0.000020525185391306877 0.000008078197424765676 1
vn 0.46601107716560364 -0.18116238713264465 0.8660333752632141
vn 0.8071712851524353 -0.31378844380378723 0.5000113248825073
vn 0.9002867341041565 -0.3499865233898163 0.2588302791118622
vn -0.9002903699874878 0.3499889373779297 0.2588144838809967
vn -0.8069119453430176 0.3145742118358612 0.4999360740184784
vn -0.46594637632369995 0.1816491037607193 0.865966260433197
vn -0.00012683334352914244 0.00004987707143300213 1
vn 0.4657558500766754 -0.18157348036766052 0.8660845756530762
vn 0.806847870349884 -0.3145477771759033 0.5000561475753784
vn 0.899957001209259 -0.35084637999534607 0.2588129937648773
vn -0.8999575972557068 0.3508478105068207 0.258808970451355
vn -0.805557906627655 0.31834676861763 0.4997316300868988
vn -0.4654355049133301 0.18393421173095703 0.8657586574554443
vn -0.000579033512622118 0.000228288714424707 0.9999997615814209
vn 0.4645698070526123 -0.1835929900407791 0.8662958145141602
vn 0.8052667379379272 -0.3182332515716553 0.5002730488777161
vn 0.898320734500885 -0.35500776767730713 0.2588232159614563
vn -0.8983250260353088 0.3550073802471161 0.25880852341651917
vn -0.8965741395950317 0.35940998792648315 0.25880366563796997
vn -0.8038879036903381 0.32225528359413147 0.4999157190322876
vn -0.46422329545021057 0.18609386682510376 0.8659479022026062
vn -0.00016456616867799312 0.00006644851964665577 1
vn 0.4639734923839569 -0.18599319458007813 0.8661034107208252
vn 0.8038002252578735 -0.3222198784351349 0.5000795125961304
vn -0.8976243734359741 0.356769859790802 0.2588159143924713
vn -0.8046337962150574 0.31980958580970764 0.5002861618995667
vn -0.46418091654777527 0.1844925880432129 0.8663132190704346
vn 0.0006158031756058335 -0.00024472936638630927 0.9999998211860657
vn 0.4651049077510834 -0.18485869467258453 0.8657392859458923
vn 0.804938793182373 -0.31992751359939575 0.49971985816955566
vn 0.8965699672698975 -0.35940805077552795 0.2588207423686981
vn -0.806705892086029 0.31475508213043213 0.5001547932624817
vn -0.4655447006225586 0.18164286017417908 0.8661836385726929
vn 0.00034699225216172636 -0.00013552095333579928 1
vn 0.46605947613716125 -0.18184436857700348 0.8658643960952759
vn 0.806875467300415 -0.31482207775115967 0.49983900785446167
vn 0.897622287273407 -0.35676512122154236 0.25882992148399353
vn 0.8998560309410095 -0.35110071301460266 0.2588192820549011
vn -0.8998563885688782 0.35109999775886536 0.2588190734386444
vn -0.9016588926315308 0.34644225239753723 0.2588222622871399
vn -0.8082944750785828 0.3105688691139221 0.5002070069313049
vn -0.46639975905418396 0.1792033463716507 0.8662317991256714
vn 0.00044635424274019897 -0.00017133179062511772 0.9999999403953552
vn 0.4670703411102295 -0.17946001887321472 0.865817129611969
vn 0.8085188865661621 -0.31065303087234497 0.4997918903827667
vn -0.9045907855033875 0.3387252390384674 0.2588062286376953
vn -0.810815155506134 0.30361002683639526 0.5003995299339294
vn -0.4675959348678589 0.17508956789970398 0.8664281368255615
vn 0.0008674303535372019 -0.000323383865179494 0.9999995827674866
vn 0.4689086973667145 -0.17556703090667725 0.8656216859817505
vn 0.8112624287605286 -0.3037428557872772 0.49959343671798706
vn 0.9016599059104919 -0.3464401662349701 0.25882163643836975
vn -0.9064952731132507 0.33362314105033875 0.25877001881599426
vn -0.8119986057281494 0.29883909225463867 0.5013516545295715
vn -0.46699365973472595 0.17185963690280914 0.8673991560935974
vn 0.003057971829548478 -0.001121871406212449 0.9999947547912598
vn 0.4715878367424011 -0.17352300882339478 0.8645777702331543
vn 0.8135458827018738 -0.2993415594100952 0.4985356628894806
vn 0.9046021699905396 -0.33868691325187683 0.2588169276714325
vn 0.9065186381340027 -0.333548367023468 0.2587844133377075
f 3/3/3 2/2/2 1/1/1
f 5/5/5 1/1/1 4/4/4
f 7/7/7 4/4/4 6/6/6
f 3/3/3 9/9/9 8/8/8
f 5/5/5 10/10/10 3/3/3
f 7/7/7 11/11/11 5/5/5
f 13/13/13 12/12/12 7/7/7
f 15/15/15 14/14/14 13/13/13
f 17/17/17 16/16/16 15/15/15
f 10/10/10 18/18/18 9/9/9
f 11/11/11 19/19/19 10/10/10
f 12/12/12 20/20/20 11/11/11
f 14/14/14 21/21/21 12/12/12
f 16/16/16 22/22/22 14/14/14
f 24/24/24 23/23/23 16/16/16
f 25/25/25 18/18/18 19/19/19
f 26/26/26 19/19/19 20/20/20
f 27/27/27 20/20/20 21/21/21
f 28/28/28 21/21/21 22/22/22
f 29/29/29 22/22/22 23/23/23
f 31/31/31 23/23/23 30/30/30
f 33/33/33 32/32/32 25/25/25
f 34/34/34 25/25/25 26/26/26
f 35/35/35 26/26/26 27/27/27
f 36/36/36 27/27/27 28/28/28
f 37/37/37 28/28/28 29/29/29
f 38/38/38 29/29/29 31/31/31
f 40/40/40 39/39/39 33/33/33
f 41/41/41 33/33/33 34/34/34
f 42/42/42 34/34/34 35/35/35
f 43/43/43 35/35/35 36/36/36
f 44/44/44 36/36/36 37/37/37
f 45/45/45 37/37/37 38/38/38
f 47/47/47 46/46/46 40/40/40
f 48/48/48 40/40/40 41/41/41
f 49/49/49 41/41/41 42/42/42
f 50/50/50 42/42/42 43/43/43
f 51/51/51 43/43/43 44/44/44
f 52/52/52 44/44/44 45/45/45
f 54/54/54 53/53/53 47/47/47
f 55/55/55 47/47/47 48/48/48
f 56/56/56 48/48/48 49/49/49
f 57/57/57 49/49/49 50/50/50
f 58/58/58 50/50/50 51/51/51
f 59/59/59 51/51/51 52/52/52
f 61/61/61 60/60/60 54/54/54
f 62/62/62 54/54/54 55/55/55
f 63/63/63 55/55/55 56/56/56
f 64/64/64 56/56/56 57/57/57
f 65/65/65 57/57/57 58/58/58
f 66/66/66 58/58/58 59/59/59
f 61/61/61 68/68/68 67/67/67
f 62/62/62 69/69/69 61/61/61
f 63/63/63 70/70/70 62/62/62
f 64/64/64 71/71/71 63/63/63
f 65/65/65 72/72/72 64/64/64
f 66/66/66 73/73/73 65/65/65
f 69/69/69 74/74/74 68/68/68
f 70/70/70 75/75/75 69/69/69
f 71/71/71 76/76/76 70/70/70
f 72/72/72 77/77/77 71/71/71
f 73/73/73 78/78/78 72/72/72
f 80/80/80 79/79/79 73/73/73
f 81/81/81 74/74/74 75/75/75
f 82/82/82 75/75/75 76/76/76
f 83/83/83 76/76/76 77/77/77
f 84/84/84 77/77/77 78/78/78
f 85/85/85 78/78/78 79/79/79
f 87/87/87 79/79/79 86/86/86
f 81/81/81 89/89/89 88/88/88
f 82/82/82 90/90/90 81/81/81
f 83/83/83 91/91/91 82/82/82
f 84/84/84 92/92/92 83/83/83
f 85/85/85 93/93/93 84/84/84
f 87/87/87 94/94/94 85/85/85
f 90/90/90 95/95/95 89/89/89
f 91/91/91 96/96/96 90/90/90
f 92/92/92 97/97/97 91/91/91
f 93/93/93 98/98/98 92/92/92
f 94/94/94 99/99/99 93/93/93
f 101/101/101 100/100/100 94/94/94
f 96/96/96 102/102/102 95/95/95
f 97/97/97 103/103/103 96/96/96
f 98/98/98 104/104/104 97/97/97
f 99/99/99 105/105/105 98/98/98
f 100/100/100 106/106/106 99/99/99
f 108/108/108 107/107/107 100/100/100
f 3/3/3 8/8/8 2/2/2
f 5/5/5 3/3/3 1/1/1
f 7/7/7 5/5/5 4/4/4
f 13/13/13 7/7/7 6/6/6
f 3/3/3 10/10/10 9/9/9
f 5/5/5 11/11/11 10/10/10
f 7/7/7 12/12/12 11/11/11
f 13/13/13 14/14/14 12/12/12
f 15/15/15 16/16/16 14/14/14
f 17/17/17 24/24/24 16/16/16
f 10/10/10 19/19/19 18/18/18
f 11/11/11 20/20/20 19/19/19
f 12/12/12 21/21/21 20/20/20
f 14/14/14 22/22/22 21/21/21
f 16/16/16 23/23/23 22/22/22
f 24/24/24 30/30/30 23/23/23
f 25/25/25 32/32/32 18/18/18
f 26/26/26 25/25/25 19/19/19
f 27/27/27 26/26/26 20/20/20
f 28/28/28 27/27/27 21/21/21
f 29/29/29 28/28/28 22/22/22
f 31/31/31 29/29/29 23/23/23
f 33/33/33 39/39/39 32/32/32
f 34/34/34 33/33/33 25/25/25
f 35/35/35 34/34/34 26/26/26
f 36/36/36 35/35/35 27/27/27
f 37/37/37 36/36/36 28/28/28
f 38/38/38 37/37/37 29/29/29
f 40/40/40 46/46/46 39/39/39
f 41/41/41 40/40/40 33/33/33
f 42/42/42 41/41/41 34/34/34
f 43/43/43 42/42/42 35/35/35
f 44/44/44 43/43/43 36/36/36
f 45/45/45 44/44/44 37/37/37
f 47/47/47 53/53/53 46/46/46
f 48/48/48 47/47/47 40/40/40
f 49/49/49 48/48/48 41/41/41
f 50/50/50 49/49/49 42/42/42
f 51/51/51 50/50/50 43/43/43
f 52/52/52 51/51/51 44/44/44
f 54/54/54 60/60/60 53/53/53
f 55/55/55 54/54/54 47/47/47
f 56/56/56 55/55/55 48/48/48
f 57/57/57 56/56/56 49/49/49
f 58/58/58 57/57/57 50/50/50
f 59/59/59 58/58/58 51/51/51
f 61/61/61 67/67/67 60/60/60
f 62/62/62 61/61/61 54/54/54
f 63/63/63 62/62/62 55/55/55
f 64/64/64 63/63/63 56/56/56
f 65/65/65 64/64/64 57/57/57
f 66/66/66 65/65/65 58/58/58
f 61/61/61 69/69/69 68/68/68
f 62/62/62 70/70/70 69/69/69
f 63/63/63 71/71/71 70/70/70
f 64/64/64 72/72/72 71/71/71
f 65/65/65 73/73/73 72/72/72
f 66/66/66 80/80/80 73/73/73
f 69/69/69 75/75/75 74/74/74
f 70/70/70 76/76/76 75/75/75
f 71/71/71 77/77/77 76/76/76
f 72/72/72 78/78/78 77/77/77
f 73/73/73 79/79/79 78/78/78
f 80/80/80 86/86/86 79/79/79
f 81/81/81 88/88/88 74/74/74
f 82/82/82 81/81/81 75/75/75
f 83/83/83 82/82/82 76/76/76
f 84/84/84 83/83/83 77/77/77
f 85/85/85 84/84/84 78/78/78
f 87/87/87 85/85/85 79/79/79
f 81/81/81 90/90/90 89/89/89
f 82/82/82 91/91/91 90/90/90
f 83/83/83 92/92/92 91/91/91
f 84/84/84 93/93/93 92/92/92
f 85/85/85 94/94/94 93/93/93
f 87/87/87 101/101/101 94/94/94
f 90/90/90 96/96/96 95/95/95
f 91/91/91 97/97/97 96/96/96
f 92/92/92 98/98/98 97/97/97
f 93/93/93 99/99/99 98/98/98
f 94/94/94 100/100/100 99/99/99
f 101/101/101 108/108/108 100/100/100
f 96/96/96 103/103/103 102/102/102
f 97/97/97 104/104/104 103/103/103
f 98/98/98 105/105/105 104/104/104
f 99/99/99 106/106/106 105/105/105
f 100/100/100 107/107/107 106/106/106
f 108/108/108 109/109/109 107/107/107
