# VPXTOOL table OBJ file
# VPXTOOL OBJ file
# numVerts: 108 numFaces: 108
o BM_TriggerLane5
v -1188.814453125 82574.4921875 -24210.9921875
v 1189.1536865234375 82574.4921875 -24210.9921875
v -1188.814453125 86147.828125 -18924.248046875
v 2377.85498046875 -38585.75390625 -67532.7578125
v 2377.85498046875 -32445.486328125 -69427.109375
v 1188.927490234375 -39552.81640625 -69351.0078125
v 1188.927490234375 -43453.640625 -63091.3671875
v 1188.814453125 -86148.734375 54005.30078125
v 2377.85498046875 -41728.484375 -62181.09765625
v -1189.1536865234375 -39552.81640625 -69351.0078125
v -1189.1536865234375 -43453.640625 -63091.3671875
v 1188.927490234375 -39552.81640625 -69351.0078125
v -1189.1536865234375 -86148.734375 54005.30078125
v 1188.814453125 -86148.734375 54005.30078125
v -1189.1536865234375 -43453.640625 -63091.3671875
v -1188.814453125 82574.4921875 -24210.9921875
v -1189.1536865234375 -32445.486328125 -71482.140625
v 1189.1536865234375 82574.4921875 -24210.9921875
v 2378.081298828125 81210.2890625 -22697.25390625
v 1189.1536865234375 82574.4921875 -24210.9921875
v 2377.85498046875 -32445.486328125 -69427.109375
v 2378.081298828125 84168.015625 -18356.50390625
v 1189.1536865234375 86147.828125 -18924.248046875
v 2378.081298828125 81210.2890625 -22697.25390625
v -1188.927490234375 75179.9296875 54005.30078125
v -1188.814453125 82188.65625 -17788.98046875
v -2377.85498046875 77194.125 54005.30078125
v -1188.814453125 82188.65625 -17788.98046875
v -1188.927490234375 75179.9296875 54005.30078125
v 1189.1536865234375 82188.65625 -17788.98046875
v -2377.85498046875 81210.2890625 -22697.25390625
v -2377.968017578125 -32445.486328125 -69427.109375
v -1188.814453125 82574.4921875 -24210.9921875
v -1189.1536865234375 -32445.486328125 -71482.140625
v -1189.1536865234375 -39552.81640625 -69351.0078125
v 1188.927490234375 -32445.486328125 -71482.140625
v -2377.85498046875 77194.125 54005.30078125
v -2377.85498046875 84168.015625 -18356.50390625
v -1188.814453125 79208.3125 54005.30078125
v -2378.081298828125 -84134.3203125 54005.30078125
v -1189.1536865234375 -86148.734375 54005.30078125
v -2378.081298828125 -41728.484375 -62181.09765625
v -2377.85498046875 84168.015625 -18356.50390625
v -2377.85498046875 81210.2890625 -22697.25390625
v -1188.814453125 86147.828125 -18924.248046875
v -2378.081298828125 -38585.75390625 -67532.7578125
v -1189.1536865234375 -39552.81640625 -69351.0078125
v -2377.968017578125 -32445.486328125 -69427.109375
v 2377.85498046875 -41728.484375 -62181.09765625
v 2377.85498046875 -38585.75390625 -67532.7578125
v 1188.927490234375 -43453.640625 -63091.3671875
v -2378.081298828125 -41728.484375 -62181.09765625
v -1189.1536865234375 -43453.640625 -63091.3671875
v -2378.081298828125 -38585.75390625 -67532.7578125
v 1189.1536865234375 82574.4921875 -24210.9921875
v 1189.1536865234375 86147.828125 -18924.248046875
v -1188.814453125 86147.828125 -18924.248046875
v 2377.85498046875 -32445.486328125 -69427.109375
v 1188.927490234375 -32445.486328125 -71482.140625
v 1188.927490234375 -39552.81640625 -69351.0078125
v 1188.814453125 -86148.734375 54005.30078125
v 2377.85498046875 -84134.3203125 54005.30078125
v 2377.85498046875 -41728.484375 -62181.09765625
v -1189.1536865234375 -43453.640625 -63091.3671875
v 1188.927490234375 -43453.640625 -63091.3671875
v 1188.927490234375 -39552.81640625 -69351.0078125
v 1188.814453125 -86148.734375 54005.30078125
v 1188.927490234375 -43453.640625 -63091.3671875
v -1189.1536865234375 -43453.640625 -63091.3671875
v -1189.1536865234375 -32445.486328125 -71482.140625
v 1188.927490234375 -32445.486328125 -71482.140625
v 1189.1536865234375 82574.4921875 -24210.9921875
v 1189.1536865234375 82574.4921875 -24210.9921875
v 1188.927490234375 -32445.486328125 -71482.140625
v 2377.85498046875 -32445.486328125 -69427.109375
v 1189.1536865234375 86147.828125 -18924.248046875
v 1189.1536865234375 82574.4921875 -24210.9921875
v 2378.081298828125 81210.2890625 -22697.25390625
v -1188.814453125 82188.65625 -17788.98046875
v -2377.85498046875 84168.015625 -18356.50390625
v -2377.85498046875 77194.125 54005.30078125
v -1188.927490234375 75179.9296875 54005.30078125
v 1189.1536865234375 75179.9296875 54005.30078125
v 1189.1536865234375 82188.65625 -17788.98046875
v -2377.968017578125 -32445.486328125 -69427.109375
v -1189.1536865234375 -32445.486328125 -71482.140625
v -1188.814453125 82574.4921875 -24210.9921875
v -1189.1536865234375 -39552.81640625 -69351.0078125
v 1188.927490234375 -39552.81640625 -69351.0078125
v 1188.927490234375 -32445.486328125 -71482.140625
v -2377.85498046875 84168.015625 -18356.50390625
v -1188.814453125 86147.828125 -18924.248046875
v -1188.814453125 79208.3125 54005.30078125
v -1189.1536865234375 -86148.734375 54005.30078125
v -1189.1536865234375 -43453.640625 -63091.3671875
v -2378.081298828125 -41728.484375 -62181.09765625
v -2377.85498046875 81210.2890625 -22697.25390625
v -1188.814453125 82574.4921875 -24210.9921875
v -1188.814453125 86147.828125 -18924.248046875
v -1189.1536865234375 -39552.81640625 -69351.0078125
v -1189.1536865234375 -32445.486328125 -71482.140625
v -2377.968017578125 -32445.486328125 -69427.109375
v 2377.85498046875 -38585.75390625 -67532.7578125
v 1188.927490234375 -39552.81640625 -69351.0078125
v 1188.927490234375 -43453.640625 -63091.3671875
v -1189.1536865234375 -43453.640625 -63091.3671875
v -1189.1536865234375 -39552.81640625 -69351.0078125
v -2378.081298828125 -38585.75390625 -67532.7578125
vt 0.0037770371418446302 0.1809559464454651
vt 0.004590500146150589 0.1809559464454651
vt 0.0036800422240048647 0.18139469623565674
vt 0.005412293132394552 0.16664719581604004
vt 0.005479732993990183 0.16734421253204346
vt 0.00503899622708559 0.16652119159698486
vt 0.004887494258582592 0.166118323802948
vt 0.002256044652312994 0.16219794750213623
vt 0.005283156875520945 0.1663249135017395
vt 0.0042219581082463264 0.16652119159698486
vt 0.004071672912687063 0.166118323802948
vt 0.00503899622708559 0.16652119159698486
vt 0.0014610675862058997 0.16219794750213623
vt 0.002256044652312994 0.16219794750213623
vt 0.004071672912687063 0.166118323802948
vt 0.0037770371418446302 0.1809559464454651
vt 0.004297804087400436 0.16732865571975708
vt 0.004590500146150589 0.1809559464454651
vt 0.00495896628126502 0.18080496788024902
vt 0.004590500146150589 0.1809559464454651
vt 0.005479732993990183 0.16734421253204346
vt 0.004878517705947161 0.1811680793762207
vt 0.004492744337767363 0.18139469623565674
vt 0.00495896628126502 0.18080496788024902
vt 0.002114394214004278 0.18047457933425903
vt 0.0036393804475665092 0.18094146251678467
vt 0.0017224590992555022 0.1807042956352234
vt 0.0036393804475665092 0.18094146251678467
vt 0.002114394214004278 0.18047457933425903
vt 0.00445174053311348 0.18094146251678467
vt 0.003332610707730055 0.18080496788024902
vt 0.003845161758363247 0.16734421253204346
vt 0.0037770371418446302 0.1809559464454651
vt 0.004297804087400436 0.16732865571975708
vt 0.0042219581082463264 0.16652119159698486
vt 0.005115451291203499 0.16732865571975708
vt 0.0017224590992555022 0.1807042956352234
vt 0.0032534173224121332 0.1811680793762207
vt 0.00213082623668015 0.18093401193618774
vt 0.0010716429678723216 0.16242468357086182
vt 0.0014610675862058997 0.16219794750213623
vt 0.003651704639196396 0.1663249135017395
vt 0.0032534173224121332 0.1811680793762207
vt 0.003332610707730055 0.18080496788024902
vt 0.0036800422240048647 0.18139469623565674
vt 0.003778786864131689 0.16664719581604004
vt 0.0042219581082463264 0.16652119159698486
vt 0.003845161758363247 0.16734421253204346
vt 0.005283156875520945 0.1663249135017395
vt 0.005412293132394552 0.16664719581604004
vt 0.004887494258582592 0.166118323802948
vt 0.003651704639196396 0.1663249135017395
vt 0.004071672912687063 0.166118323802948
vt 0.003778786864131689 0.16664719581604004
vt 0.004590500146150589 0.1809559464454651
vt 0.004492744337767363 0.18139469623565674
vt 0.0036800422240048647 0.18139469623565674
vt 0.005479732993990183 0.16734421253204346
vt 0.005115451291203499 0.16732865571975708
vt 0.00503899622708559 0.16652119159698486
vt 0.002256044652312994 0.16219794750213623
vt 0.0026617872063070536 0.16242468357086182
vt 0.005283156875520945 0.1663249135017395
vt 0.004071672912687063 0.166118323802948
vt 0.004887494258582592 0.166118323802948
vt 0.00503899622708559 0.16652119159698486
vt 0.002256044652312994 0.16219794750213623
vt 0.004887494258582592 0.166118323802948
vt 0.004071672912687063 0.166118323802948
vt 0.004297804087400436 0.16732865571975708
vt 0.005115451291203499 0.16732865571975708
vt 0.004590500146150589 0.1809559464454651
vt 0.004590500146150589 0.1809559464454651
vt 0.005115451291203499 0.16732865571975708
vt 0.005479732993990183 0.16734421253204346
vt 0.004492744337767363 0.18139469623565674
vt 0.004590500146150589 0.1809559464454651
vt 0.00495896628126502 0.18080496788024902
vt 0.0036393804475665092 0.18094146251678467
vt 0.0032534173224121332 0.1811680793762207
vt 0.0017224590992555022 0.1807042956352234
vt 0.002114394214004278 0.18047457933425903
vt 0.0029146200977265835 0.18047457933425903
vt 0.00445174053311348 0.18094146251678467
vt 0.003845161758363247 0.16734421253204346
vt 0.004297804087400436 0.16732865571975708
vt 0.0037770371418446302 0.1809559464454651
vt 0.0042219581082463264 0.16652119159698486
vt 0.00503899622708559 0.16652119159698486
vt 0.005115451291203499 0.16732865571975708
vt 0.0032534173224121332 0.1811680793762207
vt 0.0036800422240048647 0.18139469623565674
vt 0.00213082623668015 0.18093401193618774
vt 0.0014610675862058997 0.16219794750213623
vt 0.004071672912687063 0.166118323802948
vt 0.003651704639196396 0.1663249135017395
vt 0.003332610707730055 0.18080496788024902
vt 0.0037770371418446302 0.1809559464454651
vt 0.0036800422240048647 0.18139469623565674
vt 0.0042219581082463264 0.16652119159698486
vt 0.004297804087400436 0.16732865571975708
vt 0.003845161758363247 0.16734421253204346
vt 0.005412293132394552 0.16664719581604004
vt 0.00503899622708559 0.16652119159698486
vt 0.004887494258582592 0.166118323802948
vt 0.004071672912687063 0.166118323802948
vt 0.0042219581082463264 0.16652119159698486
vt 0.003778786864131689 0.16664719581604004
vn -0.46171995997428894 0.5610795021057129 -0.687025785446167
vn 0.503359317779541 0.6153262257575989 -0.6066324710845947
vn -0.23248952627182007 0.9708730578422546 -0.05791538953781128
vn 0.9926620125770569 -0.09272114187479019 -0.07762107253074646
vn 0.9508548378944397 0.1969655156135559 -0.2389136552810669
vn 0.438526451587677 -0.45991212129592896 -0.7721239924430847
vn 0.4810012876987457 -0.7878417372703552 -0.384633868932724
vn 0.45696085691452026 -0.8835467100143433 -0.1026255339384079
vn 0.9993847608566284 -0.0329018235206604 -0.012145712971687317
vn -0.45453083515167236 -0.5359704494476318 -0.7114334106445313
vn -0.38005366921424866 -0.9009906649589539 -0.20922499895095825
vn 0.5033422708511353 -0.5790954232215881 -0.641322910785675
vn -0.4321553409099579 -0.8472102880477905 -0.3089929521083832
vn 0.4319888949394226 -0.8453670740127563 -0.31422945857048035
vn -0.34868574142456055 -0.7085410356521606 -0.6135047078132629
vn -0.461712509393692 0.561134397983551 -0.6869860291481018
vn -0.154181569814682 -0.1672847867012024 -0.9737780690193176
vn 0.4647282660007477 0.5566919445991516 -0.6885648965835571
vn 0.9968651533126831 0.04825893044471741 -0.06269752979278564
vn 0.4625263810157776 0.5569514036178589 -0.6898364424705505
vn 0.928260087966919 -0.20429390668869019 -0.31080111861228943
vn 0.9939780235290527 0.10594889521598816 -0.027974262833595276
vn 0.4284096658229828 0.8381807208061218 -0.33751773834228516
vn 0.9599702954292297 -0.02161893993616104 -0.2792664170265198
vn -0.49116796255111694 -0.8669480681419373 -0.08458738029003143
vn -0.515742301940918 -0.8566489219665527 0.012750223278999329
vn -0.9997509717941284 -0.018414467573165894 -0.012607842683792114
vn -0.5483143925666809 -0.8130921721458435 0.19553135335445404
vn -0.41908374428749084 -0.8954435586929321 0.15016528964042664
vn -0.01072491705417633 -0.972676694393158 0.23191601037979126
vn -0.9966763257980347 0.04735604673624039 -0.06628438085317612
vn -0.9288705587387085 -0.20427747070789337 -0.30898261070251465
vn -0.46237289905548096 0.5567749738693237 -0.690081775188446
vn -0.45827311277389526 0.041927918791770935 -0.8878220319747925
vn -0.2107982337474823 -0.7261906862258911 -0.6543785929679871
vn 0.5019491910934448 -0.036770254373550415 -0.8641152381896973
vn -0.999085009098053 -0.042574070394039154 -0.004082329571247101
vn -0.9331970810890198 0.22742822766304016 -0.2782436013221741
vn -0.5173565149307251 0.8527623414993286 0.07168369740247726
vn -0.9922200441360474 -0.11702191829681396 -0.04248896241188049
vn -0.42703524231910706 -0.8471455574035645 -0.3162045478820801
vn -0.9542263746261597 -0.007943212985992432 -0.29898005723953247
vn -0.9937198758125305 0.10887251049280167 -0.025835633277893066
vn -0.9586941003799438 -0.02093404531478882 -0.2836673855781555
vn -0.428264856338501 0.8383867740631104 -0.3371894955635071
vn -0.9935851097106934 -0.08632513135671616 -0.07305285334587097
vn -0.43665769696235657 -0.45889660716056824 -0.7737855315208435
vn -0.9508281350135803 0.19816720485687256 -0.23802439868450165
vn 0.9998571872711182 -0.016893552616238594 -0.0005254633724689484
vn 0.9432852268218994 -0.025445491075515747 -0.33100685477256775
vn 0.4955142140388489 -0.7355055212974548 -0.46205753087997437
vn -0.9999448657035828 -0.010503113269805908 0.00020051002502441406
vn -0.4934380352497101 -0.7380183935165405 -0.46026918292045593
vn -0.9436886310577393 -0.01760038733482361 -0.33036649227142334
vn 0.2678133249282837 0.44927191734313965 -0.8523090481758118
vn 0.45860421657562256 0.8607303500175476 -0.22096456587314606
vn -0.5075365304946899 0.8082870244979858 -0.29846057295799255
vn 0.9931812286376953 -0.07306775450706482 -0.09084120392799377
vn 0.4523087739944458 0.042518794536590576 -0.8908472657203674
vn 0.5529847145080566 -0.665057897567749 -0.5019019842147827
vn 0.4269091486930847 -0.8472369909286499 -0.3161300718784332
vn 0.9922386407852173 -0.11681054532527924 -0.04263705015182495
vn 0.9550368785858154 -0.013824164867401123 -0.2961646616458893
vn -0.4835406243801117 -0.7428295612335205 -0.46302559971809387
vn 0.47626417875289917 -0.7901901602745056 -0.38570958375930786
vn 0.20604382455348969 -0.4314115047454834 -0.8783109188079834
vn 0.37560704350471497 -0.9204187989234924 -0.10839049518108368
vn 0.47626036405563354 -0.7901868224143982 -0.3857211172580719
vn -0.4753938317298889 -0.794346034526825 -0.3781733214855194
vn -0.4613877832889557 0.04632505029439926 -0.8859883546829224
vn 0.4589211344718933 0.041138261556625366 -0.8875241279602051
vn 0.19448338449001312 0.7777679562568665 -0.59770667552948
vn 0.5615121126174927 0.6870123147964478 -0.46121394634246826
vn 0.4566693902015686 0.04141746461391449 -0.888671875
vn 0.9938727021217346 0.01651930809020996 -0.10929019004106522
vn 0.5382620692253113 0.8426857590675354 -0.012432202696800232
vn 0.46450647711753845 0.56083083152771 -0.6853484511375427
vn 0.9935681819915771 0.11111488193273544 0.021808598190546036
vn -0.5424209237098694 -0.8143446445465088 0.20645157992839813
vn -0.9952272772789001 0.09459428489208221 -0.023972854018211365
vn -0.9608122110366821 -0.12574714422225952 0.24703752994537354
vn -0.4810812771320343 -0.8714801669120789 -0.09530531615018845
vn 0 -0.995268702507019 -0.0971604511141777
vn 0 -0.9726938605308533 0.23209188878536224
vn -0.9940069317817688 0.017269879579544067 -0.1079435646533966
vn -0.45627710223197937 0.0420956015586853 -0.8888415098190308
vn -0.561320424079895 0.6869513392448425 -0.4615379273891449
vn -0.49968570470809937 -0.4593127965927124 -0.7344016432762146
vn 0.4565575420856476 -0.5365457534790039 -0.7096996903419495
vn 0.22605639696121216 0.2345210313796997 -0.9454619288444519
vn -0.9930599927902222 0.11679637432098389 -0.013804346323013306
vn -0.44825607538223267 0.8660954236984253 -0.22123588621616364
vn -0.5368167161941528 0.7799038887023926 0.3218350410461426
vn -0.45702284574508667 -0.8835004568099976 -0.10274650156497955
vn -0.47920218110084534 -0.7899988889694214 -0.38244864344596863
vn -0.9995825886726379 -0.026552638038992882 -0.011381756514310837
vn -0.9938236474990845 0.10943886637687683 0.01837596297264099
vn -0.46430420875549316 0.5607300996780396 -0.6855679750442505
vn -0.5382716655731201 0.8426861763000488 -0.011980578303337097
vn -0.5507549047470093 -0.6655528545379639 -0.5036946535110474
vn -0.45191681385040283 0.043241895735263824 -0.8910113573074341
vn -0.9933428764343262 -0.07268635928630829 -0.08936748653650284
vn 0.9867217540740967 -0.16035033762454987 -0.02584826946258545
vn 0.43452438712120056 -0.5397221446037292 -0.7210331559181213
vn 0.507764995098114 -0.8386681079864502 -0.19700413942337036
vn -0.5070114135742188 -0.8400116562843323 -0.1931835263967514
vn -0.4324961304664612 -0.539216160774231 -0.7226293087005615
vn -0.9876961708068848 -0.15508458018302917 -0.020128078758716583
f 3/3/3 2/2/2 1/1/1
f 6/6/6 5/5/5 4/4/4
f 9/9/9 8/8/8 7/7/7
f 12/12/12 11/11/11 10/10/10
f 15/15/15 14/14/14 13/13/13
f 18/18/18 17/17/17 16/16/16
f 21/21/21 20/20/20 19/19/19
f 24/24/24 23/23/23 22/22/22
f 27/27/27 26/26/26 25/25/25
f 30/30/30 29/29/29 28/28/28
f 33/33/33 32/32/32 31/31/31
f 36/36/36 35/35/35 34/34/34
f 39/39/39 38/38/38 37/37/37
f 42/42/42 41/41/41 40/40/40
f 45/45/45 44/44/44 43/43/43
f 48/48/48 47/47/47 46/46/46
f 51/51/51 50/50/50 49/49/49
f 54/54/54 53/53/53 52/52/52
f 57/57/57 56/56/56 55/55/55
f 60/60/60 59/59/59 58/58/58
f 63/63/63 62/62/62 61/61/61
f 66/66/66 65/65/65 64/64/64
f 69/69/69 68/68/68 67/67/67
f 72/72/72 71/71/71 70/70/70
f 75/75/75 74/74/74 73/73/73
f 78/78/78 77/77/77 76/76/76
f 81/81/81 80/80/80 79/79/79
f 84/84/84 83/83/83 82/82/82
f 87/87/87 86/86/86 85/85/85
f 90/90/90 89/89/89 88/88/88
f 93/93/93 92/92/92 91/91/91
f 96/96/96 95/95/95 94/94/94
f 99/99/99 98/98/98 97/97/97
f 102/102/102 101/101/101 100/100/100
f 105/105/105 104/104/104 103/103/103
f 108/108/108 107/107/107 106/106/106
