# VPXTOOL table OBJ file
# VPXTOOL OBJ file
# numVerts: 86 numFaces: 117
o LM_GI_l5_SlingArmR
v 8.914137840270996 1.5891995429992676 -28.45039176940918
v -0.610788881778717 1.589089035987854 -28.45039176940918
v 9.04002857208252 0.332284152507782 -29.508792877197266
v -1.1764118671417236 -1.5857762098312378 3.248798131942749
v -0.34862780570983887 -1.5857762098312378 3.2886979579925537
v -1.1765222549438477 1.589089035987854 3.248798131942749
v 0.46137693524360657 -1.5857762098312378 3.113100290298462
v 1.1983873844146729 -1.5857762098312378 2.7337005138397217
v 0.46137693524360657 1.5891995429992676 3.113100290298462
v 8.9142484664917 -1.5857762098312378 9.649596214294434
v 8.914137840270996 1.5891995429992676 9.649596214294434
v 8.9142484664917 -1.5857762098312378 -28.45039176940918
v 1.8120474815368652 -1.5858865976333618 2.176597833633423
v 1.1983873844146729 1.5891995429992676 2.7337005138397217
v -0.34862780570983887 1.5891995429992676 3.2886979579925537
v 9.04002857208252 0.332284152507782 -29.508792877197266
v 9.000604629516602 -0.9301527142524719 -30.567092895507813
v 8.9142484664917 -1.5857762098312378 -28.45039176940918
v 2.2605040073394775 -1.5858865976333618 1.4796011447906494
v 1.8120474815368652 1.5891995429992676 2.176597833633423
v 8.9142484664917 -1.5857762098312378 -28.45039176940918
v -10.261385917663574 -0.328971266746521 -29.508792877197266
v -0.6106784343719482 -1.5858865976333618 -28.45039176940918
v 2.5133891105651855 -1.5858865976333618 0.6902985572814941
v 2.2605040073394775 1.5891995429992676 1.4796011447906494
v -1.1764118671417236 -1.5857762098312378 3.248798131942749
v -1.965876579284668 -1.5857762098312378 2.9958994388580322
v -10.135716438293457 -1.5857762098312378 9.649596214294434
v 8.914137840270996 1.5891995429992676 -28.45039176940918
v 8.9142484664917 -1.5857762098312378 -28.45039176940918
v 9.04002857208252 0.332284152507782 -29.508792877197266
v 8.914137840270996 1.5891995429992676 -28.45039176940918
v 8.625584602355957 -2.815636157989502 -29.508792877197266
v 1.9984534978866577 -1.5858865976333618 -1.6845006942749023
v 2.3777809143066406 -1.5857762098312378 -0.9476006627082825
v -0.6106784343719482 -1.5858865976333618 -28.45039176940918
v 2.5134994983673096 1.5891995429992676 0.6902985572814941
v 8.9142484664917 -1.5857762098312378 9.649596214294434
v 2.3777809143066406 -1.5857762098312378 -0.9476006627082825
v 2.5534751415252686 -1.5857762098312378 -0.13759934902191162
v 8.9142484664917 -1.5857762098312378 -28.45039176940918
v -0.6106784343719482 -1.5858865976333618 -28.45039176940918
v 2.3777809143066406 -1.5857762098312378 -0.9476006627082825
v 8.9142484664917 -1.5857762098312378 -28.45039176940918
v 8.9142484664917 -1.5857762098312378 9.649596214294434
v 2.5534751415252686 -1.5857762098312378 -0.13759934902191162
v 2.5133891105651855 -1.5858865976333618 0.6902985572814941
v 8.9142484664917 -1.5857762098312378 9.649596214294434
v 2.5133891105651855 -1.5858865976333618 0.6902985572814941
v 2.2605040073394775 -1.5858865976333618 1.4796011447906494
v 8.9142484664917 -1.5857762098312378 9.649596214294434
v 2.2605040073394775 -1.5858865976333618 1.4796011447906494
v 1.8120474815368652 -1.5858865976333618 2.176597833633423
v -3.481971502304077 -1.5858865976333618 -1.2304984331130981
v -10.135716438293457 -1.5857762098312378 -28.45039176940918
v -10.135716438293457 -1.5857762098312378 9.649596214294434
v -3.73496675491333 -1.5858865976333618 -0.44119930267333984
v -3.481971502304077 -1.5858865976333618 -1.2304984331130981
v -10.135716438293457 -1.5857762098312378 9.649596214294434
v 8.9142484664917 -1.5857762098312378 9.649596214294434
v 1.8120474815368652 -1.5858865976333618 2.176597833633423
v 1.1983873844146729 -1.5857762098312378 2.7337005138397217
v 8.9142484664917 -1.5857762098312378 9.649596214294434
v 1.1983873844146729 -1.5857762098312378 2.7337005138397217
v 0.46137693524360657 -1.5857762098312378 3.113100290298462
v -3.774942398071289 -1.5858865976333618 0.3866986036300659
v -3.73496675491333 -1.5858865976333618 -0.44119930267333984
v -10.135716438293457 -1.5857762098312378 9.649596214294434
v -3.599248170852661 -1.5857762098312378 1.196699857711792
v -3.774942398071289 -1.5858865976333618 0.3866986036300659
v -10.135716438293457 -1.5857762098312378 9.649596214294434
v -0.34862780570983887 -1.5857762098312378 3.2886979579925537
v 8.9142484664917 -1.5857762098312378 9.649596214294434
v 0.46137693524360657 -1.5857762098312378 3.113100290298462
v -0.34862780570983887 -1.5857762098312378 3.2886979579925537
v -10.135716438293457 -1.5857762098312378 9.649596214294434
v -3.2199208736419678 -1.5858865976333618 1.9336999654769897
v -3.599248170852661 -1.5857762098312378 1.196699857711792
v -10.135716438293457 -1.5857762098312378 9.649596214294434
v -2.6628010272979736 -1.5858865976333618 2.547297954559326
v -3.2199208736419678 -1.5858865976333618 1.9336999654769897
v -10.135716438293457 -1.5857762098312378 9.649596214294434
v -1.1764118671417236 -1.5857762098312378 3.248798131942749
v -1.965876579284668 -1.5857762098312378 2.9958994388580322
v -2.6628010272979736 -1.5858865976333618 2.547297954559326
v -10.135716438293457 -1.5857762098312378 9.649596214294434
vt 0.03260904923081398 0.6117498278617859
vt 0.03414362296462059 0.6091935634613037
vt 0.03326905891299248 0.6118377447128296
vt 0.03834320604801178 0.6100831627845764
vt 0.038214027881622314 0.6103038787841797
vt 0.03645491972565651 0.6098804473876953
vt 0.0380728542804718 0.6105141639709473
vt 0.03792933002114296 0.6106998920440674
vt 0.036184631288051605 0.6103113889694214
vt 0.03717641904950142 0.6129200458526611
vt 0.03529347851872444 0.6127169728279114
vt 0.03451818600296974 0.611955463886261
vt 0.03779316693544388 0.6108484268188477
vt 0.036040905863046646 0.610496997833252
vt 0.036325838416814804 0.6101011037826538
vt 0.03326905891299248 0.6118377447128296
vt 0.033959731459617615 0.6118817329406738
vt 0.03451818600296974 0.611955463886261
vt 0.037673693150281906 0.6109495162963867
vt 0.03590446710586548 0.6106454133987427
vt 0.03451818600296974 0.611955463886261
vt 0.036779679358005524 0.6066962480545044
vt 0.03605371341109276 0.6093984842300415
vt 0.03757905587553978 0.6109962463378906
vt 0.03578455373644829 0.6107463836669922
vt 0.03834320604801178 0.6100831627845764
vt 0.038451746106147766 0.6098670959472656
vt 0.04020601511001587 0.6078776121139526
vt 0.03260904923081398 0.6117498278617859
vt 0.03451818600296974 0.611955463886261
vt 0.03326905891299248 0.6118377447128296
vt 0.03260904923081398 0.6117498278617859
vt 0.0352298766374588 0.6119304895401001
vt 0.037497568875551224 0.6107981204986572
vt 0.03748782351613045 0.6109180450439453
vt 0.03605371341109276 0.6093984842300415
vt 0.035689402371644974 0.6107931137084961
vt 0.03717641904950142 0.6129200458526611
vt 0.03748782351613045 0.6109180450439453
vt 0.03751562163233757 0.6109855771064758
vt 0.03451818600296974 0.611955463886261
vt 0.03605371341109276 0.6093984842300415
vt 0.03748782351613045 0.6109180450439453
vt 0.03451818600296974 0.611955463886261
vt 0.03717641904950142 0.6129200458526611
vt 0.03751562163233757 0.6109855771064758
vt 0.03757905587553978 0.6109962463378906
vt 0.03717641904950142 0.6129200458526611
vt 0.03757905587553978 0.6109962463378906
vt 0.037673693150281906 0.6109495162963867
vt 0.03717641904950142 0.6129200458526611
vt 0.037673693150281906 0.6109495162963867
vt 0.03779316693544388 0.6108484268188477
vt 0.038403913378715515 0.6093533039093018
vt 0.03759002313017845 0.6068401336669922
vt 0.04020601511001587 0.6078776121139526
vt 0.0384984165430069 0.6093069314956665
vt 0.038403913378715515 0.6093533039093018
vt 0.04020601511001587 0.6078776121139526
vt 0.03717641904950142 0.6129200458526611
vt 0.03779316693544388 0.6108484268188477
vt 0.03792933002114296 0.6106998920440674
vt 0.03717641904950142 0.6129200458526611
vt 0.03792933002114296 0.6106998920440674
vt 0.0380728542804718 0.6105141639709473
vt 0.03856157511472702 0.609318196773529
vt 0.0384984165430069 0.6093069314956665
vt 0.04020601511001587 0.6078776121139526
vt 0.03858903422951698 0.6093862056732178
vt 0.03856157511472702 0.609318196773529
vt 0.04020601511001587 0.6078776121139526
vt 0.038214027881622314 0.6103038787841797
vt 0.03717641904950142 0.6129200458526611
vt 0.0380728542804718 0.6105141639709473
vt 0.038214027881622314 0.6103038787841797
vt 0.04020601511001587 0.6078776121139526
vt 0.03857898339629173 0.609506368637085
vt 0.03858903422951698 0.6093862056732178
vt 0.04020601511001587 0.6078776121139526
vt 0.03853214159607887 0.6096704006195068
vt 0.03857898339629173 0.609506368637085
vt 0.04020601511001587 0.6078776121139526
vt 0.03834320604801178 0.6100831627845764
vt 0.038451746106147766 0.6098670959472656
vt 0.03853214159607887 0.6096704006195068
vt 0.04020601511001587 0.6078776121139526
vn -0.000007429155175486812 0.6441157460212708 -0.7649281024932861
vn -0.000007429155175486812 0.6441157460212708 -0.7649281024932861
vn -0.000007429155175486812 0.6441157460212708 -0.7649281024932861
vn 0.048144709318876266 0.0000016754712532929261 -0.9988403916358948
vn -0.0825689509510994 0.0000007075930170685751 -0.9965854287147522
vn 0.048139430582523346 0.0000002722945566802082 -0.9988406300544739
vn -0.33767518401145935 -0 -0.9412626624107361
vn -0.5698092579841614 -0 -0.8217769861221313
vn -0.33766964077949524 -0 -0.9412646889686584
vn 1 0.00003509849921101704 -0
vn 1 0.00003507664951030165 -0
vn 0.9831246137619019 0.17608827352523804 0.04958658665418625
vn -0.763105571269989 -0 -0.6462738513946533
vn -0.5698000192642212 -0 -0.8217833638191223
vn -0.08257142454385757 -0 -0.9965851306915283
vn 0.9983497262001038 -0.05185600370168686 0.02466837875545025
vn 0.9934725761413574 -0.11395091563463211 0.005236239172518253
vn 0.9566329717636108 -0.23872442543506622 -0.16692495346069336
vn -0.9043717384338379 -0 -0.42674538493156433
vn -0.7630984783172607 -0 -0.6462822556495667
vn -0.18287621438503265 -0.6311296224594116 -0.7538113594055176
vn 0.000007579289558634628 -0.6440825462341309 -0.7649559378623962
vn 0.000007579289558634628 -0.6440825462341309 -0.7649559378623962
vn -0.9523099064826965 0.000005374688953452278 -0.30513259768486023
vn -0.904346764087677 0.000013965201105747838 -0.42679843306541443
vn 0 -1 -0.00000002665893994446833
vn 0 -1 -0.00000002665893994446833
vn 0 -1 -0.00000002665893994446833
vn -0.9930052161216736 -0.00003459466461208649 -0.11807142943143845
vn -0.9930052161216736 -0.00003459466461208649 -0.11807142943143845
vn -0.9930052161216736 -0.00003459466461208649 -0.11807142943143845
vn 1 0.00003468557770247571 -0
vn 0.9777554869651794 -0.20829753577709198 -0.024627728387713432
vn 0.00035912857856601477 -0.9999998807907104 -0.000035074430343229324
vn 0.00035912857856601477 -0.9999998807907104 -0.000035074430343229324
vn 0.00035912857856601477 -0.9999998807907104 -0.000035074430343229324
vn -0.9522774815559387 0.00003306695361970924 -0.3052337169647217
vn 0 -1 -0
vn 0 -1 -0
vn 0 -1 -0
vn -0.0823492705821991 -0.9831312298774719 0.1633140742778778
vn 0.000011593799172260333 -1 0.0000027528869850357296
vn 0.000011593799172260333 -1 0.0000027528869850357296
vn -0.007455791812390089 -0.9831307530403137 0.18275201320648193
vn 0.0001910081336973235 -1 -0.0001241376594407484
vn 0.0001910081336973235 -1 -0.0001241376594407484
vn 0.0001910081336973235 -1 -0.0001241376594407484
vn 0.000011910925422853325 -1 0.000003839475539280102
vn 0.000011910925422853325 -1 0.000003839475539280102
vn 0.000011910925422853325 -1 0.000003839475539280102
vn 0.000009271718226955272 -1 0.000006016955921950284
vn 0.000009271718226955272 -1 0.000006016955921950284
vn 0.000009271718226955272 -1 0.000006016955921950284
vn -0.000016596684872638434 -1 -0
vn -0.000016596684872638434 -1 -0
vn -0.000016596684872638434 -1 -0
vn -0.0000348763023794163 -1 -0.00001120335582527332
vn -0.0000348763023794163 -1 -0.00001120335582527332
vn -0.0000348763023794163 -1 -0.00001120335582527332
vn -0.00008940236875787377 -1 0.00009958514419849962
vn -0.00008940236875787377 -1 0.00009958514419849962
vn -0.00008940236875787377 -1 0.00009958514419849962
vn 0 -0.9999999403953552 0.00000019452149047083367
vn 0 -0.9999999403953552 0.00000019452149047083367
vn 0 -0.9999999403953552 0.00000019452149047083367
vn -0.00001867424725787714 -1 -0.0000007671927164665249
vn -0.00001867424725787714 -1 -0.0000007671927164665249
vn -0.00001867424725787714 -1 -0.0000007671927164665249
vn 0.00013768422650173306 -1 0.00010638411913532764
vn 0.00013768422650173306 -1 0.00010638411913532764
vn 0.00013768422650173306 -1 0.00010638411913532764
vn 0 -1 -0.0000004605277013070008
vn 0 -1 -0.0000004605277013070008
vn 0 -1 -0.0000004605277013070008
vn 0 -1 -0
vn 0 -1 -0
vn -0.00011633572285063565 -1 -0.00008988882473204285
vn -0.00011633572285063565 -1 -0.00008988882473204285
vn -0.00011633572285063565 -1 -0.00008988882473204285
vn -0.000007932352673378773 -1 0.000007263612587848911
vn -0.000007932352673378773 -1 0.000007263612587848911
vn -0.000007932352673378773 -1 0.000007263612587848911
vn 0 -1 -0
vn 0.00008850362792145461 -1 0.0001086499250959605
vn 0.00008850362792145461 -1 0.0001086499250959605
vn 0.00008850362792145461 -1 0.0001086499250959605
f 3/3/3 2/2/2 1/1/1
f 6/6/6 5/5/5 4/4/4
f 9/9/9 8/8/8 7/7/7
f 12/12/12 11/11/11 10/10/10
f 14/14/14 13/13/13 8/8/8
f 15/15/15 7/7/7 5/5/5
f 18/18/18 17/17/17 16/16/16
f 20/20/20 19/19/19 13/13/13
f 23/23/23 22/22/22 21/21/21
f 25/25/25 24/24/24 19/19/19
f 28/28/28 27/27/27 26/26/26
f 31/31/31 30/30/30 29/29/29
f 6/6/6 15/15/15 5/5/5
f 9/9/9 14/14/14 8/8/8
f 12/12/12 32/32/32 11/11/11
f 14/14/14 20/20/20 13/13/13
f 15/15/15 9/9/9 7/7/7
f 18/18/18 33/33/33 17/17/17
f 36/36/36 35/35/35 34/34/34
f 20/20/20 25/25/25 19/19/19
f 25/25/25 37/37/37 24/24/24
f 40/40/40 39/39/39 38/38/38
f 43/43/43 42/42/42 41/41/41
f 44/44/44 38/38/38 39/39/39
f 47/47/47 46/46/46 45/45/45
f 50/50/50 49/49/49 48/48/48
f 53/53/53 52/52/52 51/51/51
f 56/56/56 55/55/55 54/54/54
f 59/59/59 58/58/58 57/57/57
f 62/62/62 61/61/61 60/60/60
f 65/65/65 64/64/64 63/63/63
f 68/68/68 67/67/67 66/66/66
f 71/71/71 70/70/70 69/69/69
f 74/74/74 73/73/73 72/72/72
f 38/38/38 76/76/76 75/75/75
f 79/79/79 78/78/78 77/77/77
f 82/82/82 81/81/81 80/80/80
f 83/83/83 75/75/75 76/76/76
f 86/86/86 85/85/85 84/84/84
