# VPXTOOL table OBJ file
# VPXTOOL OBJ file
# numVerts: 85 numFaces: 222
o LM_GI_GI17_Bumper_Ring_006
v -37.06196975708008 -7.372092247009277 -55.55083084106445
v -34.58182144165039 -3.2736449241638184 -55.629180908203125
v -37.7880744934082 -0 -55.55083084106445
v -37.06196975708008 -7.372092247009277 -56.23046875
v -37.7880744934082 -0 -56.23046875
v -52.0544548034668 -10.354257583618164 -66.85748291015625
v -37.06196975708008 -7.372092247009277 -55.55083084106445
v -45.81211853027344 30.61067008972168 -66.85748291015625
v -44.129661560058594 29.486492156982422 -66.85748291015625
v -38.96001434326172 38.96001434326172 -66.85748291015625
v -50.903690338134766 21.085025787353516 -66.85748291015625
v -54.03910446166992 10.749044418334961 -66.85748291015625
v -49.03422164916992 20.31063461303711 -66.85748291015625
v -34.58182144165039 3.2736449241638184 -55.629180908203125
v -34.58182144165039 3.2736449241638184 -56.79072189331055
v -31.308147430419922 4.629671573638916 -55.629180908203125
v -36.397953033447266 9.56965160369873 -55.629180908203125
v -31.308147430419922 8.97034740447998 -55.629180908203125
v -28.034475326538086 3.2736449241638184 -55.629180908203125
v -26.678476333618164 -0 -55.629180908203125
v -24.965126037597656 6.342994213104248 -55.629180908203125
v -31.308147430419922 4.629671573638916 -56.79072189331055
v -55.09777069091797 -0 -66.85748291015625
v -52.0544548034668 10.354257583618164 -66.85748291015625
v -54.84223556518555 10.908782005310059 -65.22623443603516
v -51.660247802734375 21.39837074279785 -65.22623443603516
v -35.93782043457031 -0 -55.629180908203125
v -35.93782043457031 -0 -56.79072189331055
v -28.034475326538086 3.2736449241638184 -56.79072189331055
v -27.9805850982666 3.3275349140167236 10.981438636779785
v -27.9805850982666 3.3275349140167236 -48.95855712890625
v -26.602251052856445 -0 10.981438636779785
v -36.014041900634766 -0 10.981438636779785
v -36.014041900634766 -0 -48.95855712890625
v -34.63570785522461 3.3275349140167236 10.981438636779785
v -31.308147430419922 4.705868244171143 10.981438636779785
v -31.308147430419922 4.705868244171143 -48.95855712890625
v -34.63570785522461 3.3275349140167236 -48.95855712890625
v -26.41518211364746 4.892936706542969 -48.958560943603516
v -26.41518211364746 4.892936706542969 -54.083431243896484
v -24.388460159301758 -0 -48.958560943603516
v -38.439144134521484 -0 -54.0697021484375
v -36.20111083984375 4.892936706542969 -54.083431243896484
v -38.22783660888672 -0 -48.958560943603516
v -31.308147430419922 6.9196600914001465 -48.958560943603516
v -31.308147430419922 6.9196600914001465 -54.083431243896484
v -36.20111083984375 4.892936706542969 -48.958560943603516
v -24.965126037597656 6.342994213104248 -54.08343505859375
v -22.337772369384766 -0 -54.08343505859375
v -37.7880744934082 -0 -55.55083084106445
v -34.58182144165039 3.2736449241638184 -55.629180908203125
v -37.06196975708008 7.372092247009277 -55.55083084106445
v -31.308147430419922 8.97034740447998 -54.08343505859375
v -37.08154296875 9.661142349243164 -54.08343505859375
v -53.07427978515625 -0 -66.85748291015625
v -37.06196975708008 7.372092247009277 -56.23046875
v -37.529170989990234 37.529170989990234 -66.85748291015625
v -26.720190048217773 26.720218658447266 -56.23046875
v -29.486492156982422 44.129634857177734 -66.85748291015625
v -34.91162109375 14.46087646484375 -56.23046875
v -37.08154296875 9.661142349243164 -54.08343505859375
v -37.700531005859375 7.499086856842041 -54.0697021484375
v -36.20111083984375 4.892936706542969 -54.083431243896484
v -26.678476333618164 -0 -56.79072189331055
v -37.7880744934082 -0 -55.55083084106445
v -34.58182144165039 -3.2736449241638184 -55.629180908203125
v -35.93782043457031 -0 -55.629180908203125
v -37.7880744934082 -0 -55.55083084106445
v -36.20111083984375 -4.892936706542969 -54.083431243896484
v -38.439144134521484 -0 -54.0697021484375
v -37.700531005859375 -7.499086856842041 -54.0697021484375
v -28.034475326538086 -3.2736449241638184 -56.79072189331055
v -22.337772369384766 -0 -55.629180908203125
v -24.388460159301758 -0 -54.083431243896484
v -37.06196975708008 7.372092247009277 -55.55083084106445
v -34.58182144165039 3.2736449241638184 -55.629180908203125
v -36.397953033447266 9.56965160369873 -55.629180908203125
v -37.7880744934082 -0 -55.55083084106445
v -35.93782043457031 -0 -55.629180908203125
v -34.58182144165039 3.2736449241638184 -55.629180908203125
v -31.419626235961914 20.993921279907227 -56.23046875
v -20.993921279907227 31.419626235961914 -56.23046875
v -37.700531005859375 7.499086856842041 -54.0697021484375
v -38.439144134521484 -0 -54.0697021484375
v -36.20111083984375 4.892936706542969 -54.083431243896484
vt 0.011957905255258083 0.40100324153900146
vt 0.013408700004220009 0.4020100235939026
vt 0.011494878679513931 0.40282827615737915
vt 0.0119467219337821 0.40093785524368286
vt 0.011483580805361271 0.402763307094574
vt 0.0028675526846200228 0.3991711139678955
vt 0.011957905255258083 0.40100324153900146
vt 0.006376938428729773 0.40937715768814087
vt 0.007387091871351004 0.40909600257873535
vt 0.010430236347019672 0.4114673137664795
vt 0.0033868360333144665 0.4069966673851013
vt 0.0015726150013506413 0.4044187068939209
vt 0.004506118129938841 0.4068033695220947
vt 0.013380742631852627 0.40363210439682007
vt 0.013362199068069458 0.4035212993621826
vt 0.015316911041736603 0.40396833419799805
vt 0.012275952845811844 0.40519386529922485
vt 0.015299166552722454 0.40504515171051025
vt 0.01726418547332287 0.40363210439682007
vt 0.018080977723002434 0.40282076597213745
vt 0.01907329075038433 0.4043932557106018
vt 0.015299204736948013 0.40385764837265015
vt 0.001000726129859686 0.4017431139945984
vt 0.0027575111016631126 0.40432029962539673
vt 0.0011264579370617867 0.4046141505241394
vt 0.0029661450535058975 0.4072291851043701
vt 0.012590691447257996 0.40282076597213745
vt 0.012571824714541435 0.4027097225189209
vt 0.0172472782433033 0.4035212993621826
vt 0.01824120804667473 0.40984588861465454
vt 0.017392637208104134 0.40427976846694946
vt 0.019051646813750267 0.4090386629104614
vt 0.013601947575807571 0.4090386629104614
vt 0.012653566896915436 0.4034569263458252
vt 0.014386463910341263 0.40984588861465454
vt 0.016308464109897614 0.4101804494857788
vt 0.015418089926242828 0.40462082624435425
vt 0.013454725034534931 0.40427976846694946
vt 0.01831296645104885 0.40466707944869995
vt 0.01824040897190571 0.404180645942688
vt 0.019530344754457474 0.4034569263458252
vt 0.011133658699691296 0.4029697775840759
vt 0.012438390403985977 0.404180645942688
vt 0.011344061233103275 0.4034569263458252
vt 0.01540907472372055 0.40516865253448486
vt 0.015331136994063854 0.40468311309814453
vt 0.012521653436124325 0.40466707944869995
vt 0.019094744697213173 0.40454012155532837
vt 0.02067534066736698 0.40296846628189087
vt 0.011494878679513931 0.40282827615737915
vt 0.013380742631852627 0.40363210439682007
vt 0.011892861686646938 0.40465599298477173
vt 0.015322749502956867 0.40519165992736816
vt 0.011895333416759968 0.4053630232810974
vt 0.0022054396104067564 0.4017431139945984
vt 0.011881640180945396 0.4045913815498352
vt 0.011291778646409512 0.41110891103744507
vt 0.017945298925042152 0.4094015955924988
vt 0.016070883721113205 0.41276323795318604
vt 0.013127395883202553 0.4063516855239868
vt 0.011895333416759968 0.4053630232810974
vt 0.011538012884557247 0.4048280715942383
vt 0.012438390403985977 0.404180645942688
vt 0.018064411357045174 0.4027097225189209
vt 0.011494878679513931 0.40282827615737915
vt 0.013408700004220009 0.4020100235939026
vt 0.012590691447257996 0.40282076597213745
vt 0.011494878679513931 0.40282827615737915
vt 0.012481030076742172 0.4017574191093445
vt 0.011133658699691296 0.4029697775840759
vt 0.011604653671383858 0.40111416578292847
vt 0.01727280206978321 0.4018986225128174
vt 0.020654762163758278 0.40282076597213745
vt 0.019460072740912437 0.40296846628189087
vt 0.011892861686646938 0.40465599298477173
vt 0.013380742631852627 0.40363210439682007
vt 0.012275952845811844 0.40519386529922485
vt 0.011494878679513931 0.40282827615737915
vt 0.012590691447257996 0.40282076597213745
vt 0.013380742631852627 0.40363210439682007
vt 0.015174499712884426 0.40797609090805054
vt 0.021333688870072365 0.41057270765304565
vt 0.011538012884557247 0.4048280715942383
vt 0.011133658699691296 0.4029697775840759
vt 0.012438390403985977 0.404180645942688
vn -0.027159515768289566 -0.0026749754324555397 -0.9996274709701538
vn -0.027159515768289566 -0.0026749754324555397 -0.9996274709701538
vn -0.027159515768289566 -0.0026749754324555397 -0.9996274709701538
vn 0.7781611084938049 0.18035560846328735 -0.6016119122505188
vn 0.7492277026176453 -0.02059542015194893 -0.6619923114776611
vn 0.5699162483215332 0.05613299459218979 -0.8197833299636841
vn 0.9834991693496704 0.16753047704696655 -0.06828485429286957
vn -0.042852263897657394 0.02372932620346546 -0.9987995624542236
vn 0.23438067734241486 -0.15660899877548218 -0.95944744348526
vn -0.0000011890281257365132 -0 -1
vn -0.5062943696975708 0.20971745252609253 -0.8364715576171875
vn -0.5374018549919128 0.10723520070314407 -0.8364805579185486
vn 0.26044023036956787 -0.1078782007098198 -0.9594441652297974
vn -0.4112410843372345 0.41126376390457153 -0.8134757280349731
vn -0.7036537528038025 0.7036352157592773 0.09883785247802734
vn 0.000008153667295118794 0.594359278678894 -0.8041996955871582
vn 0.3568228483200073 0.6512659788131714 -0.6697238087654114
vn -0.004312977194786072 0.49226564168930054 -0.8704344034194946
vn 0.42028042674064636 0.4202710688114166 -0.8041993379592896
vn 0.5942585468292236 -0.016707047820091248 -0.8041004538536072
vn 0.54897141456604 0.5489789843559265 -0.6302796602249146
vn -0.000009342584235128015 0.9976422786712646 0.06862828135490417
vn -0.12751935422420502 -0.02230698987841606 -0.9915851950645447
vn 0.27647995948791504 -0.05499688535928726 -0.9594447016716003
vn -0.8751639127731323 0.18101319670677185 -0.44868960976600647
vn -0.826877236366272 0.33871880173683167 -0.4489360749721527
vn -0.5944082736968994 -0.000026553869247436523 -0.8041634559631348
vn -0.6032005548477173 -0.6645188927650452 -0.44109365344047546
vn 0.7049105167388916 0.7049238681793213 0.0786353051662445
vn 0.7071029543876648 0.707110583782196 -0
vn 0.4068426489830017 0.9134982824325562 -0
vn 0.9998825192451477 0.0003739893436431885 -0.015328329987823963
vn -0.9999999403953552 0.00009125471115112305 -0.00018338630616199225
vn -0.9711154699325562 0.10546579957008362 -0.21403686702251434
vn -0.7071079015731812 0.7071057558059692 -0
vn -0.0000037169786537560867 1 -0
vn 0.000003737514362001093 1 -0
vn -0.7071031928062439 0.7071102857589722 -0
vn 0.7070977687835693 0.707115888595581 -0
vn 0.7071144580841064 0.7070990800857544 -0
vn 0.9660757184028625 0.20785148441791534 0.1532825380563736
vn -0.9740043878555298 0.14739711582660675 0.17201635241508484
vn -0.7064334750175476 0.7076630592346191 0.012835772708058357
vn -0.9625362157821655 0.2109490931034088 0.17036569118499756
vn -0.000011674354027491063 1 -0
vn 0.000011715425898728427 1 -0
vn -0.711777925491333 0.7023987770080566 -0.0028375601395964622
vn 0.7071113586425781 0.7071021795272827 -0
vn 0.9660758972167969 0.20785033702850342 0.15328256785869598
vn -0.027159512042999268 0.0026749749667942524 -0.9996275305747986
vn -0.027159512042999268 0.0026749749667942524 -0.9996275305747986
vn -0.027159512042999268 0.0026749749667942524 -0.9996275305747986
vn 0.5075218677520752 0.8616387248039246 -0.0005862201214767992
vn 0.1901259869337082 0.7264295220375061 0.6604182720184326
vn 0.39825958013534546 0.01970403641462326 -0.9170611500740051
vn 0.5147987604141235 -0.25615012645721436 -0.818149983882904
vn 0.19933682680130005 -0.19933778047561646 -0.959442138671875
vn 0.40362727642059326 -0.40362805128097534 -0.8210781812667847
vn 0.32860347628593445 -0.40040457248687744 -0.8553922772407532
vn 0.5703326463699341 -0.07302083820104599 -0.8181617259979248
vn -0.013486738316714764 -0.002491391496732831 -0.9999058842658997
vn -0.013486738316714764 -0.002491391496732831 -0.9999058842658997
vn -0.013486738316714764 -0.002491391496732831 -0.9999058842658997
vn 0.8039765357971191 -0.5204563140869141 -0.28765755891799927
vn -0.04230152815580368 -0.017521848902106285 -0.9989511370658875
vn -0.04230152815580368 -0.017521848902106285 -0.9989511370658875
vn -0.04230152815580368 -0.017521848902106285 -0.9989511370658875
vn 0.9975348711013794 0.04096978157758713 -0.056969936937093735
vn -0.007816990837454796 -0.0007699191337451339 -0.9999691843986511
vn -0.007816990837454796 -0.0007699191337451339 -0.9999691843986511
vn -0.007816990837454796 -0.0007699191337451339 -0.9999691843986511
vn -0.36447951197624207 0.41428259015083313 -0.8339811563491821
vn 0.7763850092887878 0.00013524293899536133 -0.6302589178085327
vn 0.9711160063743591 0.1054607629776001 -0.21403692662715912
vn -0.060248687863349915 -0.0173787958920002 -0.9980320930480957
vn -0.060248687863349915 -0.0173787958920002 -0.9980320930480957
vn -0.060248687863349915 -0.0173787958920002 -0.9980320930480957
vn -0.04230152815580368 0.017521848902106285 -0.9989511370658875
vn -0.04230152815580368 0.017521848902106285 -0.9989511370658875
vn -0.04230152815580368 0.017521848902106285 -0.9989511370658875
vn 0.4746159017086029 -0.31712794303894043 -0.8210782408714294
vn 0.36329883337020874 -0.44268348813056946 -0.8197836875915527
vn -0.007816990837454796 0.0007699191337451339 -0.9999691843986511
vn -0.007816990837454796 0.0007699191337451339 -0.9999691843986511
vn -0.007816990837454796 0.0007699191337451339 -0.9999691843986511
f 3/3/3 2/2/2 1/1/1
f 6/6/6 5/5/5 4/4/4
f 5/5/5 7/7/7 4/4/4
f 10/10/10 9/9/9 8/8/8
f 13/13/13 12/12/12 11/11/11
f 16/16/16 15/15/15 14/14/14
f 18/18/18 14/14/14 17/17/17
f 21/21/21 20/20/20 19/19/19
f 19/19/19 22/22/22 16/16/16
f 9/9/9 11/11/11 8/8/8
f 24/24/24 23/23/23 12/12/12
f 21/21/21 16/16/16 18/18/18
f 26/26/26 12/12/12 25/25/25
f 14/14/14 28/28/28 27/27/27
f 20/20/20 29/29/29 19/19/19
f 32/32/32 31/31/31 30/30/30
f 35/35/35 34/34/34 33/33/33
f 30/30/30 37/37/37 36/36/36
f 36/36/36 38/38/38 35/35/35
f 41/41/41 40/40/40 39/39/39
f 44/44/44 43/43/43 42/42/42
f 39/39/39 46/46/46 45/45/45
f 45/45/45 43/43/43 47/47/47
f 49/49/49 21/21/21 48/48/48
f 52/52/52 51/51/51 50/50/50
f 48/48/48 18/18/18 53/53/53
f 53/53/53 17/17/17 54/54/54
f 24/24/24 5/5/5 55/55/55
f 13/13/13 56/56/56 24/24/24
f 58/58/58 9/9/9 57/57/57
f 59/59/59 58/58/58 57/57/57
f 9/9/9 60/60/60 13/13/13
f 63/63/63 62/62/62 61/61/61
f 64/64/64 28/28/28 15/15/15
f 67/67/67 66/66/66 65/65/65
f 6/6/6 55/55/55 5/5/5
f 5/5/5 68/68/68 7/7/7
f 71/71/71 70/70/70 69/69/69
f 64/64/64 72/72/72 28/28/28
f 59/59/59 57/57/57 10/10/10
f 10/10/10 57/57/57 9/9/9
f 13/13/13 24/24/24 12/12/12
f 25/25/25 12/12/12 23/23/23
f 16/16/16 22/22/22 15/15/15
f 18/18/18 16/16/16 14/14/14
f 21/21/21 73/73/73 20/20/20
f 19/19/19 29/29/29 22/22/22
f 9/9/9 13/13/13 11/11/11
f 24/24/24 55/55/55 23/23/23
f 8/8/8 11/11/11 26/26/26
f 21/21/21 19/19/19 16/16/16
f 26/26/26 11/11/11 12/12/12
f 14/14/14 15/15/15 28/28/28
f 20/20/20 64/64/64 29/29/29
f 35/35/35 38/38/38 34/34/34
f 30/30/30 31/31/31 37/37/37
f 36/36/36 37/37/37 38/38/38
f 41/41/41 74/74/74 40/40/40
f 44/44/44 47/47/47 43/43/43
f 39/39/39 40/40/40 46/46/46
f 45/45/45 46/46/46 43/43/43
f 49/49/49 73/73/73 21/21/21
f 77/77/77 76/76/76 75/75/75
f 80/80/80 79/79/79 78/78/78
f 48/48/48 21/21/21 18/18/18
f 53/53/53 18/18/18 17/17/17
f 24/24/24 56/56/56 5/5/5
f 13/13/13 60/60/60 56/56/56
f 58/58/58 81/81/81 9/9/9
f 59/59/59 82/82/82 58/58/58
f 9/9/9 81/81/81 60/60/60
f 85/85/85 84/84/84 83/83/83
f 22/22/22 29/29/29 15/15/15
f 29/29/29 64/64/64 15/15/15
