# VPXTOOL table OBJ file
# VPXTOOL OBJ file
# numVerts: 63 numFaces: 63
o LM_GI_GI13_TriggerLaneL
v 1189.1536865234375 82574.828125 -24210.994140625
v 1188.927490234375 -32445.033203125 -71482.1484375
v 2377.92578125 -32445.033203125 -69427.125
v -2378.06005859375 -32445.033203125 -69427.125
v -1189.0546875 -32445.033203125 -71482.1484375
v -1188.835693359375 82574.828125 -24210.994140625
v -1189.0546875 -32445.033203125 -71482.1484375
v 1188.927490234375 -32445.033203125 -71482.1484375
v 1189.1536865234375 82574.828125 -24210.994140625
v 2378.15185546875 81210.7421875 -22697.2578125
v 1189.1536865234375 82574.828125 -24210.994140625
v 2377.92578125 -32445.033203125 -69427.125
v -2377.826904296875 81210.7421875 -22697.2578125
v -2378.06005859375 -32445.033203125 -69427.125
v -1188.835693359375 82574.828125 -24210.994140625
v -1188.835693359375 82574.828125 -24210.994140625
v -1189.0546875 -32445.033203125 -71482.1484375
v 1189.1536865234375 82574.828125 -24210.994140625
v 2377.91162109375 -38585.640625 -67532.7578125
v 2377.92578125 -32445.033203125 -69427.125
v 1188.9134521484375 -39552.36328125 -69351.0078125
v -2378.06005859375 -38585.640625 -67532.7578125
v -1189.06884765625 -39552.36328125 -69351.0078125
v -2378.06005859375 -32445.033203125 -69427.125
v 2377.92578125 -32445.033203125 -69427.125
v 1188.927490234375 -32445.033203125 -71482.1484375
v 1188.9134521484375 -39552.36328125 -69351.0078125
v -1189.06884765625 -39552.36328125 -69351.0078125
v -1189.0546875 -32445.033203125 -71482.1484375
v -2378.06005859375 -32445.033203125 -69427.125
v 1188.9134521484375 -39552.36328125 -69351.0078125
v 1188.927490234375 -32445.033203125 -71482.1484375
v -1189.0546875 -32445.033203125 -71482.1484375
v -1189.06884765625 -39552.36328125 -69351.0078125
v 1188.9134521484375 -39552.36328125 -69351.0078125
v -1189.0546875 -32445.033203125 -71482.1484375
v 2378.15185546875 84168.5859375 -18356.5078125
v 1189.1536865234375 82189.109375 -17788.984375
v 2378.1376953125 77194.4609375 54005.3046875
v 1189.1536865234375 86148.0546875 -18924.25
v 2378.15185546875 84168.5859375 -18356.5078125
v 1189.1395263671875 79208.875 54005.3046875
v 2378.15185546875 81210.7421875 -22697.2578125
v 2378.15185546875 84168.5859375 -18356.5078125
v 1189.1536865234375 82574.828125 -24210.994140625
v -2377.826904296875 81210.7421875 -22697.2578125
v -1188.835693359375 82574.828125 -24210.994140625
v -2377.826904296875 84168.5859375 -18356.5078125
v -1188.835693359375 82574.828125 -24210.994140625
v 1189.1536865234375 82574.828125 -24210.994140625
v -1188.821533203125 86148.0546875 -18924.25
v 2378.15185546875 84168.5859375 -18356.5078125
v 1189.1536865234375 86148.0546875 -18924.25
v 1189.1536865234375 82574.828125 -24210.994140625
v -1188.835693359375 82574.828125 -24210.994140625
v -1188.821533203125 86148.0546875 -18924.25
v -2377.826904296875 84168.5859375 -18356.5078125
v 2378.15185546875 84168.5859375 -18356.5078125
v 2378.1376953125 77194.4609375 54005.3046875
v 1189.1395263671875 79208.875 54005.3046875
v 1189.1536865234375 82574.828125 -24210.994140625
v 1189.1536865234375 86148.0546875 -18924.25
v -1188.821533203125 86148.0546875 -18924.25
vt 0.034762654453516006 0.6443302035331726
vt 0.033949680626392365 0.626731276512146
vt 0.034450795501470566 0.6268283128738403
vt 0.032853588461875916 0.6268283128738403
vt 0.033150751143693924 0.626731276512146
vt 0.03396626189351082 0.6443302035331726
vt 0.033150751143693924 0.626731276512146
vt 0.033949680626392365 0.626731276512146
vt 0.034762654453516006 0.6443302035331726
vt 0.03525323048233986 0.6442128419876099
vt 0.034762654453516006 0.6443302035331726
vt 0.034450795501470566 0.6268283128738403
vt 0.03366102650761604 0.6442129015922546
vt 0.032853588461875916 0.6268283128738403
vt 0.03396626189351082 0.6443302035331726
vt 0.03396626189351082 0.6443302035331726
vt 0.033150751143693924 0.626731276512146
vt 0.034762654453516006 0.6443302035331726
vt 0.03462570533156395 0.6260953545570374
vt 0.034450795501470566 0.6268283128738403
vt 0.034149542450904846 0.6258797645568848
vt 0.033029597252607346 0.6260953545570374
vt 0.03335125744342804 0.6258797645568848
vt 0.032853588461875916 0.6268283128738403
vt 0.034450795501470566 0.6268283128738403
vt 0.033949680626392365 0.626731276512146
vt 0.034149542450904846 0.6258797645568848
vt 0.03335125744342804 0.6258797645568848
vt 0.033150751143693924 0.626731276512146
vt 0.032853588461875916 0.6268283128738403
vt 0.034149542450904846 0.6258797645568848
vt 0.033949680626392365 0.626731276512146
vt 0.033150751143693924 0.626731276512146
vt 0.03335125744342804 0.6258797645568848
vt 0.034149542450904846 0.6258797645568848
vt 0.033150751143693924 0.626731276512146
vt 0.035427484661340714 0.644800066947937
vt 0.03508366644382477 0.6445587873458862
vt 0.03901897743344307 0.6469846963882446
vt 0.034975722432136536 0.6450415253639221
vt 0.035427484661340714 0.644800066947937
vt 0.03860103338956833 0.6472519040107727
vt 0.03525323048233986 0.6442128419876099
vt 0.035427484661340714 0.644800066947937
vt 0.034762654453516006 0.6443302035331726
vt 0.03366102650761604 0.6442129015922546
vt 0.03396626189351082 0.6443302035331726
vt 0.03383636847138405 0.644800066947937
vt 0.03396626189351082 0.6443302035331726
vt 0.034762654453516006 0.6443302035331726
vt 0.03417999669909477 0.6450415253639221
vt 0.035427484661340714 0.644800066947937
vt 0.034975722432136536 0.6450415253639221
vt 0.034762654453516006 0.6443302035331726
vt 0.03396626189351082 0.6443302035331726
vt 0.03417999669909477 0.6450415253639221
vt 0.03383636847138405 0.644800066947937
vt 0.035427484661340714 0.644800066947937
vt 0.03901897743344307 0.6469846963882446
vt 0.03860103338956833 0.6472519040107727
vt 0.034762654453516006 0.6443302035331726
vt 0.034975722432136536 0.6450415253639221
vt 0.03417999669909477 0.6450415253639221
vn 0.561492919921875 0.6870183944702148 -0.46122831106185913
vn 0.456645667552948 0.04142384231090546 -0.8886837959289551
vn 0.9938696026802063 0.016529172658920288 -0.10931610316038132
vn -0.9939992427825928 0.017294839024543762 -0.10801193118095398
vn -0.45621487498283386 0.04211123287677765 -0.8888728022575378
vn -0.5612706542015076 0.686966598033905 -0.46157580614089966
vn -0.4613876938819885 0.04632522910833359 -0.8859883546829224
vn 0.4589211344718933 0.04113855957984924 -0.8875240683555603
vn 0.19448338449001312 0.777768075466156 -0.5977063775062561
vn 0.9968621134757996 0.04827988147735596 -0.06272947788238525
vn 0.46249234676361084 0.5569518208503723 -0.68985915184021
vn 0.9282522201538086 -0.2042807638645172 -0.3108331263065338
vn -0.9966768622398376 0.047359399497509 -0.06627510488033295
vn -0.9288724064826965 -0.204279363155365 -0.3089756667613983
vn -0.46237713098526 0.556769073009491 -0.6900837421417236
vn -0.4617125689983368 0.561134397983551 -0.6869860291481018
vn -0.15418106317520142 -0.16728456318378448 -0.973778247833252
vn 0.46472814679145813 0.5566923022270203 -0.6885647177696228
vn 0.9926552176475525 -0.09275530278682709 -0.07766614854335785
vn 0.9508463740348816 0.19695356488227844 -0.2389567792415619
vn 0.438434898853302 -0.45990705490112305 -0.7721789479255676
vn -0.9935784339904785 -0.08637107163667679 -0.07308739423751831
vn -0.43652668595314026 -0.4589179456233978 -0.7738467454910278
vn -0.9508247375488281 0.19814303517341614 -0.23805776238441467
vn 0.9931778907775879 -0.07307861000299454 -0.09086912870407104
vn 0.4522837698459625 0.04251215606927872 -0.8908603191375732
vn 0.5529296398162842 -0.6650974154472351 -0.5019107460975647
vn -0.5506368279457092 -0.6656297445297241 -0.5037222504615784
vn -0.45185309648513794 0.04323036968708038 -0.8910442590713501
vn -0.9933350086212158 -0.07270756363868713 -0.08943835645914078
vn 0.21204756200313568 -0.7275936603546143 -0.6524134278297424
vn 0.4589173495769501 0.04128151759505272 -0.887519359588623
vn -0.5014150738716125 -0.03599223494529724 -0.8644578456878662
vn -0.4545265734195709 -0.5360152721405029 -0.7114022970199585
vn 0.5018703937530518 -0.45947355031967163 -0.732809841632843
vn -0.22492200136184692 0.23481476306915283 -0.9456596970558167
vn 0.9954135417938232 0.09201771020889282 -0.026164956390857697
vn 0.8631758689880371 -0.4927394390106201 0.1101607158780098
vn 0.9608558416366577 -0.12601959705352783 0.24672918021678925
vn 0.44825300574302673 0.8659818172454834 -0.22168613970279694
vn 0.9933499097824097 0.11401097476482391 -0.01604875922203064
vn 0.5367613434791565 0.7797239422798157 0.3223627805709839
vn 0.9968884587287903 0.04587715119123459 -0.0640987828373909
vn 0.9527060985565186 0.2812526226043701 0.11509974300861359
vn 0.44202107191085815 0.6542496681213379 -0.6136568784713745
vn -0.9966996908187866 0.0450173020362854 -0.06755204498767853
vn -0.44183456897735596 0.6541712284088135 -0.6138747334480286
vn -0.9512863159179688 0.28565001487731934 0.11601065844297409
vn -0.46172016859054565 0.5610907077789307 -0.687016487121582
vn 0.5033595561981201 0.6153365969657898 -0.6066218018531799
vn -0.2324899435043335 0.9708738923072815 -0.05789988487958908
vn 0.9922786951065063 0.051285356283187866 -0.11292846500873566
vn 0.45585548877716064 0.8622415065765381 -0.22076088190078735
vn 0.5339581370353699 0.36563295125961304 -0.7623656392097473
vn -0.5338512063026428 0.36541879177093506 -0.7625430822372437
vn -0.45578938722610474 0.8623738288879395 -0.2203800082206726
vn -0.9924797415733337 0.0538136288523674 -0.10994535684585571
vn 0.9321779012680054 0.22682484984397888 -0.28212544322013855
vn 0.999065637588501 -0.04300200939178467 -0.004307921975851059
vn 0.5172435641288757 0.8527982234954834 0.07207053899765015
vn 0.267814040184021 0.44928431510925293 -0.8523023128509521
vn 0.4586041271686554 0.8607336282730103 -0.22095231711864471
vn -0.5075370073318481 0.8082906603813171 -0.2984499931335449
f 3/3/3 2/2/2 1/1/1
f 6/6/6 5/5/5 4/4/4
f 9/9/9 8/8/8 7/7/7
f 12/12/12 11/11/11 10/10/10
f 15/15/15 14/14/14 13/13/13
f 18/18/18 17/17/17 16/16/16
f 21/21/21 20/20/20 19/19/19
f 24/24/24 23/23/23 22/22/22
f 27/27/27 26/26/26 25/25/25
f 30/30/30 29/29/29 28/28/28
f 33/33/33 32/32/32 31/31/31
f 36/36/36 35/35/35 34/34/34
f 39/39/39 38/38/38 37/37/37
f 42/42/42 41/41/41 40/40/40
f 45/45/45 44/44/44 43/43/43
f 48/48/48 47/47/47 46/46/46
f 51/51/51 50/50/50 49/49/49
f 54/54/54 53/53/53 52/52/52
f 57/57/57 56/56/56 55/55/55
f 60/60/60 59/59/59 58/58/58
f 63/63/63 62/62/62 61/61/61
