# VPXTOOL table OBJ file
# VPXTOOL OBJ file
# numVerts: 141 numFaces: 141
o LM_GI_GI16_Gate_Wire
v -436.91094970703125 -11.08718204498291 0.7497099041938782
v -435.87554931640625 5.987961769104004 -7.305944919586182
v -455.7043762207031 -4.417203903198242 -13.78896427154541
v -422.5823974609375 -4.223730564117432 18.347187042236328
v -433.9558410644531 11.217047691345215 4.486112117767334
v -435.87554931640625 5.987961769104004 -7.305944919586182
v -422.5823974609375 -4.223730564117432 18.347187042236328
v -435.87554931640625 5.987961769104004 -7.305944919586182
v -436.91094970703125 -11.08718204498291 0.7497099041938782
v -435.87554931640625 5.987961769104004 -7.305944919586182
v -433.9558410644531 11.217047691345215 4.486112117767334
v -711.4472045898438 9.004911422729492 -12.344980239868164
v -455.7043762207031 -4.417203903198242 -13.78896427154541
v -435.87554931640625 5.987961769104004 -7.305944919586182
v -711.4472045898438 9.004911422729492 -12.344980239868164
v -455.7043762207031 -4.417203903198242 -13.78896427154541
v -711.4481201171875 -12.259507179260254 -1.8456182479858398
v -436.91094970703125 -11.08718204498291 0.7497099041938782
v 423.22998046875 5.404890537261963 18.8094482421875
v 419.408203125 3.977250337600708 628.2034912109375
v 429.8204345703125 -5.76975154876709 -2.1649820804595947
v 439.7114562988281 10.861021041870117 -2.8437957763671875
v 427.1639404296875 9.597700119018555 644.3370971679688
v 423.22998046875 5.404890537261963 18.8094482421875
v -711.4472045898438 9.004911422729492 -12.344980239868164
v -711.4481201171875 -12.259507179260254 -1.8456182479858398
v -455.7043762207031 -4.417203903198242 -13.78896427154541
v -711.4481201171875 4.341228008270264 7.12782096862793
v -711.4472045898438 9.004911422729492 -12.344980239868164
v -444.44580078125 7.405000686645508 8.60879898071289
v -711.4481201171875 -12.259507179260254 -1.8456182479858398
v -711.4472045898438 9.004911422729492 -12.344980239868164
v -711.4481201171875 4.341228008270264 7.12782096862793
v -3.196288824081421 11.059795379638672 315.4171142578125
v 0.8092317581176758 -4.6566162109375 308.2888488769531
v 23.83876609802246 0.8604713082313538 316.47174072265625
v 0.8092317581176758 -4.6566162109375 308.2888488769531
v -3.196288824081421 11.059795379638672 315.4171142578125
v -22.8395938873291 4.020538806915283 317.46697998046875
v 23.83876609802246 0.8604713082313538 316.47174072265625
v 14.27198600769043 10.781511306762695 329.86199951171875
v -3.196288824081421 11.059795379638672 315.4171142578125
v 23.83876609802246 0.8604713082313538 316.47174072265625
v 0.8092317581176758 -4.6566162109375 308.2888488769531
v 7.201809406280518 -11.371649742126465 319.376220703125
v -432.9080505371094 11.088065147399902 635.2373046875
v -444.44580078125 7.405000686645508 8.60879898071289
v -433.9558410644531 11.217047691345215 4.486112117767334
v -4.506431579589844 7.205342769622803 327.82366943359375
v -3.196288824081421 11.059795379638672 315.4171142578125
v 14.27198600769043 10.781511306762695 329.86199951171875
v -20.550600051879883 -10.763842582702637 324.0571594238281
v 0.8092317581176758 -4.6566162109375 308.2888488769531
v -22.8395938873291 4.020538806915283 317.46697998046875
v -444.54473876953125 -3.9330782890319824 618.2373657226563
v -447.03692626953125 -4.4207377433776855 10.028157234191895
v -444.44580078125 7.405000686645508 8.60879898071289
v 7.201809406280518 -11.371649742126465 319.376220703125
v 0.8092317581176758 -4.6566162109375 308.2888488769531
v -20.550600051879883 -10.763842582702637 324.0571594238281
v 443.97052001953125 5.0356125831604 618.7918701171875
v 427.1639404296875 9.597700119018555 644.3370971679688
v 439.7114562988281 10.861021041870117 -2.8437957763671875
v 419.408203125 3.977250337600708 628.2034912109375
v 424.9279479980469 -10.868088722229004 633.262939453125
v 429.8204345703125 -5.76975154876709 -2.1649820804595947
v 425.1929626464844 10.682565689086914 636.3103637695313
v 419.408203125 3.977250337600708 628.2034912109375
v 423.22998046875 5.404890537261963 18.8094482421875
v 427.1639404296875 9.597700119018555 644.3370971679688
v 425.1929626464844 10.682565689086914 636.3103637695313
v 423.22998046875 5.404890537261963 18.8094482421875
v 14.27198600769043 10.781511306762695 329.86199951171875
v 23.83876609802246 0.8604713082313538 316.47174072265625
v 216.61083984375 4.613327503204346 629.2127075195313
v 4.873059272766113 -4.162773132324219 330.89593505859375
v 14.27198600769043 10.781511306762695 329.86199951171875
v 205.72950744628906 4.838604927062988 647.8538208007813
v -22.8395938873291 4.020538806915283 317.46697998046875
v -3.196288824081421 11.059795379638672 315.4171142578125
v -212.45425415039063 10.74528980255127 634.5302124023438
v -20.550600051879883 -10.763842582702637 324.0571594238281
v -22.8395938873291 4.020538806915283 317.46697998046875
v -216.7398223876953 -4.678702354431152 629.3446655273438
v 23.83876609802246 0.8604713082313538 316.47174072265625
v 215.18496704101563 -7.503945827484131 631.38037109375
v 216.61083984375 4.613327503204346 629.2127075195313
v 211.00364685058594 11.283305168151855 638.5686645507813
v 14.27198600769043 10.781511306762695 329.86199951171875
v 216.61083984375 4.613327503204346 629.2127075195313
v 205.72950744628906 4.838604927062988 647.8538208007813
v 14.27198600769043 10.781511306762695 329.86199951171875
v 211.00364685058594 11.283305168151855 638.5686645507813
v -420.123779296875 4.403952121734619 627.9155883789063
v -432.9080505371094 11.088065147399902 635.2373046875
v -433.9558410644531 11.217047691345215 4.486112117767334
v -432.9080505371094 11.088065147399902 635.2373046875
v -444.54473876953125 -3.9330782890319824 618.2373657226563
v -444.44580078125 7.405000686645508 8.60879898071289
v -22.8395938873291 4.020538806915283 317.46697998046875
v -212.45425415039063 10.74528980255127 634.5302124023438
v -216.7398223876953 -4.678702354431152 629.3446655273438
v -205.9132537841797 8.3838529586792 644.5333251953125
v -212.45425415039063 10.74528980255127 634.5302124023438
v -4.506431579589844 7.205342769622803 327.82366943359375
v -211.0115966796875 -11.276238441467285 638.5684204101563
v -20.550600051879883 -10.763842582702637 324.0571594238281
v -216.7398223876953 -4.678702354431152 629.3446655273438
v 216.61083984375 4.613327503204346 629.2127075195313
v 419.408203125 3.977250337600708 628.2034912109375
v 425.1929626464844 10.682565689086914 636.3103637695313
v 419.408203125 3.977250337600708 628.2034912109375
v 216.61083984375 4.613327503204346 629.2127075195313
v 424.9279479980469 -10.868088722229004 633.262939453125
v 211.00364685058594 11.283305168151855 638.5686645507813
v 216.61083984375 4.613327503204346 629.2127075195313
v 425.1929626464844 10.682565689086914 636.3103637695313
v 211.00364685058594 11.283305168151855 638.5686645507813
v 425.1929626464844 10.682565689086914 636.3103637695313
v 427.1639404296875 9.597700119018555 644.3370971679688
v 216.61083984375 4.613327503204346 629.2127075195313
v 215.18496704101563 -7.503945827484131 631.38037109375
v 424.9279479980469 -10.868088722229004 633.262939453125
v -216.7398223876953 -4.678702354431152 629.3446655273438
v -212.45425415039063 10.74528980255127 634.5302124023438
v -420.123779296875 4.403952121734619 627.9155883789063
v -432.9080505371094 11.088065147399902 635.2373046875
v -212.45425415039063 10.74528980255127 634.5302124023438
v -205.9132537841797 8.3838529586792 644.5333251953125
v -211.0115966796875 -11.276238441467285 638.5684204101563
v -216.7398223876953 -4.678702354431152 629.3446655273438
v -425.3087158203125 -10.685215950012207 632.7808227539063
v -432.9080505371094 11.088065147399902 635.2373046875
v -420.123779296875 4.403952121734619 627.9155883789063
v -212.45425415039063 10.74528980255127 634.5302124023438
v -216.7398223876953 -4.678702354431152 629.3446655273438
v -420.123779296875 4.403952121734619 627.9155883789063
v -425.3087158203125 -10.685215950012207 632.7808227539063
v -434.84722900390625 -4.727291584014893 642.706787109375
v -444.54473876953125 -3.9330782890319824 618.2373657226563
v -432.9080505371094 11.088065147399902 635.2373046875
vt 0.46602535247802734 0.2715570330619812
vt 0.4662298560142517 0.27142900228500366
vt 0.46612492203712463 0.2716715335845947
vt 0.46623626351356506 0.27136552333831787
vt 0.46658825874328613 0.2714253067970276
vt 0.4662298560142517 0.27142900228500366
vt 0.46623626351356506 0.27136552333831787
vt 0.4662298560142517 0.27142900228500366
vt 0.46602535247802734 0.2715570330619812
vt 0.4662298560142517 0.27142900228500366
vt 0.46658825874328613 0.2714253067970276
vt 0.4694008231163025 0.2744356393814087
vt 0.46612492203712463 0.2716715335845947
vt 0.4662298560142517 0.27142900228500366
vt 0.4694008231163025 0.2744356393814087
vt 0.46612492203712463 0.2716715335845947
vt 0.46912866830825806 0.2745295763015747
vt 0.46602535247802734 0.2715570330619812
vt 0.4566331207752228 0.2619972229003906
vt 0.4657112956047058 0.2630459666252136
vt 0.4560243785381317 0.2619318962097168
vt 0.45622551441192627 0.2617727518081665
vt 0.4659281075000763 0.262944757938385
vt 0.4566331207752228 0.2619972229003906
vt 0.4694008231163025 0.2744356393814087
vt 0.46912866830825806 0.2745295763015747
vt 0.46612492203712463 0.2716715335845947
vt 0.469569593667984 0.2744707465171814
vt 0.4694008231163025 0.2744356393814087
vt 0.4666574001312256 0.2715388536453247
vt 0.46912866830825806 0.2745295763015747
vt 0.4694008231163025 0.2744356393814087
vt 0.469569593667984 0.2744707465171814
vt 0.46612200140953064 0.26712340116500854
vt 0.4656417667865753 0.2671526074409485
vt 0.4656470715999603 0.2669013738632202
vt 0.4656417667865753 0.2671526074409485
vt 0.46612200140953064 0.26712340116500854
vt 0.466225802898407 0.2673702836036682
vt 0.4656470715999603 0.2669013738632202
vt 0.4661027193069458 0.2669605612754822
vt 0.46612200140953064 0.26712340116500854
vt 0.4656470715999603 0.2669013738632202
vt 0.4656417667865753 0.2671526074409485
vt 0.4655742645263672 0.2671411633491516
vt 0.4757101833820343 0.27228283882141113
vt 0.4666574001312256 0.2715388536453247
vt 0.46658825874328613 0.2714253067970276
vt 0.4662667512893677 0.26716071367263794
vt 0.46612200140953064 0.26712340116500854
vt 0.4661027193069458 0.2669605612754822
vt 0.46591660380363464 0.2674047350883484
vt 0.4656417667865753 0.2671526074409485
vt 0.466225802898407 0.2673702836036682
vt 0.47530704736709595 0.27244406938552856
vt 0.4663736820220947 0.27162009477615356
vt 0.4666574001312256 0.2715388536453247
vt 0.4655742645263672 0.2671411633491516
vt 0.4656417667865753 0.2671526074409485
vt 0.46591660380363464 0.2674047350883484
vt 0.4653388559818268 0.2627621293067932
vt 0.4659281075000763 0.262944757938385
vt 0.45622551441192627 0.2617727518081665
vt 0.4657112956047058 0.2630459666252136
vt 0.4653947055339813 0.2630760669708252
vt 0.4560243785381317 0.2619318962097168
vt 0.46594223380088806 0.26296162605285645
vt 0.4657112956047058 0.2630459666252136
vt 0.4566331207752228 0.2619972229003906
vt 0.4659281075000763 0.262944757938385
vt 0.46594223380088806 0.26296162605285645
vt 0.4566331207752228 0.2619972229003906
vt 0.4661027193069458 0.2669605612754822
vt 0.4656470715999603 0.2669013738632202
vt 0.46808135509490967 0.2652411460876465
vt 0.4659231901168823 0.26711010932922363
vt 0.4661027193069458 0.2669605612754822
vt 0.4683971107006073 0.2653670907020569
vt 0.466225802898407 0.2673702836036682
vt 0.46612200140953064 0.26712340116500854
vt 0.47321176528930664 0.2698937654495239
vt 0.46591660380363464 0.2674047350883484
vt 0.466225802898407 0.2673702836036682
vt 0.47282129526138306 0.26999080181121826
vt 0.4656470715999603 0.2669013738632202
vt 0.46780771017074585 0.26531803607940674
vt 0.46808135509490967 0.2652411460876465
vt 0.4684099555015564 0.26526427268981934
vt 0.4661027193069458 0.2669605612754822
vt 0.46808135509490967 0.2652411460876465
vt 0.4683971107006073 0.2653670907020569
vt 0.4661027193069458 0.2669605612754822
vt 0.4684099555015564 0.26526427268981934
vt 0.4753357172012329 0.27215325832366943
vt 0.4757101833820343 0.27228283882141113
vt 0.46658825874328613 0.2714253067970276
vt 0.4757101833820343 0.27228283882141113
vt 0.47530704736709595 0.27244406938552856
vt 0.4666574001312256 0.2715388536453247
vt 0.466225802898407 0.2673702836036682
vt 0.47321176528930664 0.2698937654495239
vt 0.47282129526138306 0.26999080181121826
vt 0.4732116758823395 0.269839882850647
vt 0.47321176528930664 0.2698937654495239
vt 0.4662667512893677 0.26716071367263794
vt 0.47271788120269775 0.26999062299728394
vt 0.46591660380363464 0.2674047350883484
vt 0.47282129526138306 0.26999080181121826
vt 0.46808135509490967 0.2652411460876465
vt 0.4657112956047058 0.2630459666252136
vt 0.46594223380088806 0.26296162605285645
vt 0.4657112956047058 0.2630459666252136
vt 0.46808135509490967 0.2652411460876465
vt 0.4653947055339813 0.2630760669708252
vt 0.4684099555015564 0.26526427268981934
vt 0.46808135509490967 0.2652411460876465
vt 0.46594223380088806 0.26296162605285645
vt 0.4684099555015564 0.26526427268981934
vt 0.46594223380088806 0.26296162605285645
vt 0.4659281075000763 0.262944757938385
vt 0.46808135509490967 0.2652411460876465
vt 0.46780771017074585 0.26531803607940674
vt 0.4653947055339813 0.2630760669708252
vt 0.47282129526138306 0.26999080181121826
vt 0.47321176528930664 0.2698937654495239
vt 0.4753357172012329 0.27215325832366943
vt 0.4757101833820343 0.27228283882141113
vt 0.47321176528930664 0.2698937654495239
vt 0.4732116758823395 0.269839882850647
vt 0.47271788120269775 0.26999062299728394
vt 0.47282129526138306 0.26999080181121826
vt 0.4750862717628479 0.2722678780555725
vt 0.4757101833820343 0.27228283882141113
vt 0.4753357172012329 0.27215325832366943
vt 0.47321176528930664 0.2698937654495239
vt 0.47282129526138306 0.26999080181121826
vt 0.4753357172012329 0.27215325832366943
vt 0.4750862717628479 0.2722678780555725
vt 0.4755074977874756 0.2723757028579712
vt 0.47530704736709595 0.27244406938552856
vt 0.4757101833820343 0.27228283882141113
vn 0.584086537361145 -0.6937170028686523 -0.4214257597923279
vn 0.6839158535003662 0.07285484671592712 -0.7259141206741333
vn 0.08732914924621582 -0.5520821809768677 -0.829203724861145
vn 0.9938899874687195 0.027540862560272217 -0.10688424110412598
vn 0.6411686539649963 0.7075376510620117 -0.29714202880859375
vn 0.6144677400588989 0.3386737108230591 -0.7125514149665833
vn 0.9716285467147827 -0.13660290837287903 -0.19307425618171692
vn 0.57902991771698 0.08848144114017487 -0.8104909062385559
vn 0.4902505874633789 -0.6744906902313232 -0.5520116090774536
vn 0.1389508843421936 0.6544944643974304 -0.743188738822937
vn 0.040339402854442596 0.9963877201080322 -0.07472735643386841
vn -0.16565266251564026 0.7090818285942078 -0.685391902923584
vn 0.017058080062270164 0.08931636810302734 -0.9958571791648865
vn 0.29638442397117615 0.6854448318481445 -0.6650727391242981
vn -0.18214499950408936 0.18168988823890686 -0.9663394689559937
vn -0.010427087545394897 -0.634706974029541 -0.7726826667785645
vn -0.19526523351669312 -0.6996089220046997 -0.68732750415802
vn 0.1245345026254654 -0.9858947992324829 -0.11181551218032837
vn -0.9959367513656616 -0.08871251344680786 -0.015495136380195618
vn -0.9939764738082886 -0.08472764492034912 -0.06951319426298141
vn -0.6673921346664429 -0.6903179287910461 -0.2793722152709961
vn 0.0008294284343719482 0.9925495386123657 -0.12183926999568939
vn 0.04530450701713562 0.9709804654121399 0.2348286211490631
vn -0.6954531669616699 0.7185396552085876 0.006748916581273079
vn -0.014755358919501305 -0.06600812077522278 -0.9977099895477295
vn -0.013867126777768135 -0.7518876791000366 -0.6591454148292542
vn 0.3046590983867645 -0.5824534893035889 -0.7536118030548096
vn -0.012185143306851387 0.809424638748169 0.5870975255966187
vn 0.008276265114545822 0.987680971622467 -0.15626215934753418
vn -0.01169971376657486 0.8169342875480652 0.5766122341156006
vn -0.9999999403953552 0.000017511307305539958 -0.0000401678444177378
vn -0.9999999403953552 0.000017511307305539958 -0.0000401678444177378
vn -0.9999999403953552 0.000017511307305539958 -0.0000401678444177378
vn -0.1127290204167366 0.7451949715614319 -0.6572493314743042
vn -0.059377849102020264 0.01152230054140091 -0.9981690645217896
vn 0.5989291071891785 0.4517030715942383 -0.6612476110458374
vn 0.11925891786813736 -0.03294892609119415 -0.9923162460327148
vn 0.011288613080978394 0.7207859754562378 -0.6930657625198364
vn -0.646406888961792 0.25578781962394714 -0.7188398838043213
vn 0.5230852961540222 0.5462596416473389 -0.6542034149169922
vn 0.19139531254768372 0.9759882688522339 -0.10399337857961655
vn 0.03181891143321991 0.952857494354248 -0.3017449378967285
vn 0.6574636101722717 -0.32470181584358215 -0.6799340844154358
vn 0.07390166819095612 -0.43670493364334106 -0.8965641856193542
vn 0.1213819682598114 -0.8559221029281616 -0.5026566386222839
vn -0.5285157561302185 0.7684463858604431 0.3607787787914276
vn -0.6257515549659729 0.7607932686805725 0.17212961614131927
vn 0.08617622405290604 0.9937674403190613 -0.0707097202539444
vn 0.018155189231038094 0.8509533405303955 0.5249274969100952
vn 0.05753728747367859 0.9859887361526489 -0.15657512843608856
vn 0.17847414314746857 0.9834805130958557 -0.030219972133636475
vn -0.5181307792663574 -0.7226442098617554 -0.4575214087963104
vn 0.010187283158302307 -0.4247349500656128 -0.9052603840827942
vn -0.665954053401947 0.005539745092391968 -0.7459721565246582
vn -0.9234507083892822 0.019748345017433167 0.3832084834575653
vn -0.9615329504013062 -0.16635727882385254 0.21858561038970947
vn -0.7895578742027283 0.5992093682289124 0.13246336579322815
vn 0.06694776564836502 -0.9771227240562439 -0.20186442136764526
vn -0.11588799953460693 -0.5564664602279663 -0.8227485418319702
vn -0.5201351642608643 -0.735733151435852 -0.4337698221206665
vn 0.658637523651123 0.7522438764572144 -0.018052317202091217
vn -0.0468917042016983 0.9899892210960388 0.13312587141990662
vn -0.09338027238845825 0.968234121799469 -0.23195430636405945
vn -0.9692994952201843 0.016076892614364624 -0.2453567236661911
vn -0.6934742331504822 -0.7116374373435974 -0.1125410869717598
vn -0.794371485710144 -0.5051798224449158 -0.3372938334941864
vn -0.3971691429615021 0.9158831834793091 -0.05843503400683403
vn -0.901090681552887 0.3399307131767273 -0.26922595500946045
vn -0.8001897931098938 0.46071702241897583 -0.38397422432899475
vn 0.7857638001441956 0.5878323912620544 0.19242720305919647
vn 0.23027588427066803 0.9407665133476257 -0.24886015057563782
vn 0.46188199520111084 0.780372142791748 0.42152613401412964
vn 0.19761162996292114 0.9704892635345459 -0.1382032036781311
vn 0.5460742712020874 0.5430800914764404 -0.6378610134124756
vn 0.6298868656158447 0.594247579574585 -0.5001122951507568
vn -0.6483319401741028 0.1195330023765564 0.7519159317016602
vn -0.3270030617713928 0.8074010610580444 0.4910932183265686
vn -0.4103408455848694 0.5354768633842468 0.7381632924079895
vn -0.6144355535507202 0.6259686946868896 -0.48024171590805054
vn -0.03121921792626381 0.9841944575309753 -0.17431746423244476
vn -0.5518319606781006 0.7031672596931458 -0.4483718276023865
vn -0.5016359090805054 -0.6682591438293457 -0.549355149269104
vn -0.622744619846344 0.006612483412027359 -0.7823971509933472
vn -0.7256832122802734 0.10380202531814575 -0.6801536679267883
vn 0.524686336517334 -0.26525968313217163 -0.8089137077331543
vn 0.5389083027839661 -0.608047366142273 -0.5829718708992004
vn 0.6280865669250488 0.17823582887649536 -0.7574557065963745
vn 0.13748931884765625 0.9902591109275818 -0.021989919245243073
vn 0.16220608353614807 0.9163134098052979 -0.3661406636238098
vn 0.5156019330024719 0.6150514483451843 -0.5965453386306763
vn -0.546298086643219 0.5287423133850098 0.6496074795722961
vn -0.6461716294288635 0.5748371481895447 0.5020203590393066
vn -0.21953891217708588 0.9646602869033813 0.14571572840213776
vn 0.7159534096717834 0.6737921833992004 -0.18279704451560974
vn 0.049349840730428696 0.9949392676353455 0.08752311766147614
vn 0.6248464584350586 0.6919769644737244 -0.36157259345054626
vn -0.5559371709823608 0.792456328868866 0.25089189410209656
vn -0.9738057851791382 0.2171044498682022 0.06758566200733185
vn -0.45568493008613586 0.889398992061615 -0.03634057939052582
vn -0.4675338566303253 0.4359493851661682 -0.7689995169639587
vn -0.42742040753364563 0.7499018907546997 -0.5049346089363098
vn -0.639715850353241 0.015834540128707886 -0.7684482932090759
vn 0.3225262761116028 0.7956010103225708 0.5128312110900879
vn -0.09737066924571991 0.9930411577224731 -0.06624293327331543
vn 0.407632052898407 0.8391745686531067 0.3600307106971741
vn -0.13739511370658875 -0.9903655052185059 -0.01728038489818573
vn -0.16940931975841522 -0.9167145490646362 -0.36184918880462646
vn -0.5281679630279541 -0.6162059307098389 -0.5842335224151611
vn -0.005941787734627724 0.47999534010887146 -0.8772509694099426
vn -0.18105897307395935 0.5097254514694214 -0.8410694003105164
vn 0.07941330224275589 0.964028000831604 -0.25366032123565674
vn -0.23776540160179138 0.0456174798309803 -0.9702508449554443
vn 0.06375246495008469 0.1049531102180481 -0.992431640625
vn -0.12740641832351685 -0.6871238946914673 -0.715282142162323
vn -0.08610231429338455 0.9787209033966064 -0.18625763058662415
vn 0.18214721977710724 0.569302499294281 -0.8016963601112366
vn 0.2287454456090927 0.9443317651748657 -0.23645946383476257
vn -0.18677234649658203 0.9704984426498413 -0.152475506067276
vn -0.006682537496089935 0.9775199890136719 -0.21073682606220245
vn 0.18055693805217743 0.8421618342399597 0.5080971121788025
vn 0.2414417415857315 0.19053077697753906 -0.9515271782875061
vn 0.12362867593765259 -0.5712093710899353 -0.811440646648407
vn 0.034081507474184036 -0.5866795182228088 -0.8091017603874207
vn -0.21875695884227753 -0.05189162492752075 -0.9743985533714294
vn -0.10117262601852417 0.6802161335945129 -0.7259958982467651
vn 0.07037641108036041 -0.11930385231971741 -0.9903603196144104
vn -0.18586279451847076 0.9807645678520203 -0.05962976813316345
vn -0.04509814828634262 0.9927079081535339 -0.1117897778749466
vn 0.2261141985654831 0.7948352098464966 0.5631244778633118
vn 0.09329881519079208 -0.9770039319992065 -0.19172534346580505
vn -0.17075768113136292 -0.5645849704742432 -0.8075182437896729
vn -0.22483113408088684 -0.9427265524864197 -0.24640929698944092
vn -0.14959175884723663 0.9368665218353271 -0.31607499718666077
vn 0.22042784094810486 0.4847441613674164 -0.8464245796203613
vn 0.2298247367143631 0.9094418287277222 -0.34654876589775085
vn -0.05578670650720596 0.12851804494857788 -0.9901368618011475
vn 0.23714931309223175 0.058099180459976196 -0.9697343111038208
vn 0.10497578978538513 -0.6752301454544067 -0.7300989031791687
vn -0.6888851523399353 -0.04087565094232559 0.723717212677002
vn -0.9975087642669678 0.006676793098449707 0.0702260211110115
vn -0.6383453607559204 0.5609114170074463 0.5271562337875366
f 3/3/3 2/2/2 1/1/1
f 6/6/6 5/5/5 4/4/4
f 9/9/9 8/8/8 7/7/7
f 12/12/12 11/11/11 10/10/10
f 15/15/15 14/14/14 13/13/13
f 18/18/18 17/17/17 16/16/16
f 21/21/21 20/20/20 19/19/19
f 24/24/24 23/23/23 22/22/22
f 27/27/27 26/26/26 25/25/25
f 30/30/30 29/29/29 28/28/28
f 33/33/33 32/32/32 31/31/31
f 36/36/36 35/35/35 34/34/34
f 39/39/39 38/38/38 37/37/37
f 42/42/42 41/41/41 40/40/40
f 45/45/45 44/44/44 43/43/43
f 48/48/48 47/47/47 46/46/46
f 51/51/51 50/50/50 49/49/49
f 54/54/54 53/53/53 52/52/52
f 57/57/57 56/56/56 55/55/55
f 60/60/60 59/59/59 58/58/58
f 63/63/63 62/62/62 61/61/61
f 66/66/66 65/65/65 64/64/64
f 69/69/69 68/68/68 67/67/67
f 72/72/72 71/71/71 70/70/70
f 75/75/75 74/74/74 73/73/73
f 78/78/78 77/77/77 76/76/76
f 81/81/81 80/80/80 79/79/79
f 84/84/84 83/83/83 82/82/82
f 87/87/87 86/86/86 85/85/85
f 90/90/90 89/89/89 88/88/88
f 93/93/93 92/92/92 91/91/91
f 96/96/96 95/95/95 94/94/94
f 99/99/99 98/98/98 97/97/97
f 102/102/102 101/101/101 100/100/100
f 105/105/105 104/104/104 103/103/103
f 108/108/108 107/107/107 106/106/106
f 111/111/111 110/110/110 109/109/109
f 114/114/114 113/113/113 112/112/112
f 117/117/117 116/116/116 115/115/115
f 120/120/120 119/119/119 118/118/118
f 123/123/123 122/122/122 121/121/121
f 126/126/126 125/125/125 124/124/124
f 129/129/129 128/128/128 127/127/127
f 132/132/132 131/131/131 130/130/130
f 135/135/135 134/134/134 133/133/133
f 138/138/138 137/137/137 136/136/136
f 141/141/141 140/140/140 139/139/139
