# VPXTOOL table OBJ file
# VPXTOOL OBJ file
# numVerts: 90 numFaces: 90
o LM_GI_l4_TriggerLane4
v 1189.1536865234375 82574.9375 -24210.9921875
v 1188.927490234375 -32445.033203125 -71482.140625
v 2377.93994140625 -32445.033203125 -69427.109375
v -2378.052978515625 -32445.033203125 -69427.109375
v -1189.0406494140625 -32445.033203125 -71482.140625
v -1188.814453125 82574.9375 -24210.9921875
v -1189.0406494140625 -32445.033203125 -71482.140625
v 1188.927490234375 -32445.033203125 -71482.140625
v 1189.1536865234375 82574.9375 -24210.9921875
v 2378.1376953125 81210.7421875 -22697.25390625
v 1189.1536865234375 82574.9375 -24210.9921875
v 2377.93994140625 -32445.033203125 -69427.109375
v -2377.826904296875 81210.7421875 -22697.25390625
v -2378.052978515625 -32445.033203125 -69427.109375
v -1188.814453125 82574.9375 -24210.9921875
v -1188.814453125 82574.9375 -24210.9921875
v -1189.0406494140625 -32445.033203125 -71482.140625
v 1189.1536865234375 82574.9375 -24210.9921875
v 1188.8992919921875 -43453.1875 -63091.3671875
v 1188.8427734375 -86148.28125 54005.30078125
v 2377.91162109375 -41728.03125 -62181.09765625
v -1189.1536865234375 -86148.28125 54005.30078125
v -1189.06884765625 -43453.1875 -63091.3671875
v -2378.052978515625 -41728.03125 -62181.09765625
v -1189.06884765625 -43453.1875 -63091.3671875
v -1189.1536865234375 -86148.28125 54005.30078125
v 1188.8992919921875 -43453.1875 -63091.3671875
v 1188.8427734375 -86148.28125 54005.30078125
v 2377.826904296875 -84134.09375 54005.30078125
v 2377.91162109375 -41728.03125 -62181.09765625
v -2378.166015625 -84134.09375 54005.30078125
v -1189.1536865234375 -86148.28125 54005.30078125
v -2378.052978515625 -41728.03125 -62181.09765625
v 2377.91162109375 -41728.03125 -62181.09765625
v 2377.91162109375 -38585.30078125 -67532.7578125
v 1188.8992919921875 -43453.1875 -63091.3671875
v -2378.052978515625 -41728.03125 -62181.09765625
v -1189.06884765625 -43453.1875 -63091.3671875
v -2378.052978515625 -38585.30078125 -67532.7578125
v -1189.1536865234375 -86148.28125 54005.30078125
v 1188.8427734375 -86148.28125 54005.30078125
v 1188.8992919921875 -43453.1875 -63091.3671875
v -1189.06884765625 -43453.1875 -63091.3671875
v 1188.8992919921875 -43453.1875 -63091.3671875
v -1189.06884765625 -39552.36328125 -69351.0078125
v 2377.91162109375 -38585.30078125 -67532.7578125
v 2377.93994140625 -32445.033203125 -69427.109375
v 1188.927490234375 -39552.36328125 -69351.0078125
v -2378.052978515625 -38585.30078125 -67532.7578125
v -1189.06884765625 -39552.36328125 -69351.0078125
v -2378.052978515625 -32445.033203125 -69427.109375
v 2377.91162109375 -38585.30078125 -67532.7578125
v 1188.927490234375 -39552.36328125 -69351.0078125
v 1188.8992919921875 -43453.1875 -63091.3671875
v 2377.93994140625 -32445.033203125 -69427.109375
v 1188.927490234375 -32445.033203125 -71482.140625
v 1188.927490234375 -39552.36328125 -69351.0078125
v -1189.06884765625 -43453.1875 -63091.3671875
v -1189.06884765625 -39552.36328125 -69351.0078125
v -2378.052978515625 -38585.30078125 -67532.7578125
v -1189.06884765625 -39552.36328125 -69351.0078125
v -1189.0406494140625 -32445.033203125 -71482.140625
v -2378.052978515625 -32445.033203125 -69427.109375
v 1188.927490234375 -39552.36328125 -69351.0078125
v 1188.927490234375 -32445.033203125 -71482.140625
v -1189.0406494140625 -32445.033203125 -71482.140625
v 1188.8992919921875 -43453.1875 -63091.3671875
v 1188.927490234375 -39552.36328125 -69351.0078125
v -1189.06884765625 -39552.36328125 -69351.0078125
v -1189.06884765625 -39552.36328125 -69351.0078125
v 1188.927490234375 -39552.36328125 -69351.0078125
v -1189.0406494140625 -32445.033203125 -71482.140625
v 1189.1536865234375 86147.828125 -18924.248046875
v 1189.1536865234375 82574.9375 -24210.9921875
v 2378.1376953125 81210.7421875 -22697.25390625
v -2377.826904296875 81210.7421875 -22697.25390625
v -1188.814453125 82574.9375 -24210.9921875
v -1188.814453125 86147.828125 -18924.248046875
v 2378.166015625 84168.46875 -18356.50390625
v 1189.1536865234375 86147.828125 -18924.248046875
v 2378.1376953125 81210.7421875 -22697.25390625
v -2377.826904296875 84168.921875 -18356.50390625
v -2377.826904296875 81210.7421875 -22697.25390625
v -1188.814453125 86147.828125 -18924.248046875
v -1188.814453125 82574.9375 -24210.9921875
v 1189.1536865234375 82574.9375 -24210.9921875
v 1189.1536865234375 86147.828125 -18924.248046875
v -1188.814453125 86147.828125 -18924.248046875
v -1188.814453125 82574.9375 -24210.9921875
v 1189.1536865234375 86147.828125 -18924.248046875
vt 0.4115193784236908 0.23993879556655884
vt 0.41063055396080017 0.22631174325942993
vt 0.41115379333496094 0.22632676362991333
vt 0.40936124324798584 0.22632676362991333
vt 0.4097338914871216 0.22631174325942993
vt 0.4106272757053375 0.23993879556655884
vt 0.4097338914871216 0.22631174325942993
vt 0.41063055396080017 0.22631174325942993
vt 0.4115193784236908 0.23993879556655884
vt 0.41202983260154724 0.2397872805595398
vt 0.4115193784236908 0.23993879556655884
vt 0.41115379333496094 0.22632676362991333
vt 0.4102463126182556 0.2397872805595398
vt 0.40936124324798584 0.22632676362991333
vt 0.4106272757053375 0.23993879556655884
vt 0.4106272757053375 0.23993879556655884
vt 0.4097338914871216 0.22631174325942993
vt 0.4115193784236908 0.23993879556655884
vt 0.41101640462875366 0.2250981330871582
vt 0.41547077894210815 0.22114437818527222
vt 0.41148436069488525 0.2253047227859497
vt 0.4145989716053009 0.22114437818527222
vt 0.41012173891067505 0.2250981330871582
vt 0.40969520807266235 0.2253047227859497
vt 0.41012173891067505 0.2250981330871582
vt 0.4145989716053009 0.22114437818527222
vt 0.41101640462875366 0.2250981330871582
vt 0.41547077894210815 0.22114437818527222
vt 0.41589289903640747 0.22137129306793213
vt 0.41148436069488525 0.2253047227859497
vt 0.41414910554885864 0.22137129306793213
vt 0.4145989716053009 0.22114437818527222
vt 0.40969520807266235 0.2253047227859497
vt 0.41148436069488525 0.2253047227859497
vt 0.41126716136932373 0.22562867403030396
vt 0.41101640462875366 0.2250981330871582
vt 0.40969520807266235 0.2253047227859497
vt 0.41012173891067505 0.2250981330871582
vt 0.40947580337524414 0.22562867403030396
vt 0.4145989716053009 0.22114437818527222
vt 0.41547077894210815 0.22114437818527222
vt 0.41101640462875366 0.2250981330871582
vt 0.41012173891067505 0.2250981330871582
vt 0.41101640462875366 0.2250981330871582
vt 0.40986397862434387 0.22550296783447266
vt 0.41126716136932373 0.22562867403030396
vt 0.41115379333496094 0.22632676362991333
vt 0.41075995564460754 0.22550296783447266
vt 0.40947580337524414 0.22562867403030396
vt 0.40986397862434387 0.22550296783447266
vt 0.40936124324798584 0.22632676362991333
vt 0.41126716136932373 0.22562867403030396
vt 0.41075995564460754 0.22550296783447266
vt 0.41101640462875366 0.2250981330871582
vt 0.41115379333496094 0.22632676362991333
vt 0.41063055396080017 0.22631174325942993
vt 0.41075995564460754 0.22550296783447266
vt 0.41012173891067505 0.2250981330871582
vt 0.40986397862434387 0.22550296783447266
vt 0.40947580337524414 0.22562867403030396
vt 0.40986397862434387 0.22550296783447266
vt 0.4097338914871216 0.22631174325942993
vt 0.40936124324798584 0.22632676362991333
vt 0.41075995564460754 0.22550296783447266
vt 0.41063055396080017 0.22631174325942993
vt 0.4097338914871216 0.22631174325942993
vt 0.41101640462875366 0.2250981330871582
vt 0.41075995564460754 0.22550296783447266
vt 0.40986397862434387 0.22550296783447266
vt 0.40986397862434387 0.22550296783447266
vt 0.41075995564460754 0.22550296783447266
vt 0.4097338914871216 0.22631174325942993
vt 0.41168490052223206 0.2403765320777893
vt 0.4115193784236908 0.23993879556655884
vt 0.41202983260154724 0.2397872805595398
vt 0.4102463126182556 0.2397872805595398
vt 0.4106272757053375 0.23993879556655884
vt 0.41079363226890564 0.2403765320777893
vt 0.4121651351451874 0.24014955759048462
vt 0.41168490052223206 0.2403765320777893
vt 0.41202983260154724 0.2397872805595398
vt 0.4103829860687256 0.24014955759048462
vt 0.4102463126182556 0.2397872805595398
vt 0.41079363226890564 0.2403765320777893
vt 0.4106272757053375 0.23993879556655884
vt 0.4115193784236908 0.23993879556655884
vt 0.41168490052223206 0.2403765320777893
vt 0.41079363226890564 0.2403765320777893
vt 0.4106272757053375 0.23993879556655884
vt 0.41168490052223206 0.2403765320777893
vn 0.5614900588989258 0.6870189905166626 -0.4612307846546173
vn 0.4566420018672943 0.04142454266548157 -0.8886855840682983
vn 0.9938691854476929 0.01653045415878296 -0.10932009667158127
vn -0.9939990043640137 0.01729530096054077 -0.10801327228546143
vn -0.4562135338783264 0.04211118817329407 -0.8888733386993408
vn -0.5612695813179016 0.6869667768478394 -0.46157681941986084
vn -0.46138760447502136 0.04632493853569031 -0.8859884142875671
vn 0.4589211344718933 0.041138261556625366 -0.8875240683555603
vn 0.19448411464691162 0.7777677178382874 -0.5977067351341248
vn 0.9968634843826294 0.04826781153678894 -0.0627167820930481
vn 0.4625081717967987 0.5569546818733215 -0.6898460984230042
vn 0.9282556176185608 -0.20428621768951416 -0.31081917881965637
vn -0.9966772198677063 0.04735232889652252 -0.06627409160137177
vn -0.9288730621337891 -0.20428048074245453 -0.30897292494773865
vn -0.4623820185661316 0.5567737817764282 -0.6900766491889954
vn -0.46171262860298157 0.5611341595649719 -0.6869860887527466
vn -0.1541810929775238 -0.16728495061397552 -0.9737781286239624
vn 0.46472814679145813 0.5566920638084412 -0.6885648965835571
vn 0.4809735119342804 -0.7878562211990356 -0.3846389949321747
vn 0.45693355798721313 -0.8835602402687073 -0.10263073444366455
vn 0.9993836283683777 -0.03293144702911377 -0.012157231569290161
vn -0.45700469613075256 -0.8835095167160034 -0.10275022685527802
vn -0.4791836142539978 -0.7900084257125854 -0.3824523091316223
vn -0.9995819926261902 -0.02657233364880085 -0.011389747262001038
vn -0.47436538338661194 -0.7924010753631592 -0.38350751996040344
vn -0.37567803263664246 -0.9204075932502747 -0.1082400530576706
vn 0.47732269763946533 -0.7921394109725952 -0.38036584854125977
vn 0.42688289284706116 -0.8472480773925781 -0.31613534688949585
vn 0.9922349452972412 -0.11683791875839233 -0.042646028101444244
vn 0.955033540725708 -0.013849914073944092 -0.29617416858673096
vn -0.9922096729278564 -0.11709976196289063 -0.042516328394412994
vn -0.4269600808620453 -0.8471775650978088 -0.31622037291526794
vn -0.9542171955108643 -0.008016973733901978 -0.29900747537612915
vn 0.99985671043396 -0.016920946538448334 -0.0005414914339780807
vn 0.943279504776001 -0.025471046566963196 -0.33102118968963623
vn 0.495486855506897 -0.7355179786682129 -0.46206721663475037
vn -0.9999445676803589 -0.010521233081817627 0.00018994510173797607
vn -0.49341967701911926 -0.7380265593528748 -0.4602756202220917
vn -0.9436849355697632 -0.01761741191148758 -0.3303758203983307
vn -0.4321192800998688 -0.8453263640403748 -0.31415966153144836
vn 0.43202564120292664 -0.8472899198532104 -0.3089556396007538
vn 0.3481600284576416 -0.7059313058853149 -0.6168028116226196
vn -0.4743930995464325 -0.7923900485038757 -0.38349607586860657
vn 0.48478496074676514 -0.7403438687324524 -0.46569791436195374
vn -0.20278184115886688 -0.4315454959869385 -0.8790040016174316
vn 0.9926596283912659 -0.09273112565279007 -0.07763876020908356
vn 0.950852632522583 0.19695553183555603 -0.23893028497695923
vn 0.4384234845638275 -0.4599539041519165 -0.7721574902534485
vn -0.9935823082923889 -0.08634602278470993 -0.07306510210037231
vn -0.4365539252758026 -0.4589451551437378 -0.7738152742385864
vn -0.9508297443389893 0.19814588129520416 -0.2380356639623642
vn 0.9867178797721863 -0.16037200391292572 -0.02585756778717041
vn 0.434504896402359 -0.5397331118583679 -0.721036434173584
vn 0.507744312286377 -0.8386791944503784 -0.19700972735881805
vn 0.9931778907775879 -0.07307751476764679 -0.09087079763412476
vn 0.4522823095321655 0.042513467371463776 -0.8908609747886658
vn 0.5528958439826965 -0.6651292443275452 -0.5019056797027588
vn -0.5069930553436279 -0.8400211930274963 -0.193190336227417
vn -0.4324769675731659 -0.5392255187034607 -0.7226337790489197
vn -0.9876929521560669 -0.15510326623916626 -0.020139537751674652
vn -0.5506384372711182 -0.6656279563903809 -0.5037227869033813
vn -0.45185387134552 0.04323200881481171 -0.8910437822341919
vn -0.9933351278305054 -0.0727057158946991 -0.08943744003772736
vn 0.21204805374145508 -0.7275926470756531 -0.6524142622947693
vn 0.45891714096069336 0.04128293693065643 -0.8875194191932678
vn -0.5014151334762573 -0.03599125146865845 -0.864457905292511
vn 0.38366052508354187 -0.899034857749939 -0.21104702353477478
vn 0.45658889412879944 -0.5364542007446289 -0.7097488045692444
vn -0.5015290975570679 -0.5783699750900269 -0.6433947086334229
vn -0.4545268714427948 -0.5360141396522522 -0.711402952671051
vn 0.5018703937530518 -0.45947277545928955 -0.7328102588653564
vn -0.2249215543270111 0.23481592535972595 -0.9456593990325928
vn 0.5382407903671265 0.8426998853683472 -0.012396097183227539
vn 0.46448543667793274 0.5608724355697632 -0.6853286623954773
vn 0.9935647249221802 0.11114566028118134 0.02180972695350647
vn -0.9938229322433472 0.10944299399852753 0.018394291400909424
vn -0.46431076526641846 0.5607590079307556 -0.6855398416519165
vn -0.5382731556892395 0.8426859974861145 -0.011932969093322754
vn 0.9939653873443604 0.10605034232139587 -0.028035059571266174
vn 0.42830461263656616 0.8382186889648438 -0.33755698800086975
vn 0.9599514603614807 -0.021528378129005432 -0.27933815121650696
vn -0.9937016367912292 0.10901682078838348 -0.025929749011993408
vn -0.9586654901504517 -0.020821452140808105 -0.2837725579738617
vn -0.42811769247055054 0.8384265899658203 -0.33727723360061646
vn -0.5031145811080933 0.6152167320251465 -0.6069465279579163
vn 0.4620102643966675 0.5612098574638367 -0.686724066734314
vn 0.23297715187072754 0.9707419872283936 -0.05815112590789795
vn -0.458413302898407 0.8609459400177002 -0.22052063047885895
vn -0.2673253118991852 0.4493032395839691 -0.8524457216262817
vn 0.5076449513435364 0.808077871799469 -0.2988422214984894
f 3/3/3 2/2/2 1/1/1
f 6/6/6 5/5/5 4/4/4
f 9/9/9 8/8/8 7/7/7
f 12/12/12 11/11/11 10/10/10
f 15/15/15 14/14/14 13/13/13
f 18/18/18 17/17/17 16/16/16
f 21/21/21 20/20/20 19/19/19
f 24/24/24 23/23/23 22/22/22
f 27/27/27 26/26/26 25/25/25
f 30/30/30 29/29/29 28/28/28
f 33/33/33 32/32/32 31/31/31
f 36/36/36 35/35/35 34/34/34
f 39/39/39 38/38/38 37/37/37
f 42/42/42 41/41/41 40/40/40
f 45/45/45 44/44/44 43/43/43
f 48/48/48 47/47/47 46/46/46
f 51/51/51 50/50/50 49/49/49
f 54/54/54 53/53/53 52/52/52
f 57/57/57 56/56/56 55/55/55
f 60/60/60 59/59/59 58/58/58
f 63/63/63 62/62/62 61/61/61
f 66/66/66 65/65/65 64/64/64
f 69/69/69 68/68/68 67/67/67
f 72/72/72 71/71/71 70/70/70
f 75/75/75 74/74/74 73/73/73
f 78/78/78 77/77/77 76/76/76
f 81/81/81 80/80/80 79/79/79
f 84/84/84 83/83/83 82/82/82
f 87/87/87 86/86/86 85/85/85
f 90/90/90 89/89/89 88/88/88
