# VPXTOOL table OBJ file
# VPXTOOL OBJ file
# numVerts: 171 numFaces: 483
o LM_All_Lights_GIlight015_Playfi
v 234.87429809570313 828.0511474609375 -0
v 340.6910095214844 874.0349731445313 -0
v 280.13079833984375 945.15234375 -0
v 204.5941925048828 863.60986328125 -0
v 203.49420166015625 865.5347900390625 -0
v 350.3590393066406 867.5897216796875 -0
v 439.88531494140625 819.6773071289063 -0
v 354.11871337890625 868.1267700195313 -0
v 235.94850158691406 826.17138671875 -0
v 342.83941650390625 870.275390625 -0
v 237.8284454345703 821.2470703125 -0
v 346.59930419921875 868.1267700195313 -0
v 236.2235107421875 824.2463989257813 -0
v 235.94850158691406 822.3213500976563 -0
v 31.02920150756836 925.6815795898438 -0
v 0 1029.0196533203125 -0
v 0 900.3922119140625 -0
v 346.59930419921875 868.1267700195313 -0
v 342.11895751953125 686.159423828125 -0
v 350.3590393066406 867.5897216796875 -0
v 386.94415283203125 691.0498657226563 -0
v 126.85761260986328 785.9172973632813 -0
v 62.05840301513672 822.3434448242188 -0
v 105.8823013305664 900.3922119140625 -0
v 129.05760192871094 782.0673217773438 -0
v 342.11895751953125 686.159423828125 -0
v 235.94850158691406 822.3213500976563 -0
v 236.2235107421875 824.2463989257813 -0
v 129.60760498046875 778.2173461914063 -0
v 237.8284454345703 821.2470703125 -0
v 129.05760192871094 774.3673095703125 -0
v 63.27700424194336 823.0396728515625 -0
v 344.60809326171875 685.9779663085938 -0
v 129.60760498046875 778.2173461914063 -0
v 343.9988098144531 685.890869140625 -0
v 129.05760192871094 774.3673095703125 -0
v 67.82280731201172 818.7478637695313 -0
v 111.45760345458984 785.9172973632813 -0
v 67.62890625 821.1248779296875 -0
v 476.4704284667969 643.1373901367188 -0
v 67.82280731201172 818.7478637695313 -0
v 109.25760650634766 782.0673217773438 -0
v 111.45760345458984 785.9172973632813 -0
v 0 771.7648315429688 -0
v 108.70759582519531 778.2173461914063 -0
v 233.3480987548828 639.2796630859375 -0
v 61.362098693847656 821.1248779296875 -0
v 60.995296478271484 819.1530151367188 -0
v 67.68609619140625 736.0440063476563 -0
v 109.25760650634766 774.3673095703125 -0
v 111.45760345458984 770.517333984375 -0
v 123.00759887695313 768.3172607421875 -0
v 119.15760803222656 767.7671508789063 -0
v 66.81570434570313 733.6068725585938 -0
v 115.30760955810547 768.3172607421875 -0
v 67.51200103759766 734.825439453125 -0
v 232.73886108398438 638.9315185546875 -0
v 127.57050323486328 771.7648315429688 -0
v 61.02730178833008 737.909912109375 -0
v 203.1490936279297 611.9378051757813 -0
v 126.85761260986328 770.517333984375 -0
v 202.7926483154297 611.3140869140625 -0
v 61.071102142333984 736.0440063476563 -0
v 61.245201110839844 734.825439453125 -0
v 231.99530029296875 637.6302490234375 -0
v 200.86764526367188 610.2140502929688 -0
v 205.89915466308594 614.6878051757813 -0
v 423.529296875 514.5099487304688 -0
v 204.1490936279297 613.6878051757813 -0
v 338.8572082519531 504.3661193847656 -0
v 337.6385803222656 504.1920166015625 -0
v 0 643.1373291015625 -0
v 65.59709930419922 732.9105834960938 -0
v 65.59709930419922 732.9105834960938 -0
v 64.37860107421875 732.7365112304688 -0
v 0 643.1373291015625 -0
v 61.941402435302734 733.6068725585938 -0
v 64.37860107421875 732.7365112304688 -0
v 63.160003662109375 732.9105834960938 -0
v 172.77169799804688 592.85888671875 -0
v 200.86764526367188 610.2140502929688 -0
v 66.81570434570313 733.6068725585938 -0
v 172.77169799804688 592.85888671875 -0
v 336.42010498046875 503.4956970214844 -0
v 441.27960205078125 512.5304565429688 -0
v 284.2278137207031 457.6108093261719 -0
v 280.7276916503906 455.6108093261719 -0
v 139.3638458251953 547.6240844726563 -0
v 202.7926483154297 611.3140869140625 -0
v 278.7276916503906 452.1108093261719 -0
v 203.1490936279297 611.9378051757813 -0
v 278.7276916503906 452.1108093261719 -0
v 440.0609130859375 512.3561401367188 -0
v 438.8424072265625 511.6600341796875 -0
v 438.1462097167969 510.44171142578125 -0
v 437.3110656738281 508.3138732910156 -0
v 340.0758056640625 504.1920166015625 -0
v 423.529296875 514.5099487304688 -0
v 340.0758056640625 504.1920166015625 -0
v 341.2942810058594 503.4956970214844 -0
v 341.2942810058594 503.4956970214844 -0
v 341.9906005859375 502.2772216796875 -0
v 105.8823471069336 514.5098266601563 -0
v 385.7292785644531 475.6593017578125 -0
v 389.57928466796875 476.2093200683594 -0
v 393.4293212890625 475.6593017578125 -0
v 397.2793273925781 473.4593200683594 -0
v 399.47930908203125 469.6093444824219 -0
v 399.47930908203125 469.6093444824219 -0
v 400.029296875 465.7593078613281 -0
v 437.8113098144531 421.89312744140625 -0
v 400.029296875 465.7593078613281 -0
v 399.47930908203125 461.9092102050781 -0
v 335.72381591796875 502.2772216796875 -0
v 335.3570251464844 500.305419921875 -0
v 287.7276916503906 458.1108093261719 -0
v 0 482.35296630859375 -0
v 291.22772216796875 457.6108093261719 -0
v 294.727783203125 455.6108093261719 -0
v 296.727783203125 452.1108093261719 -0
v 335.3890075683594 413.7283020019531 -0
v 211.7646942138672 385.8824157714844 -0
v 297.2276916503906 448.61077880859375 -0
v 296.727783203125 445.1108093261719 -0
v 294.727783203125 441.6108093261719 -0
v 291.22772216796875 439.6108093261719 -0
v 278.22772216796875 448.61077880859375 -0
v 317.6470031738281 385.8824157714844 -0
v 287.7276916503906 439.11090087890625 -0
v 284.2278137207031 439.6108093261719 -0
v 278.7276916503906 445.1108093261719 -0
v 280.7276916503906 441.6108093261719 -0
v 441.1625061035156 416.7197265625 -0
v 439.9439697265625 416.8938293457031 -0
v 341.1773986816406 409.4253234863281 -0
v 335.43267822265625 411.8624267578125 -0
v 335.6067810058594 410.6439208984375 -0
v 423.529296875 385.8824157714844 -0
v 335.6067810058594 410.6439208984375 -0
v 317.6470031738281 385.8824157714844 -0
v 336.3031005859375 409.4253234863281 -0
v 341.1773986816406 409.4253234863281 -0
v 339.95880126953125 408.7289733886719 -0
v 336.3031005859375 409.4253234863281 -0
v 337.5216064453125 408.7289733886719 -0
v 338.7402038574219 408.5549011230469 -0
v 339.95880126953125 408.7289733886719 -0
v 105.8823471069336 353.72552490234375 -0
v 0 321.56866455078125 -0
v 291.17645263671875 289.41180419921875 -0
v 423.529296875 192.9412078857422 -0
v 370.5881652832031 192.9412078857422 -0
v 291.17645263671875 289.41180419921875 -0
v 211.7646942138672 385.8824157714844 -0
v 238.23526000976563 192.9412078857422 -0
v 105.8823471069336 192.9412078857422 -0
v 105.8823471069336 192.9412078857422 -0
v 238.23526000976563 192.9412078857422 -0
v 449.9998779296875 96.4706039428711 -0
v 0 160.78433227539063 -0
v 185.29408264160156 96.4706039428711 -0
v 370.5881652832031 192.9412078857422 -0
v 264.705810546875 -0 -0
v 449.9998779296875 96.4706039428711 -0
v 397.0587158203125 -0 -0
v 185.29408264160156 96.4706039428711 -0
v 264.705810546875 -0 -0
v 132.3529052734375 -0 -0
v 0 -0 -0
v 0 -0 -0
v 132.3529052734375 -0 -0
vt 0.689719557762146 0.4711947441101074
vt 0.7633203268051147 0.47408223152160645
vt 0.7198151350021362 0.4785986542701721
vt 0.6678856611251831 0.47342532873153687
vt 0.6670779585838318 0.47354650497436523
vt 0.7701684832572937 0.4736759662628174
vt 0.8331520557403564 0.47067171335220337
vt 0.7728040814399719 0.47370976209640503
vt 0.6905013918876648 0.4710772633552551
vt 0.764863908290863 0.4738451838493347
vt 0.6918951272964478 0.4707697033882141
vt 0.7675237059593201 0.47370976209640503
vt 0.690724790096283 0.4709569811820984
vt 0.6905636191368103 0.4708367586135864
vt 0.5441726446151733 0.4773558974266052
vt 0.5188547968864441 0.4840056300163269
vt 0.5230844616889954 0.47574883699417114
vt 0.7675237059593201 0.47370976209640503
vt 0.766004741191864 0.4624437093734741
vt 0.7701684832572937 0.4736759662628174
vt 0.7969110608100891 0.4627414345741272
vt 0.6151444315910339 0.46857142448425293
vt 0.5689880847930908 0.47083812952041626
vt 0.5976710319519043 0.47574883699417114
vt 0.6167663335800171 0.46833276748657227
vt 0.766004741191864 0.4624437093734741
vt 0.6905636191368103 0.4708367586135864
vt 0.690724790096283 0.4709569811820984
vt 0.6172383427619934 0.4680942893028259
vt 0.6918951272964478 0.4707697033882141
vt 0.616944432258606 0.46785593032836914
vt 0.569820761680603 0.4708816409111023
vt 0.7677241563796997 0.4624326825141907
vt 0.6172383427619934 0.4680942893028259
vt 0.7673044204711914 0.46242737770080566
vt 0.616944432258606 0.46785593032836914
vt 0.5731168389320374 0.4706137180328369
vt 0.6044149994850159 0.46857142448425293
vt 0.5729161500930786 0.47076207399368286
vt 0.8587239384651184 0.4598367214202881
vt 0.5731168389320374 0.4706137180328369
vt 0.6029765009880066 0.46833276748657227
vt 0.6044149994850159 0.46857142448425293
vt 0.5272101163864136 0.4676949381828308
vt 0.6026877164840698 0.4680942893028259
vt 0.6916816234588623 0.4596039652824402
vt 0.5685352087020874 0.47076207399368286
vt 0.5683337450027466 0.4706389904022217
vt 0.5752716660499573 0.465493381023407
vt 0.6031647324562073 0.46785593032836914
vt 0.6047892570495605 0.46761780977249146
vt 0.6128761172294617 0.4674818515777588
vt 0.6102113723754883 0.46744781732559204
vt 0.5747340321540833 0.465343713760376
vt 0.6075204610824585 0.4674818515777588
vt 0.5751838088035583 0.4654185175895691
vt 0.6912685036659241 0.45958298444747925
vt 0.6159698367118835 0.4676949381828308
vt 0.5706032514572144 0.46560800075531006
vt 0.6714159846305847 0.45795929431915283
vt 0.6155028343200684 0.46761780977249146
vt 0.6711827516555786 0.4579218626022339
vt 0.5706847906112671 0.465493381023407
vt 0.5708389282226563 0.4654185175895691
vt 0.6907782554626465 0.45950448513031006
vt 0.6698831915855408 0.45785588026046753
vt 0.6732526421546936 0.4581243395805359
vt 0.8227729201316833 0.45216697454452515
vt 0.6720705628395081 0.45806431770324707
vt 0.7653625011444092 0.45156997442245483
vt 0.7645372748374939 0.45155972242355347
vt 0.5312355756759644 0.4598367214202881
vt 0.5739081501960754 0.46530091762542725
vt 0.5739081501960754 0.46530091762542725
vt 0.5730682015419006 0.46529024839401245
vt 0.5312355756759644 0.4598367214202881
vt 0.5713549852371216 0.465343713760376
vt 0.5730682015419006 0.46529024839401245
vt 0.5722187161445618 0.46530091762542725
vt 0.6509713530540466 0.4568166732788086
vt 0.6698831915855408 0.45785588026046753
vt 0.5747340321540833 0.465343713760376
vt 0.6509713530540466 0.4568166732788086
vt 0.7637168169021606 0.4515187740325928
vt 0.834831178188324 0.4520503878593445
vt 0.7288658022880554 0.448832631111145
vt 0.7265260815620422 0.44871610403060913
vt 0.6290938854217529 0.454123854637146
vt 0.6711827516555786 0.4579218626022339
vt 0.725218653678894 0.4485121965408325
vt 0.6714159846305847 0.45795929431915283
vt 0.725218653678894 0.4485121965408325
vt 0.8340041041374207 0.4520401358604431
vt 0.8331785202026367 0.45199912786483765
vt 0.8327087759971619 0.45192742347717285
vt 0.8321471810340881 0.45180219411849976
vt 0.766190767288208 0.45155972242355347
vt 0.8227729201316833 0.45216697454452515
vt 0.766190767288208 0.45155972242355347
vt 0.7670233845710754 0.4515187740325928
vt 0.7670233845710754 0.4515187740325928
vt 0.7675060629844666 0.45144718885421753
vt 0.6070666313171387 0.45216697454452515
vt 0.7973263263702393 0.4498865008354187
vt 0.7999283671379089 0.4499186873435974
vt 0.8025363683700562 0.4498865008354187
vt 0.8051522970199585 0.4497578740119934
vt 0.8066592216491699 0.4495328664779663
vt 0.8066592216491699 0.4495328664779663
vt 0.8070496320724487 0.44930797815322876
vt 0.8326963186264038 0.4467574954032898
vt 0.8070496320724487 0.44930797815322876
vt 0.8066964149475098 0.4490833282470703
vt 0.7632552981376648 0.45144718885421753
vt 0.763024091720581 0.45133131742477417
vt 0.7312240600585938 0.4488617777824402
vt 0.5361320376396179 0.45027822256088257
vt 0.7335942387580872 0.448832631111145
vt 0.7359812259674072 0.44871610403060913
vt 0.7373713850975037 0.4485121965408325
vt 0.7638111710548401 0.44628506898880005
vt 0.6810997128486633 0.4446791410446167
vt 0.7377481460571289 0.44830846786499023
vt 0.737450122833252 0.4481048583984375
vt 0.7361404299736023 0.4479013681411743
vt 0.733802855014801 0.4477851390838623
vt 0.7249245643615723 0.44830846786499023
vt 0.7521494626998901 0.4446791410446167
vt 0.7314484119415283 0.4477561116218567
vt 0.7290823459625244 0.4477851390838623
vt 0.7253052592277527 0.4481048583984375
vt 0.7266975045204163 0.4479013681411743
vt 0.8349639177322388 0.44645804166793823
vt 0.8341435194015503 0.4464681148529053
vt 0.7677415013313293 0.44603633880615234
vt 0.7638569474220276 0.4461771845817566
vt 0.7639846801757813 0.4461067318916321
vt 0.8231991529464722 0.4446791410446167
vt 0.7639846801757813 0.4461067318916321
vt 0.7521494626998901 0.4446791410446167
vt 0.7644636034965515 0.44603633880615234
vt 0.7677415013313293 0.44603633880615234
vt 0.76692795753479 0.44599610567092896
vt 0.7644636034965515 0.44603633880615234
vt 0.7652890682220459 0.44599610567092896
vt 0.7661100029945374 0.4459860324859619
vt 0.76692795753479 0.44599610567092896
vt 0.6107847690582275 0.4428347945213318
vt 0.5408841967582703 0.44100135564804077
vt 0.7354827523231506 0.4391787052154541
vt 0.8238198161125183 0.4337744116783142
vt 0.7889156341552734 0.4337744116783142
vt 0.7354827523231506 0.4391787052154541
vt 0.6810997128486633 0.4446791410446167
vt 0.7016551494598389 0.4337744116783142
vt 0.6143946647644043 0.4337744116783142
vt 0.6143946647644043 0.4337744116783142
vt 0.7016551494598389 0.4337744116783142
vt 0.8414230346679688 0.4284636974334717
vt 0.5454983711242676 0.43199390172958374
vt 0.6684134602546692 0.4284636974334717
vt 0.7889156341552734 0.4337744116783142
vt 0.7215046882629395 0.4232441782951355
vt 0.8414230346679688 0.4284636974334717
vt 0.8072667717933655 0.4232441782951355
vt 0.6684134602546692 0.4284636974334717
vt 0.7215046882629395 0.4232441782951355
vt 0.6357426047325134 0.4232441782951355
vt 0.5499805212020874 0.4232441782951355
vt 0.5499805212020874 0.4232441782951355
vt 0.6357426047325134 0.4232441782951355
vn 0 -0 -1
vn 0 -0 -1
vn 0 -0 -1
vn 0 -0 -1
vn 0 -0 -1
vn 0 -0 -1
vn 0 -0 -1
vn 0 -0 -1
vn 0 -0 -1
vn 0 -0 -1
vn 0 -0 -1
vn 0 -0 -1
vn 0 -0 -1
vn 0 -0 -1
vn 0 -0 -1
vn 0 -0 -1
vn 0 -0 -1
vn 0 -0 -0.9999999403953552
vn 0 -0 -0.9999999403953552
vn 0 -0 -0.9999999403953552
vn 0 -0 -1
vn 0 -0 -1
vn 0 -0 -1
vn 0 -0 -1
vn 0 -0 -1
vn 0 -0 -1
vn 0 -0 -0.9999999403953552
vn 0 -0 -0.9999999403953552
vn 0 -0 -0.9999999403953552
vn 0 -0 -0.9999999403953552
vn 0 -0 -0.9999999403953552
vn 0 -0 -1
vn 0 -0 -1
vn 0 -0 -1
vn 0 -0 -1
vn 0 -0 -1
vn 0 -0 -0.9999999403953552
vn 0 -0 -0.9999999403953552
vn 0 -0 -0.9999999403953552
vn 0 -0 -1
vn 0 -0 -1
vn 0 -0 -1
vn 0 -0 -1
vn 0 -0 -1
vn 0 -0 -1
vn 0 -0 -1
vn 0 -0 -1
vn 0 -0 -1
vn 0 -0 -1
vn 0 -0 -1
vn 0 -0 -1
vn 0 -0 -1
vn 0 -0 -1
vn 0 -0 -1
vn 0 -0 -1
vn 0 -0 -1
vn 0 -0 -1
vn 0 -0 -1
vn 0 -0 -1
vn 0 -0 -1
vn 0 -0 -1
vn 0 -0 -1
vn 0 -0 -1
vn 0 -0 -1
vn 0 -0 -1
vn 0 -0 -1
vn 0 -0 -1
vn 0 -0 -1
vn 0 -0 -1
vn 0 -0 -1
vn 0 -0 -1
vn 0 -0 -1
vn 0 -0 -1
vn 0 -0 -0.9999999403953552
vn 0 -0 -0.9999999403953552
vn 0 -0 -0.9999999403953552
vn 0 -0 -1
vn 0 -0 -1
vn 0 -0 -1
vn 0 -0 -0.9999999403953552
vn 0 -0 -0.9999999403953552
vn 0 -0 -0.9999999403953552
vn 0 -0 -1
vn 0 -0 -1
vn 0 -0 -1
vn 0 -0 -1
vn 0 -0 -1
vn 0 -0 -1
vn 0 -0 -0.9999999403953552
vn 0 -0 -0.9999999403953552
vn 0 -0 -0.9999999403953552
vn 0 -0 -1
vn 0 -0 -1
vn 0 -0 -1
vn 0 -0 -1
vn 0 -0 -1
vn 0 -0 -1
vn 0 -0 -0.9999999403953552
vn 0 -0 -0.9999999403953552
vn 0 -0 -0.9999999403953552
vn 0 -0 -1
vn 0 -0 -1
vn 0 -0 -1
vn 0 -0 -1
vn 0 -0 -1
vn 0 -0 -1
vn 0 -0 -1
vn 0 -0 -1
vn 0 -0 -0.9999999403953552
vn 0 -0 -0.9999999403953552
vn 0 -0 -1
vn 0 -0 -1
vn 0 -0 -1
vn 0 -0 -1
vn 0 -0 -1
vn 0 -0 -1
vn 0 -0 -1
vn 0 -0 -1
vn 0 -0 -1
vn 0 -0 -1
vn 0 -0 -1
vn 0 -0 -1
vn 0 -0 -1
vn 0 -0 -1
vn 0 -0 -1
vn 0 -0 -1
vn 0 -0 -1
vn 0 -0 -1
vn 0 -0 -1
vn 0 -0 -1
vn 0 -0 -1
vn 0 -0 -1
vn 0 -0 -1
vn 0 -0 -1
vn 0 -0 -1
vn 0 -0 -1
vn 0 -0 -1
vn 0 -0 -1
vn 0 -0 -0.9999999403953552
vn 0 -0 -0.9999999403953552
vn 0 -0 -0.9999999403953552
vn 0 -0 -0.9999999403953552
vn 0 -0 -0.9999999403953552
vn 0 -0 -1
vn 0 -0 -1
vn 0 -0 -1
vn 0 -0 -1
vn 0 -0 -1
vn 0 -0 -1
vn 0 -0 -1
vn 0 -0 -1
vn 0 -0 -1
vn 0 -0 -0.9999999403953552
vn 0 -0 -0.9999999403953552
vn 0 -0 -0.9999999403953552
vn 0 -0 -1
vn 0 -0 -0.9999999403953552
vn 0 -0 -1
vn 0 -0 -1
vn 0 -0 -1
vn 0 -0 -0.9999999403953552
vn 0 -0 -0.9999999403953552
vn 0 -0 -0.9999999403953552
vn 0 -0 -0.9999999403953552
vn 0 -0 -0.9999999403953552
vn 0 -0 -1
vn 0 -0 -1
vn 0 -0 -1
vn 0 -0 -1
vn 0 -0 -0.9999999403953552
vn 0 -0 -0.9999999403953552
f 3/3/3 2/2/2 1/1/1
f 5/5/5 3/3/3 4/4/4
f 8/8/8 7/7/7 6/6/6
f 3/3/3 1/1/1 4/4/4
f 2/2/2 10/10/10 9/9/9
f 10/10/10 12/12/12 11/11/11
f 2/2/2 9/9/9 1/1/1
f 13/13/13 9/9/9 10/10/10
f 14/14/14 13/13/13 10/10/10
f 10/10/10 11/11/11 14/14/14
f 17/17/17 16/16/16 15/15/15
f 20/20/20 19/19/19 18/18/18
f 6/6/6 7/7/7 21/21/21
f 22/22/22 5/5/5 4/4/4
f 24/24/24 23/23/23 15/15/15
f 25/25/25 4/4/4 1/1/1
f 11/11/11 12/12/12 26/26/26
f 25/25/25 1/1/1 9/9/9
f 25/25/25 9/9/9 13/13/13
f 29/29/29 28/28/28 27/27/27
f 17/17/17 15/15/15 23/23/23
f 31/31/31 27/27/27 30/30/30
f 32/32/32 23/23/23 24/24/24
f 22/22/22 4/4/4 25/25/25
f 33/33/33 6/6/6 21/21/21
f 25/25/25 13/13/13 34/34/34
f 35/35/35 6/6/6 33/33/33
f 6/6/6 35/35/35 26/26/26
f 34/34/34 14/14/14 36/36/36
f 39/39/39 38/38/38 37/37/37
f 21/21/21 7/7/7 40/40/40
f 43/43/43 42/42/42 41/41/41
f 17/17/17 23/23/23 44/44/44
f 42/42/42 45/45/45 41/41/41
f 36/36/36 11/11/11 46/46/46
f 47/47/47 44/44/44 23/23/23
f 48/48/48 44/44/44 47/47/47
f 46/46/46 11/11/11 26/26/26
f 41/41/41 45/45/45 49/49/49
f 45/45/45 50/50/50 49/49/49
f 50/50/50 51/51/51 49/49/49
f 54/54/54 53/53/53 52/52/52
f 49/49/49 51/51/51 55/55/55
f 56/56/56 55/55/55 53/53/53
f 58/58/58 36/36/36 57/57/57
f 59/59/59 44/44/44 48/48/48
f 56/56/56 49/49/49 55/55/55
f 54/54/54 56/56/56 53/53/53
f 61/61/61 58/58/58 60/60/60
f 52/52/52 61/61/61 62/62/62
f 44/44/44 59/59/59 63/63/63
f 44/44/44 63/63/63 64/64/64
f 57/57/57 36/36/36 46/46/46
f 65/65/65 58/58/58 57/57/57
f 54/54/54 52/52/52 66/66/66
f 67/67/67 58/58/58 65/65/65
f 33/33/33 21/21/21 68/68/68
f 69/69/69 58/58/58 67/67/67
f 60/60/60 58/58/58 69/69/69
f 62/62/62 61/61/61 60/60/60
f 52/52/52 62/62/62 66/66/66
f 35/35/35 33/33/33 70/70/70
f 26/26/26 35/35/35 71/71/71
f 21/21/21 40/40/40 68/68/68
f 72/72/72 44/44/44 64/64/64
f 72/72/72 73/73/73 54/54/54
f 76/76/76 75/75/75 74/74/74
f 72/72/72 64/64/64 77/77/77
f 79/79/79 78/78/78 72/72/72
f 77/77/77 79/79/79 72/72/72
f 46/46/46 26/26/26 71/71/71
f 82/82/82 81/81/81 80/80/80
f 72/72/72 54/54/54 83/83/83
f 84/84/84 57/57/57 46/46/46
f 57/57/57 84/84/84 65/65/65
f 67/67/67 65/65/65 84/84/84
f 33/33/33 68/68/68 70/70/70
f 40/40/40 85/85/85 68/68/68
f 70/70/70 71/71/71 35/35/35
f 46/46/46 71/71/71 84/84/84
f 69/69/69 67/67/67 86/86/86
f 60/60/60 69/69/69 87/87/87
f 72/72/72 83/83/83 88/88/88
f 91/91/91 90/90/90 89/89/89
f 66/66/66 62/62/62 92/92/92
f 80/80/80 81/81/81 90/90/90
f 85/85/85 93/93/93 68/68/68
f 93/93/93 94/94/94 68/68/68
f 94/94/94 95/95/95 68/68/68
f 95/95/95 96/96/96 68/68/68
f 67/67/67 84/84/84 86/86/86
f 70/70/70 68/68/68 97/97/97
f 100/100/100 99/99/99 98/98/98
f 102/102/102 101/101/101 68/68/68
f 72/72/72 88/88/88 103/103/103
f 88/88/88 83/83/83 92/92/92
f 104/104/104 102/102/102 68/68/68
f 69/69/69 86/86/86 87/87/87
f 106/106/106 105/105/105 68/68/68
f 105/105/105 104/104/104 68/68/68
f 68/68/68 107/107/107 106/106/106
f 87/87/87 92/92/92 60/60/60
f 68/68/68 108/108/108 107/107/107
f 98/98/98 110/110/110 109/109/109
f 96/96/96 111/111/111 68/68/68
f 68/68/68 113/113/113 112/112/112
f 86/86/86 84/84/84 114/114/114
f 116/116/116 114/114/114 115/115/115
f 113/113/113 68/68/68 111/111/111
f 117/117/117 72/72/72 103/103/103
f 116/116/116 86/86/86 114/114/114
f 118/118/118 116/116/116 115/115/115
f 119/119/119 118/118/118 115/115/115
f 120/120/120 119/119/119 115/115/115
f 115/115/115 121/121/121 120/120/120
f 88/88/88 122/122/122 103/103/103
f 88/88/88 92/92/92 122/122/122
f 121/121/121 123/123/123 120/120/120
f 121/121/121 124/124/124 123/123/123
f 121/121/121 125/125/125 124/124/124
f 126/126/126 125/125/125 121/121/121
f 92/92/92 127/127/127 122/122/122
f 129/129/129 126/126/126 128/128/128
f 130/130/130 129/129/129 128/128/128
f 122/122/122 127/127/127 131/131/131
f 122/122/122 131/131/131 132/132/132
f 128/128/128 134/134/134 133/133/133
f 122/122/122 132/132/132 130/130/130
f 128/128/128 126/126/126 121/121/121
f 128/128/128 135/135/135 134/134/134
f 136/136/136 128/128/128 121/121/121
f 137/137/137 128/128/128 136/136/136
f 133/133/133 138/138/138 128/128/128
f 141/141/141 140/140/140 139/139/139
f 140/140/140 143/143/143 142/142/142
f 145/145/145 128/128/128 144/144/144
f 147/147/147 128/128/128 146/146/146
f 146/146/146 128/128/128 145/145/145
f 128/128/128 122/122/122 130/130/130
f 148/148/148 103/103/103 122/122/122
f 117/117/117 103/103/103 149/149/149
f 150/150/150 122/122/122 128/128/128
f 149/149/149 103/103/103 148/148/148
f 151/151/151 128/128/128 138/138/138
f 150/150/150 128/128/128 152/152/152
f 155/155/155 154/154/154 153/153/153
f 148/148/148 122/122/122 156/156/156
f 152/152/152 128/128/128 151/151/151
f 149/149/149 148/148/148 156/156/156
f 155/155/155 157/157/157 154/154/154
f 152/152/152 158/158/158 150/150/150
f 159/159/159 152/152/152 151/151/151
f 160/160/160 149/149/149 156/156/156
f 155/155/155 161/161/161 157/157/157
f 163/163/163 155/155/155 162/162/162
f 165/165/165 162/162/162 164/164/164
f 167/167/167 166/166/166 158/158/158
f 168/168/168 156/156/156 166/166/166
f 165/165/165 163/163/163 162/162/162
f 160/160/160 156/156/156 169/169/169
f 171/171/171 170/170/170 157/157/157
